<?xml version="1.0" standalone="no"?>
<!DOCTYPE svg PUBLIC "-//W3C//DTD SVG 1.1//EN" "http://www.w3.org/Graphics/SVG/1.1/DTD/svg11.dtd" >
<svg xmlns="http://www.w3.org/2000/svg">
<metadata></metadata>
<defs>
<font id="SSPika" >
<font-face font-family="SS Pika" units-per-em="960" ascent="1020" descent="-300" />
<missing-glyph  />
<glyph  horiz-adv-x="960"  />
<glyph unicode="%" horiz-adv-x="960" d="M384 704q0 -80 -56 -136t-136 -56t-136 56t-56 136t56 136t136 56t136 -56t56 -136zM797 859q14 -28 -5 -59q-64 -96 -180.5 -270.5t-196 -293.5t-82.5 -124q-30 -48 -84 -48q-64 0 -85 37q-16 26 5 59q6 10 459 689q30 47 83 47q65 0 86 -37zM768 64q-80 0 -136 56
t-56 136t56 136t136 56t136 -56t56 -136t-56 -136t-136 -56z" />
<glyph unicode="+" horiz-adv-x="960" d="M860 537q8 -73 0 -147q-1 -16 -13 -27t-29 -11h-242v-242q0 -16 -11 -28t-27 -14q-74 -8 -148 0q-16 2 -27 14t-11 28v242h-241q-17 0 -29 10.5t-14 27.5q-8 74 0 147q2 17 14 28t29 11h241v241q0 17 11 29t27 14q74 8 148 0q16 -2 27 -14t11 -29v-241h242q16 0 28 -11
t14 -28z" />
<glyph unicode="-" horiz-adv-x="960" d="M68 390q-8 74 0 148q2 16 14 27t28 11h708q16 0 28 -11t14 -27q8 -74 0 -148q-2 -16 -14 -27t-28 -11h-708q-16 0 -28 11t-14 27z" />
<glyph unicode="&#x201c;" horiz-adv-x="960" d="M416 608q0 -297 -262 -414q-6 -2 -12 -2q-20 0 -28 18l-47 98q-6 12 -1.5 25t16.5 19q43 22 67.5 44t36.5 53q-81 2 -145 11q-23 3 -28 26q-13 81 -13 151q0 82 13 156q5 24 28 27q82 12 167 12q84 0 168 -12q10 -2 17.5 -9.5t8.5 -17.5q14 -76 14 -185zM928 608
q0 -297 -262 -414q-6 -2 -12 -2q-20 0 -28 18l-47 98q-6 12 -1.5 25t16.5 19q43 22 67.5 44t36.5 53q-81 2 -145 11q-23 3 -28 26q-13 74 -13 154q0 79 13 153q5 24 28 27q82 12 167 12q84 0 168 -12q10 -2 17.5 -9.5t8.5 -17.5q14 -76 14 -185z" />
<glyph unicode="&#x2139;" horiz-adv-x="960" d="M480 960q130 0 240.5 -64.5t175 -175t64.5 -240.5t-64.5 -240.5t-175 -175t-240.5 -64.5t-240.5 64.5t-175 175t-64.5 240.5t64.5 240.5t175 175t240.5 64.5zM480 663q29 0 51 21.5t22 50.5t-22 51.5t-51 22.5t-51 -22.5t-22 -51.5t22 -50.5t51 -21.5zM410 192h140
q14 0 23 9t9 23v32q0 14 -9 23t-23 9l1 256q0 13 -9.5 22.5t-22.5 9.5h-109q-14 0 -23 -9t-9 -23v-32q0 -14 9 -23t23 -9v-192q-14 0 -23 -9t-9 -23v-32q0 -14 9 -23t23 -9z" />
<glyph unicode="&#x21a9;" horiz-adv-x="960" d="M448 671q75 -4 141.5 -16t129.5 -37t108.5 -60.5t73 -89.5t27.5 -120q0 -69 -30.5 -131t-74.5 -100t-90 -60.5t-81 -22.5q-41 0 -61 22t-8 51t54 45q62 23 84.5 64t-1.5 87q-20 38 -98 59t-174 23v-172q0 -30 -21 -41q-12 -5 -22 -5q-15 0 -26 8q-82 55 -166.5 137
t-122.5 127t-48 61q-22 28 0 57q18 24 50 62.5t118.5 123t168.5 139.5q23 17 48 2q21 -11 21 -40v-173z" />
<glyph unicode="&#x21aa;" horiz-adv-x="960" d="M512 702v173q0 28 24 41t48 -2q33 -22 67 -49t62.5 -53t56.5 -53.5t49 -50.5t40.5 -45.5t31.5 -37t21 -25.5l9 -11q22 -29 0 -58l-9 -11q-9 -11 -21 -25.5t-31.5 -37t-40.5 -45.5t-49 -50.5t-56.5 -53.5t-62.5 -53t-67 -49q-13 -8 -26 -8q-12 0 -22 6q-24 13 -24 41v175
q-94 -2 -171 -24.5t-98 -60.5q-24 -47 -1.5 -87.5t84.5 -64.5q41 -16 53.5 -45t-7.5 -51t-61 -22q-35 1 -81 23.5t-90 60.5t-74.5 99.5t-30.5 130.5q0 82 40.5 144.5t110.5 99t151 56t175 23.5z" />
<glyph unicode="&#x21ba;" horiz-adv-x="960" d="M39 834q3 21 24 28t36 -10l95 -110q47 55 112 94q93 55 206 55q27 1 64 -4q70 -9 137 -40.5t113 -77.5q49 -49 79 -106q32 -62 43 -128q22 -133 -42 -255q-59 -112 -178 -181q-117 -67 -232 -63q-118 4 -219 82h-1q-17 13 -22 33.5t4 40.5q11 22 34.5 30.5t45.5 -2.5
q70 -34 155 -26q80 9 139 54q55 42 78.5 113t6.5 130q-16 58 -68 102q-48 42 -105 48q-56 5 -107 -25q-22 -14 -48 -41l126 -83q18 -12 15 -34t-25 -27q-166 -47 -392 -47h-20q-12 0 -21 8t-11 19q-3 13 -6 29.5t-9.5 66.5t-10 97t-3.5 111t7 119z" />
<glyph unicode="&#x21bb;" horiz-adv-x="960" d="M920 802q7 -55 7.5 -118.5t-3.5 -112.5t-10 -96t-9.5 -67.5t-5.5 -28.5q-2 -11 -11 -19t-21 -8h-20q-227 0 -393 47q-21 5 -24 27q-3 21 15 34l126 83q-26 28 -48 40q-51 31 -107 25q-57 -5 -105 -47q-52 -44 -68 -102q-17 -59 6.5 -130t78.5 -113q56 -44 139 -54
q85 -8 155 26q22 11 45.5 2.5t34.5 -30.5q9 -20 4 -40.5t-22 -33.5l-1 -1q-102 -76 -219 -81q-116 -4 -232 63q-121 70 -179 181q-63 120 -41 255q11 69 42 128q32 58 80 106q45 46 112 77t138 41q29 4 65 4q113 0 205 -56q65 -38 112 -94l95 111q15 17 35 10q22 -7 24 -28z
" />
<glyph unicode="&#x22c6;" horiz-adv-x="960" d="M957 595q8 -21 -3 -40q-49 -90 -209 -226q42 -173 50 -277q2 -28 -22 -44q-13 -8 -26 -8q-10 0 -22 5q-17 10 -55 28q-135 67 -190 102q-55 -35 -190 -102q-38 -18 -55 -28q-25 -13 -48 3q-24 16 -22 44q8 104 50 277q-160 136 -209 226q-11 19 -3 40q7 21 26 28
q56 25 283 33q82 238 134 290q16 14 34 14q19 0 33 -14q53 -52 135 -290q227 -8 283 -33q19 -8 26 -28z" />
<glyph unicode="&#x2301;" horiz-adv-x="960" d="M942 445q18 -8 18 -28q0 -21 -17 -29l-770 -385q-7 -3 -14 -3q-16 0 -25 12q-17 20 0 40l244 296l-360 167q-18 8 -18 28q0 21 17 29l770 384q23 12 38 -8q17 -19 1 -40l-244 -296z" />
<glyph unicode="&#x2302;" horiz-adv-x="960" d="M480 32q-135 0 -275 28q-33 8 -38 41l-40 283h-79q-28 0 -43 26q-13 27 4 49q46 66 108 134t114.5 116t107 92t79 61.5t35.5 25.5q27 19 54 0q64 -42 165 -129v105q0 14 9 23t23 9h96q14 0 23 -9t9 -23v-259q64 -67 115 -140q13 -15 13 -33q0 -20 -14 -34t-34 -14h-79
l-41 -283q-1 -15 -11.5 -26t-25.5 -15q-142 -28 -275 -28zM604 190l8 128q0 14 -9 24q-10 10 -23 10h-200q-13 0 -23 -10q-9 -10 -9 -24l8 -128q2 -26 28 -30q53 -5 96 -5t96 5q26 4 28 30z" />
<glyph unicode="&#x2316;" horiz-adv-x="960" d="M480 960q130 0 240.5 -64.5t175 -175t64.5 -240.5t-64.5 -240.5t-175 -175t-240.5 -64.5t-240.5 64.5t-175 175t-64.5 240.5t64.5 240.5t175 175t240.5 64.5zM544 121q109 21 191 103.5t103 191.5h-102q-14 0 -23 9t-9 23v64q0 14 9 23t23 9h103q-22 109 -104 191
t-191 103v-102q0 -14 -9 -23t-23 -9h-64q-14 0 -23 9t-9 23v102q-109 -21 -191.5 -103t-103.5 -191h103q14 0 23 -9t9 -23v-64q0 -14 -9 -23t-23 -9h-103q21 -109 103.5 -191t191.5 -103v102q0 14 9 23t23 9h64q14 0 23 -9t9 -23v-103zM480 544q26 0 45 -19t19 -45t-19 -45
t-45 -19t-45 19t-19 45t19 45t45 19z" />
<glyph unicode="&#x231a;" horiz-adv-x="960" d="M864 480q0 -81 -34.5 -152t-95.5 -121q-11 -121 -57 -164t-166 -43q-121 0 -167 43.5t-57 166.5q-85 69 -114 177l-15 3q-36 7 -49 25.5t-13 64.5t13 64.5t49 25.5q2 0 4.5 1t5 1.5t5.5 0.5q29 107 115 178q10 112 49 156.5t135 49.5q18 3 40 3q21 0 39 -3
q96 -5 135 -49.5t49 -155.5q60 -50 94.5 -120.5t34.5 -151.5zM512 250q95 0 162.5 67.5t67.5 162.5t-67.5 162.5t-162.5 67.5t-162.5 -67.5t-67.5 -162.5t67.5 -162.5t162.5 -67.5zM641 433q-11 -19 -34 -16l-114 16q-18 3 -28.5 17.5t-8.5 31.5v1l1 1l22 129q2 13 13 21
t25 6q24 -5 27 -27l17 -96l68 -39q12 -7 15.5 -20t-3.5 -25z" />
<glyph unicode="&#x232b;" horiz-adv-x="960" d="M864 832q40 0 68 -25.5t28 -65.5v-505q0 -40 -33 -74t-73 -34h-438q-82 0 -200.5 96.5t-196.5 203.5q-19 25 -19 55t19 56q77 104 195.5 198.5t201.5 94.5h448zM758 369l-106 111l110 115q9 10 7.5 23.5t-11.5 23.5l-23 24q-10 10 -23.5 11t-23.5 -8l-112 -111l-113 111
q-9 9 -22.5 8t-23.5 -11l-23 -24q-10 -10 -11.5 -23.5t7.5 -23.5l113 -115l-109 -111q-10 -10 -10 -25.5t10 -25.5l23 -24q10 -10 23.5 -11t22.5 8l113 114l112 -114q10 -9 23.5 -8t23.5 11l23 24q10 10 10 25.5t-10 25.5z" />
<glyph unicode="&#x2397;" horiz-adv-x="960" d="M256 928q0 -53 37.5 -90.5t90.5 -37.5h331q48 0 82.5 -34.5t34.5 -82.5v-331q0 -53 37.5 -90.5t90.5 -37.5v-128q-113 0 -189.5 20t-163 78.5t-204.5 176.5t-176.5 204.5t-78.5 163t-20 189.5h128zM77 212l-69 72q-13 14 -8 32q6 18 25 21q75 15 171 15q20 0 39.5 -0.5
t34 -1.5t25.5 -2t17 -2h7q24 -3 27 -27l1 -11q1 -10 2 -26t2 -37.5t1 -48t-1.5 -54t-4.5 -58.5t-9 -59q-4 -20 -20 -24q-3 -1 -10 -1q-13 0 -22 9l-73 68q-35 -25 -77.5 -49.5t-51.5 -26.5q-32 -5 -59 23q-28 27 -23 59q2 10 25.5 51t50.5 78z" />
<glyph unicode="&#x2398;" horiz-adv-x="960" d="M704 928h128q0 -113 -20 -189.5t-78.5 -163t-176.5 -204.5t-204.5 -176.5t-163 -78.5t-189.5 -20v128q53 0 90.5 37.5t37.5 90.5v331q0 48 34.5 82.5t82.5 34.5h331q53 0 90.5 37.5t37.5 90.5zM883 212q27 -37 50.5 -78t25.5 -51q5 -32 -23 -59q-27 -28 -59 -23
q-9 2 -51.5 26.5t-77.5 49.5l-73 -68q-9 -9 -22 -9q-7 0 -10 1q-16 4 -20 24q-12 62 -14 136t0.5 110t4.5 48q3 24 26 27h7q7 1 18 2t25.5 2t34 1.5t39.5 0.5q96 0 171 -15q19 -3 25 -21q5 -18 -8 -32z" />
<glyph unicode="&#x2399;" horiz-adv-x="960" d="M920 701q17 -3 28.5 -17t11.5 -32v-444q0 -20 -14 -34t-34 -14h-65l-49 231q-2 11 -11 18t-20 7h-572q-11 0 -20.5 -7t-11.5 -18l-49 -231h-66q-20 0 -34 14t-14 34v444q0 18 11.5 32t28.5 17q70 11 152 19v192q0 13 8 22t20 11q129 15 260 15q132 0 259 -15
q13 -1 21 -10.5t8 -22.5v-192q82 -8 152 -19zM864 512v96h-96v-96h96zM768 32q13 0 22.5 9.5t9.5 22.5q0 5 -1 8l-60 280h-519l-59 -280q-1 -3 -1 -8q0 -14 9 -23t23 -9h576z" />
<glyph unicode="&#x23cf;" horiz-adv-x="960" d="M552 416h-112q-23 0 -46.5 0.5t-44.5 1t-41 1t-37 1t-32.5 1.5t-27 1.5t-20 1t-13.5 0.5h-4q-29 2 -40 27q-6 11 -6 22q0 13 8 26q18 28 39.5 56.5t42 53.5t43 50t43 46t41.5 41t37.5 35.5t32.5 29.5t26 22t17 15l8 6q15 10 30 10t30 -10l8 -6q7 -7 17 -15t26 -22
t32.5 -29.5t37.5 -35.5t41.5 -41t43 -46t43 -50t42 -53.5t39.5 -56.5q16 -24 3 -48q-13 -25 -41 -27h-8q-7 -1 -20.5 -1.5t-32 -1t-42 -1.5t-49 -1.5t-55.5 -1.5t-59 -1zM861 129q-1 -14 -12.5 -23.5t-27.5 -9.5h-650q-16 0 -27.5 9.5t-12.5 23.5q-6 63 0 126
q1 14 12.5 23.5t27.5 9.5h650q16 0 27.5 -9.5t12.5 -23.5q6 -63 0 -126z" />
<glyph unicode="&#x23e9;" horiz-adv-x="960" d="M73 142q-1 1 -3 45.5t-4 124t-2 152.5t2 152.5t4 124t3 45.5q2 28 26 41q12 5 22 5q13 0 26 -8q173 -111 333 -304q4 261 9 266q2 28 26 41q12 5 22 5q13 0 26 -8q28 -18 56.5 -39.5t53.5 -42t50 -43t46 -43t41 -41.5t35.5 -37.5t29.5 -32.5t22 -26t15 -17l6 -8
q22 -31 0 -60l-6 -8q-7 -7 -15 -17.5t-22 -26t-29.5 -32.5t-35.5 -37.5t-41 -41t-46 -43t-50 -43.5t-53.5 -42t-56.5 -39q-23 -16 -48 -3q-24 13 -26 41q-5 5 -9 266q-160 -193 -333 -304q-24 -16 -48 -3q-24 12 -26 41z" />
<glyph unicode="&#x23ea;" horiz-adv-x="960" d="M887 786l1 -10q0 -9 1 -26t2 -40t1.5 -52t1.5 -59.5t1.5 -66t0.5 -68.5q0 -26 -0.5 -54t-1 -52.5l-1 -49t-1 -45.5t-1.5 -40t-1.5 -33.5t-1 -25t-0.5 -16.5l-1 -6q-2 -28 -26 -41q-12 -5 -22 -5q-13 0 -26 8q-173 111 -333 304q0 -29 -1 -59.5t-1.5 -55.5t-1.5 -49
t-2 -42t-1.5 -31.5t-0.5 -20.5l-1 -8q-2 -28 -26 -41q-12 -5 -22 -5q-13 0 -26 8q-28 18 -56.5 39t-53.5 42t-50 43.5t-46 43t-41 41t-35.5 37.5t-29.5 32.5t-22 26t-15 17.5l-6 8q-10 13 -10 29.5t10 30.5l6 8q7 7 15 17t22 26t29.5 32.5t35.5 37.5t41 41.5t46 43t50 43
t53.5 42t56.5 39.5q23 16 48 3q24 -13 26 -41l1 -8q0 -7 0.5 -20.5t1.5 -32t2 -42t1.5 -49t1.5 -55.5t1 -59q160 193 333 304q23 16 48 3q24 -13 26 -41z" />
<glyph unicode="&#x23ed;" horiz-adv-x="960" d="M128 520q0 29 1 59t1.5 55.5t1.5 49t2 42t1.5 32t0.5 20.5l1 8q2 28 26 41q25 13 48 -3q28 -18 56.5 -39.5t53.5 -42t50 -43t46 -43t41 -41.5t35.5 -37.5t29.5 -32.5t22 -26t15 -17l6 -8q22 -31 0 -60l-6 -8q-7 -7 -15 -17.5t-22 -26t-29.5 -32.5t-35.5 -37.5t-41 -41
t-46 -43t-50 -43.5t-53.5 -42t-56.5 -39q-13 -8 -26 -8q-10 0 -22 5q-24 13 -26 41l-1 4v13.5t-1 20t-1.5 27t-1.5 32.5t-1.5 37t-1 41t-1 44.5t-0.5 46.5v112zM673 829q63 6 126 0q14 -1 23.5 -12.5t9.5 -27.5v-650q0 -16 -9.5 -27.5t-23.5 -12.5q-63 -6 -126 0
q-14 1 -23.5 12.5t-9.5 27.5v650q0 16 9.5 27.5t23.5 12.5z" />
<glyph unicode="&#x23ee;" horiz-adv-x="960" d="M832 520v-112q0 -29 -1 -59.5t-1.5 -55.5t-1.5 -49t-2 -42t-1.5 -31.5t-0.5 -20.5l-1 -8q-2 -28 -26 -41q-12 -5 -22 -5q-13 0 -26 8q-28 18 -56.5 39t-53.5 42t-50 43.5t-46 43t-41 41t-35.5 37.5t-29.5 32.5t-22 26t-15 17.5l-6 8q-10 13 -10 29.5t10 30.5l6 8
q7 7 15 17t22 26t29.5 32.5t35.5 37.5t41 41.5t46 43t50 43t53.5 42t56.5 39.5q23 16 48 3q24 -13 26 -41l1 -8q0 -7 0.5 -20.5t1.5 -32t2 -42t1.5 -49t1.5 -55.5t1 -59zM287 829q14 -1 23.5 -12.5t9.5 -27.5v-650q0 -16 -9.5 -27.5t-23.5 -12.5q-63 -6 -126 0
q-14 1 -23.5 12.5t-9.5 27.5v650q0 16 9.5 27.5t23.5 12.5q63 6 126 0z" />
<glyph unicode="&#x23f0;" horiz-adv-x="960" d="M373 865q-102 -20 -185.5 -81t-134.5 -150l-22 31q-32 44 -30.5 88.5t26.5 84t71 71.5q69 51 134 51q72 0 119 -64zM875 634q-51 89 -134.5 150t-185.5 81l22 31q46 64 119 64q64 0 134 -51q46 -32 71 -71.5t26.5 -84t-30.5 -88.5zM864 400q0 -166 -117 -283t-283 -117v0
q-166 0 -283 117t-117 283t117 283t283 117v0q166 0 283 -117t117 -283zM464 123q117 0 196 81q81 81 81 196t-81 196t-196 81t-196 -81q-81 -79 -81 -196t81 -196q79 -81 196 -81zM504 560l8 -178q0 -15 -7 -25l-85 -122q-9 -14 -25 -17t-30 7q-13 8 -16.5 23t3.5 28
l65 119l7 165q1 16 13 27.5t29 10.5q15 -1 26 -12t12 -26z" />
<glyph unicode="&#x23f1;" horiz-adv-x="960" d="M766 664q97 -113 97 -264q0 -168 -115.5 -284t-283.5 -116t-283.5 116t-115.5 284q0 146 89.5 255t229.5 137v72h-16q-20 0 -34 14t-14 34t14 34t34 14h192q20 0 34 -14t14 -34t-14 -34t-34 -14h-16v-72q57 -12 107 -37l73 74q11 11 26.5 11t26.5 -11l51 -50
q10 -11 10 -27t-10 -26zM464 120q115 0 198 83t83 197t-83 197t-198 83t-197.5 -83t-82.5 -197t82.5 -197t197.5 -83zM464 288q-46 0 -79 33t-33 79q0 20 8 41l-64 72q-11 12 -10 28t13 27q11 10 26 10t26 -10l73 -64q19 8 40 8q46 0 79 -33t33 -79t-33 -79t-79 -33z" />
<glyph unicode="&#x23f2;" horiz-adv-x="960" d="M480 960q130 0 240.5 -64.5t175 -175t64.5 -240.5t-64.5 -240.5t-175 -175t-240.5 -64.5t-240.5 64.5t-175 175t-64.5 240.5t64.5 240.5t175 175t240.5 64.5zM480 122q146 0 252 106t106 252t-106 252t-252 106t-252 -106t-106 -252t106 -252t252 -106zM664 292
q-15 -14 -35.5 -14t-35.5 14l-158 126q-21 19 -19 45l11 254q1 22 17 37t38 14q21 -1 35.5 -16t15.5 -35l10 -227l124 -122q15 -16 14 -38.5t-17 -37.5z" />
<glyph unicode="&#x2421;" horiz-adv-x="960" d="M628 480l189 -190q13 -12 15 -28.5t-8 -27.5q-43 -55 -98 -98q-11 -10 -27.5 -8t-29.5 14l-189 190l-190 -190q-12 -12 -28.5 -14t-28.5 8q-54 43 -97 97q-10 12 -8 28.5t14 28.5l190 190l-189 189q-13 13 -15 29.5t8 27.5q42 54 97 98q12 10 28.5 8t28.5 -15l190 -181
l189 181q13 13 29.5 15t27.5 -8q55 -43 98 -98q10 -11 8 -27.5t-15 -29.5z" />
<glyph unicode="&#x25a0;" horiz-adv-x="960" d="M816 759q16 -143 16 -295t-16 -295q-2 -23 -18 -39t-39 -18q-143 -16 -295 -16t-295 16q-22 2 -38.5 18.5t-18.5 38.5q-16 143 -16 295t16 295q2 23 18 39t39 18q143 16 295 16t295 -16q23 -2 39 -18t18 -39z" />
<glyph unicode="&#x25b4;" horiz-adv-x="960" d="M826 335q13 -23 0 -45q-13 -23 -38 -25l-10 -1q-9 0 -25 -1t-37.5 -2t-49.5 -1.5t-57 -1.5t-63 -1.5t-66 -0.5t-66 0.5t-63 1.5t-57 1.5t-49.5 1.5t-37.5 2t-25 1l-10 1q-26 2 -38 25q-13 22 0 45q53 94 132.5 195t123 147t58.5 59q14 12 32 12t32 -12q15 -13 58.5 -59
t123 -147t132.5 -195z" />
<glyph unicode="&#x25b6;" horiz-adv-x="960" d="M810 511q22 -17 22 -47q0 -29 -22 -48q-283 -227 -579 -347q-13 -5 -25 -5q-18 0 -33 9q-28 17 -30 48q-1 8 -4.5 51.5t-7 128.5t-3.5 163t3.5 162.5t7 129t4.5 50.5q2 31 30 49q15 9 33 9q12 0 25 -5q90 -37 182.5 -86t157.5 -90.5t123 -83t83 -61t33 -27.5z" />
<glyph unicode="&#x25b9;" horiz-adv-x="960" d="M334 134q-22 -13 -45 0q-22 11 -24 38l-1 10q0 9 -1 25t-2 37.5t-1.5 49.5t-1.5 57t-1.5 63t-0.5 66t0.5 66t1.5 63t1.5 57t1.5 49.5t2 37.5t1 25l1 10q2 25 24 38q23 13 45 0q95 -53 195.5 -132.5t146.5 -123t59 -58.5q13 -14 13 -32.5t-13 -31.5q-13 -15 -59 -58.5
t-146.5 -123t-195.5 -132.5z" />
<glyph unicode="&#x25bb;" horiz-adv-x="960" d="M497 106q-10 -10 -24 -10h-248q-22 0 -30 19q-3 6 -3 13q0 11 8 21l313 331l-313 330q-14 17 -5 35q9 19 30 19h248q15 0 24 -11l326 -352q9 -9 9 -21t-9 -22z" />
<glyph unicode="&#x25be;" horiz-adv-x="960" d="M134 625q-13 23 0 45q11 22 38 24q1 1 43.5 3t118.5 4.5t146 2.5t146 -2.5t118.5 -4.5t43.5 -3q25 -2 38 -24t0 -45q-53 -94 -132.5 -195t-123 -147t-58.5 -59q-14 -12 -32 -12t-32 12q-15 13 -58.5 59t-123 147t-132.5 195z" />
<glyph unicode="&#x25c3;" horiz-adv-x="960" d="M626 826q22 13 45 0q22 -13 24 -38l1 -10q0 -9 1 -25t2 -37.5t1.5 -49.5t1.5 -57t1.5 -63t0.5 -66t-0.5 -66t-1.5 -63t-1.5 -57t-1.5 -49.5t-2 -37.5t-1 -25l-1 -10q-2 -27 -24 -38q-23 -13 -45 0q-95 53 -196 132.5t-147 123t-59 58.5q-12 14 -12 32t12 32
q13 15 59 58.5t147 123t196 132.5z" />
<glyph unicode="&#x25c5;" horiz-adv-x="960" d="M463 853q9 11 24 11h248q21 0 30 -19q3 -6 3 -13q0 -13 -9 -22l-313 -330l313 -331q14 -14 6 -34q-8 -19 -30 -19h-248q-14 0 -24 10l-327 352q-19 22 0 43z" />
<glyph unicode="&#x25ce;" horiz-adv-x="960" d="M928 544q14 0 23 -9t9 -23v-64q0 -14 -9 -23t-23 -9h-70q-20 -121 -106.5 -208t-207.5 -107v-69q0 -14 -9 -23t-23 -9h-64q-14 0 -23 9t-9 23v70q-121 20 -207.5 106.5t-106.5 207.5h-70q-14 0 -23 9t-9 23v64q0 14 9 23t23 9h70q20 121 106.5 207.5t207.5 106.5v70
q0 14 9 23t23 9h64q14 0 23 -9t9 -23v-70q121 -20 207.5 -106.5t106.5 -207.5h70zM480 218q106 0 184 78t78 184t-78 184t-184 78t-184 -78t-78 -184t78 -184t184 -78zM480 352q-53 0 -90.5 37.5t-37.5 90.5t37.5 90.5t90.5 37.5t90.5 -37.5t37.5 -90.5t-37.5 -90.5
t-90.5 -37.5z" />
<glyph unicode="&#x25cf;" horiz-adv-x="960" d="M864 464q0 -166 -117 -283t-283 -117t-283 117t-117 283t117 283t283 117t283 -117t117 -283z" />
<glyph unicode="&#x2600;" horiz-adv-x="960" d="M679 480q0 82 -58.5 140.5t-140.5 58.5q-83 0 -141.5 -58.5t-58.5 -140.5t59 -141t141 -59t140.5 58.5t58.5 141.5zM938 510q22 -7 22 -30t-22 -30q-143 -46 -163 -95q-19 -49 47 -172q7 -8 7 -20q0 -13 -9 -22.5t-22 -9.5h-1q-5 0 -15 4q-101 55 -149 55
q-36 0 -63.5 -34.5t-59.5 -133.5q-7 -22 -30 -22t-30 22q-32 99 -59.5 133.5t-63.5 34.5q-48 0 -149 -55q-22 -10 -37 6q-17 15 -6 37q69 126 50 177q-20 49 -163 95q-22 7 -22 30t22 30q143 46 163 95q19 51 -50 177q-10 21 6 37q15 17 37 6q101 -55 149 -55
q36 0 63.5 34.5t59.5 133.5q7 22 30 22t30 -22q32 -99 59.5 -133.5t63.5 -34.5q48 0 149 55q21 10 37 -6t6 -37q-70 -128 -50 -177t163 -95z" />
<glyph unicode="&#x2601;" horiz-adv-x="960" d="M851 534q50 -42 79.5 -98.5t29.5 -114.5q0 -97 -75.5 -181t-180.5 -97q-103 -11 -224 -11t-224 11q-105 13 -180.5 97t-75.5 181q0 60 32 119t86 101q-2 9 -2 26q0 78 55 133t133 55q13 0 20 -1q41 62 105 102t136 40q120 0 209.5 -91.5t89.5 -212.5q0 -35 -13 -58z" />
<glyph unicode="&#x2602;" horiz-adv-x="960" d="M416 341q23 10 48 10q23 0 48 -10v-212q0 -35 32 -35q6 0 12.5 1.5t14 10.5t7.5 23q0 20 13 33.5t33 13.5t34 -13.5t14 -33.5q0 -60 -38.5 -94.5t-89.5 -34.5t-89.5 34t-38.5 94v213zM540 794q-19 21 -22 46q0 14 1 21q8 37 39 54l80 43q16 7 23 -7q2 -4 2 -6l9 -90
q2 -19 -4 -33q-14 -38 -49 -48q78 -28 136.5 -78.5t87 -105t41 -98t12.5 -75.5q0 -22 -19.5 -30t-33.5 3q-49 38 -109 38q-26 0 -54.5 -9.5t-43.5 -18.5l-16 -10q-8 -6 -20 -6t-20 6q-55 38 -115 38q-26 0 -54.5 -9.5t-44.5 -18.5l-15 -10q-8 -6 -20 -6t-20 6
q-55 38 -115 38q-12 0 -24.5 -2t-23 -5.5t-20.5 -7.5t-17.5 -8t-13 -7.5t-9.5 -5.5l-3 -2q-10 -7 -23 -5.5t-21 10.5q-11 10 -9 24q13 161 138 270.5t296 109.5q43 0 74 -5zM552 636q-51 -29 -45 -84q4 -36 31.5 -58.5t63.5 -18.5q36 3 59 30.5t20 63.5l-9 102q0 4 -3 7
q-9 17 -25 8zM889 705q-31 -4 -56 17t-28 53q-5 51 39 75l81 43q14 9 23 -6q2 -4 2 -7l9 -90q3 -32 -17.5 -57t-52.5 -28z" />
<glyph unicode="&#x2614;" horiz-adv-x="960" d="M448 310q18 9 48 9q32 0 48 -9v-182q0 -35 32 -35t32 35q0 20 14 34t34 14t34 -14t14 -34q0 -60 -38 -91.5t-90 -31.5t-90 31.5t-38 91.5v182zM778 677q-48 0 -69 38q-20 34 3 68q21 31 105 70l7 3.5t6 3.5q17 10 28 -1q7 -7 5 -19v-13q-6 -91 -25 -118q-21 -32 -60 -32z
M522 773q-47 0 -68 38q-20 34 3 68q20 30 104 70q10 5 13 7q17 10 28 -1q7 -7 5 -19v-13q-6 -91 -25 -118q-21 -32 -60 -32zM234 709q-46 0 -69 38q-20 34 3 68q21 31 105 70l7 3.5t6 3.5q17 10 28 -1q7 -7 5 -19v-13q-6 -91 -25 -118q-21 -32 -60 -32zM496 704
q142 0 247.5 -90t119.5 -221q0 -1 0.5 -4t0.5 -5q0 -14 -9 -23t-23 -9h-1h-1q-10 0 -18 6q-44 30 -92 30q-21 0 -44.5 -7.5t-35.5 -14.5l-13 -8q-20 -14 -38 0l-5 3l-15 7.5t-20 9t-25.5 7.5t-27.5 3q-21 0 -44.5 -7.5t-35.5 -14.5l-13 -8q-20 -14 -38 0l-5 3l-15 7.5t-20 9
t-25.5 7.5t-27.5 3q-21 0 -44.5 -7.5t-35.5 -14.5l-13 -8q-10 -7 -22 -5.5t-20 9.5q-10 12 -9 24q11 134 117.5 226t250.5 92z" />
<glyph unicode="&#x2615;" horiz-adv-x="960" d="M349 737q-15 -13 -24 -29.5t-11 -25.5l-1 -10h-153q9 40 54 85q26 26 95.5 65t76.5 44q25 19 35 38t10 53q27 -18 41 -49t3 -63q-9 -26 -63.5 -63.5t-62.5 -44.5zM579 672h-131q-2 25 27 55q12 12 51.5 41t48.5 49q6 16 7 34.5t-2 29.5l-2 11q6 -4 15 -12.5t25 -34.5
t20 -54q4 -29 -10.5 -59t-31.5 -45zM550 0h-364q-37 0 -56 32q-98 196 -98 332q0 147 43 215q19 29 53 29h481q33 0 53 -30q10 -13 19 -41q27 4 45 5q102 6 157 -53q55 -60 42 -161q-9 -72 -57 -123t-125 -70q-51 -11 -96 -15q-30 -72 -41 -88q-18 -32 -56 -32zM682 220
q26 4 38 8q14 3 29 9.5t33.5 19t31.5 34t17 49.5q7 59 -18 84q-25 27 -81 23q-22 -2 -32 -3q4 -31 4 -80q0 -66 -22 -144z" />
<glyph unicode="&#x265e;" horiz-adv-x="960" d="M832 288q0 -17 -6 -32h-724q-6 15 -6 32q0 40 28 68t68 28h68q0 3 -2 11q-4 26 -37 82q-47 81 -56 132q-11 58 5.5 111.5t50 91t79.5 69t88.5 49.5t83.5 29q16 3 28 -6t12 -25v-68l239 -131q17 -8 17 -28v-93q0 -14 -9 -23t-23 -9h-170q80 -114 99 -192h71q40 0 68 -28
t28 -68zM782 0h-636q-48 0 -81 32t-33 80t34 80h796q34 -32 34 -80t-33 -80t-81 -32z" />
<glyph unicode="&#x2661;" horiz-adv-x="960" d="M886 783q20 -32 31.5 -71t5.5 -111.5t-43 -151.5q-72 -153 -197.5 -268t-204.5 -115t-204 115t-197 268q-35 75 -40.5 149.5t6 115.5t28.5 69q34 53 91 82t124 29q87 0 147 -42q21 -14 47 -42q27 28 48 42q59 42 146 42q67 0 122.5 -29t89.5 -82zM478 186
q39 4 135.5 95.5t156.5 218.5q65 138 14 218q-38 59 -112 59q-42 0 -77 -24q-28 -20 -47 -55.5t-24.5 -56.5t-5.5 -26q-2 -13 -12 -21.5t-23 -9.5q-31 2 -37 29q0 4 -7 26t-28 58t-49 56q-35 24 -78 24q-74 0 -111 -59q-51 -80 13 -218q32 -67 78 -128.5t88.5 -100t76.5 -61
t49 -24.5z" />
<glyph unicode="&#x2665;" horiz-adv-x="960" d="M881 465q-42 -88 -103.5 -167.5t-119 -128t-106 -77t-72.5 -28.5t-72.5 28t-106 76.5t-119 128t-103.5 167.5q-44 94 -46.5 173t28.5 127t79 74t104 25q66 0 118 -37q42 -29 71.5 -67.5t38.5 -62.5l8 -24q3 10 9 27t36.5 58t72.5 70q53 37 122 37q44 0 83.5 -16.5t70 -50
t45.5 -79.5t6 -112t-44 -141z" />
<glyph unicode="&#x266a;" horiz-adv-x="960" d="M843 751q32 -49 42.5 -107t1.5 -105t-20.5 -80t-22.5 -48q-17 -24 -43 -18.5t-22 36.5q6 56 -10.5 109t-66.5 95.5t-126 51.5v-477q0 -55 -19 -90q-41 -77 -136 -107q-39 -11 -74 -11q-65 0 -114.5 31t-65.5 83q-20 59 12 120q40 76 138 107q38 11 74 11q21 0 57 -8v552
q0 26 19 45t45 19q6 0 16 -2q5 -1 26 -8t60.5 -25t79 -40.5t81.5 -58.5t68 -75z" />
<glyph unicode="&#x266b;" horiz-adv-x="960" d="M416 610v-407q0 -47 -19 -84q-41 -79 -137 -107q-38 -12 -76 -12q-64 0 -112 31t-65 84q-20 58 12 120q43 78 137 106q33 11 74 11q33 0 58 -7v423q0 22 14 41q8 10 21 23t51.5 37t86 43t128 33.5t173.5 14.5q70 0 140 -7q25 -3 41.5 -21.5t16.5 -43.5v-602
q0 -1 -0.5 -3.5t-0.5 -3.5q-2 -34 -18 -64q-41 -79 -137 -107q-38 -12 -76 -12q-64 0 -112 31t-65 84q-20 58 12 120q43 78 137 106q33 11 74 11q33 0 58 -7v264q-74 6 -145.5 -2.5t-126.5 -28t-87 -34.5t-57 -30z" />
<glyph unicode="&#x267f;" horiz-adv-x="960" d="M352 848q0 46 33 79t79 33t79 -33t33 -79t-33 -79t-79 -33t-79 33t-33 79zM576 448h149q48 0 65 -44l142 -308q8 -20 -0.5 -40t-28.5 -28q-14 -4 -20 -4q-28 0 -44 25l-167 239h-240q-34 0 -57 23t-23 57v220q0 34 32.5 59t79.5 25t79.5 -25t32.5 -59v-140zM546 224h94
l28 -41q-38 -82 -115.5 -132.5t-171.5 -50.5q-131 0 -224 93t-93 224q0 107 63.5 190.5t163.5 113.5q-3 -12 -3 -27v-112q-98 -51 -98 -165q0 -78 56.5 -134.5t134.5 -56.5q52 0 95.5 27t69.5 71z" />
<glyph unicode="&#x2680;" horiz-adv-x="960" d="M921 824q39 -178 39 -344t-39 -344q-8 -37 -34 -63t-63 -34q-173 -38 -344 -38t-344 38q-37 8 -63 34t-34 63q-39 178 -39 344t39 344q8 37 34 63t63 34q173 38 344 38t344 -38q37 -8 63 -34t34 -63zM480 379q41 0 71 30t30 71t-30 71t-71 30q-42 0 -71.5 -30t-29.5 -71
t29.5 -71t71.5 -30z" />
<glyph unicode="&#x2681;" horiz-adv-x="960" d="M921 824q39 -178 39 -344t-39 -344q-8 -37 -34 -63t-63 -34q-173 -38 -344 -38t-344 38q-37 8 -63 34t-34 63q-39 178 -39 344t39 344q8 37 34 63t63 34q173 38 344 38t344 -38q37 -8 63 -34t34 -63zM256 155q41 0 71 30t30 71t-30 71t-71 30t-71 -30t-30 -71t30 -71
t71 -30zM704 603q41 0 71 30t30 71t-30 71t-71 30t-71 -30t-30 -71t30 -71t71 -30z" />
<glyph unicode="&#x2682;" horiz-adv-x="960" d="M921 824q39 -178 39 -344t-39 -344q-8 -37 -34 -63t-63 -34q-173 -38 -344 -38t-344 38q-37 8 -63 34t-34 63q-39 178 -39 344t39 344q8 37 34 63t63 34q173 38 344 38t344 -38q37 -8 63 -34t34 -63zM256 155q41 0 71 30t30 71t-30 71t-71 30t-71 -30t-30 -71t30 -71
t71 -30zM480 379q41 0 71 30t30 71t-30 71t-71 30t-71 -30t-30 -71t30 -71t71 -30zM704 603q41 0 71 30t30 71t-30 71t-71 30t-71 -30t-30 -71t30 -71t71 -30z" />
<glyph unicode="&#x2683;" horiz-adv-x="960" d="M921 824q39 -178 39 -344t-39 -344q-8 -37 -34 -63t-63 -34q-173 -38 -344 -38t-344 38q-37 8 -63 34t-34 63q-39 178 -39 344t39 344q8 37 34 63t63 34q173 38 344 38t344 -38q37 -8 63 -34t34 -63zM256 155q41 0 71 30t30 71t-30 71t-71 30t-71 -30t-30 -71t30 -71
t71 -30zM256 603q41 0 71 30t30 71t-30 71t-71 30t-71 -30t-30 -71t30 -71t71 -30zM704 155q41 0 71 30t30 71t-30 71t-71 30t-71 -30t-30 -71t30 -71t71 -30zM704 603q41 0 71 30t30 71t-30 71t-71 30t-71 -30t-30 -71t30 -71t71 -30z" />
<glyph unicode="&#x2684;" horiz-adv-x="960" d="M921 824q39 -178 39 -344t-39 -344q-8 -37 -34 -63t-63 -34q-173 -38 -344 -38t-344 38q-37 8 -63 34t-34 63q-39 178 -39 344t39 344q8 37 34 63t63 34q173 38 344 38t344 -38q37 -8 63 -34t34 -63zM256 155q41 0 71 30t30 71t-30 71t-71 30t-71 -30t-30 -71t30 -71
t71 -30zM256 603q41 0 71 30t30 71t-30 71t-71 30t-71 -30t-30 -71t30 -71t71 -30zM480 379q41 0 71 30t30 71t-30 71t-71 30t-71 -30t-30 -71t30 -71t71 -30zM704 155q41 0 71 30t30 71t-30 71t-71 30t-71 -30t-30 -71t30 -71t71 -30zM704 603q41 0 71 30t30 71t-30 71
t-71 30t-71 -30t-30 -71t30 -71t71 -30z" />
<glyph unicode="&#x2685;" horiz-adv-x="960" d="M921 824q39 -178 39 -344t-39 -344q-8 -37 -34 -63t-63 -34q-173 -38 -344 -38t-344 38q-37 8 -63 34t-34 63q-39 178 -39 344t39 344q8 37 34 63t63 34q173 38 344 38t344 -38q37 -8 63 -34t34 -63zM256 123q41 0 71 30t30 71t-30 71t-71 30t-71 -30t-30 -71t30 -71
t71 -30zM256 379q41 0 71 30t30 71t-30 71t-71 30t-71 -30t-30 -71t30 -71t71 -30zM256 635q41 0 71 30t30 71t-30 71t-71 30t-71 -30t-30 -71t30 -71t71 -30zM704 123q41 0 71 30t30 71t-30 71t-71 30t-71 -30t-30 -71t30 -71t71 -30zM704 379q41 0 71 30t30 71t-30 71
t-71 30t-71 -30t-30 -71t30 -71t71 -30zM704 635q41 0 71 30t30 71t-30 71t-71 30t-71 -30t-30 -71t30 -71t71 -30z" />
<glyph unicode="&#x2691;" horiz-adv-x="960" d="M192 960q26 0 45 -19t19 -45q0 -25 -19.5 -43.5t-44.5 -20.5v-832h-128v832q-26 1 -45 19.5t-19 44.5t19 45t45 19h128zM960 183q-3 -22 -25 -27q-68 -22 -135 -22q-37 0 -63 5q-35 6 -66 27t-51.5 43t-51.5 44.5t-64 31.5q-52 11 -107.5 7.5t-98.5 -13.5l-42 -10v533
q87 24 172 24q40 2 76 -8q42 -11 79 -39t74 -53.5t80 -33.5q24 -4 48 -6q41 -2 80 6q2 0 34 6q27 6 29 6q13 0 22 -9t10 -22v-490z" />
<glyph unicode="&#x2696;" horiz-adv-x="960" d="M736 0h-512q-21 0 -29 18q-8 20 4 35l3 3q4 4 9.5 9t13.5 11.5t18.5 14t23.5 15.5t29.5 15.5t34 14t40 12t45.5 8.5v568l-303 -50q-8 -1 -12 -1q-26 0 -44.5 18.5t-18.5 44.5q0 23 15.5 40t38.5 21l185 31q28 4 70 37q64 50 113 57q8 1 16.5 2t17 0.5t14.5 -0.5t15.5 -2
t13 -2.5t14 -4l12 -4t12.5 -3.5l11 -4q48 -17 78 -13l182 30q10 2 14 2q27 -1 45.5 -19.5t18.5 -44.5q0 -23 -15.5 -40t-38.5 -21l-326 -53v-589q57 -8 107 -30t70.5 -38t34.5 -31q13 -10 13 -25q0 -13 -9.5 -22.5t-23.5 -9.5zM925 383q7 -21 -2 -37q-16 -33 -56 -61.5
t-99 -28.5t-99 28.5t-56 60.5q-9 19 -2 38l114 322q11 31 43 31t44 -31zM192 160q-59 0 -99 28.5t-56 60.5q-9 19 -2 38l114 322q11 31 43 31t44 -31l113 -322q7 -21 -2 -37q-16 -33 -56 -61.5t-99 -28.5zM708 384h120l-60 166zM132 288h120l-60 166z" />
<glyph unicode="&#x2699;" horiz-adv-x="960" d="M958 526q5 -45 0 -92q-2 -17 -14 -29t-28 -14l-82 -10q-18 -4 -30 -18.5t-12 -33.5q0 -17 9 -29q0 -1 50 -66q10 -13 10 -29.5t-11 -29.5q-29 -36 -65 -65q-12 -11 -30 -11t-29 10l-65 50q-12 9 -30 9q-19 0 -33.5 -12.5t-18.5 -31.5l-10 -80q-2 -16 -14 -28t-29 -14
q-30 -2 -46 -2t-46 2q-17 2 -29 14t-14 28q-10 79 -10 80q-3 19 -18 31.5t-34 12.5q-17 0 -32 -10l-63 -49q-11 -10 -29 -10q-16 0 -30 11q-36 29 -65 65q-11 13 -11 29.5t10 29.5l48 63q11 14 11 32q0 20 -13 35t-33 17l-78 10q-16 2 -28 14t-14 29q-5 45 0 92
q1 16 13 28.5t29 14.5l78 10q20 3 33 18t13 35q0 17 -11 31l-48 63q-11 13 -10.5 29.5t11.5 29.5q29 36 65 65q13 11 29.5 11t29.5 -10l63 -49q15 -10 32 -10q19 0 34 12.5t18 31.5l10 80q2 16 14 28t29 14q45 5 92 0q17 -2 29 -14t14 -28l10 -80q4 -19 18.5 -31.5
t33.5 -12.5q14 0 30 9q43 33 65 50q13 10 29.5 10t29.5 -11q36 -29 65 -65q11 -13 11 -29.5t-10 -29.5q-50 -65 -50 -66q-9 -12 -9 -28q0 -19 12 -33.5t30 -19.5q55 -7 82 -10q16 -2 28 -14t14 -29zM480 317q68 0 115.5 47.5t47.5 115.5t-47.5 115.5t-115.5 47.5
t-115.5 -47.5t-47.5 -115.5t47.5 -115.5t115.5 -47.5z" />
<glyph unicode="&#x26a0;" horiz-adv-x="960" d="M948 133q12 -17 12 -37q0 -27 -19 -45.5t-45 -18.5h-832q-35 0 -55 31q-19 30 -1 63l416 769q18 33 56 33t56 -33zM478 346h3q14 0 26 11.5t14 26.5q12 65 32 249q1 13 -7.5 25t-22.5 15q-42 8 -85 0q-13 -3 -22.5 -15t-8.5 -25q20 -184 32 -249q2 -15 14 -26.5t25 -11.5
zM480 119q30 0 51 21t21 51t-21 51t-51 21t-51 -21t-21 -51t21 -51t51 -21z" />
<glyph unicode="&#x26bd;" horiz-adv-x="960" d="M480 960q130 0 240.5 -64.5t175 -175t64.5 -240.5t-64.5 -240.5t-175 -175t-240.5 -64.5t-240.5 64.5t-175 175t-64.5 240.5t64.5 240.5t175 175t240.5 64.5zM480 93q160 0 273.5 113.5t113.5 273.5q0 113 -62 210q-20 -12 -43.5 -24.5t-37.5 -18.5l-13 -6
q-28 28 -62.5 51t-54.5 32l-20 10q8 61 25 115q-57 18 -119 18q-160 0 -273.5 -113.5t-113.5 -273.5q0 -139 87 -245q12 9 26.5 18t23.5 13l9 5q68 -61 135 -89q6 -36 6 -76q52 -13 100 -13zM253 416q-24 22 -47.5 54t-34.5 53l-11 21q6 11 16 29t42.5 61t65.5 70
q36 -6 69 -19t48 -23l15 -11v-156q-76 -26 -163 -79zM683 224q-31 -1 -65.5 10t-53.5 22l-20 11v152q89 33 159 72q41 -47 73 -124q-32 -88 -93 -143z" />
<glyph unicode="&#x26c5;" horiz-adv-x="960" d="M236 576q-72 -9 -110 -33q-29 11 -100 5q-15 -2 -21 13q-6 13 5 24q42 34 58 53t15 36q0 17 -16.5 36t-55.5 51q-12 10 -6 24q6 15 21 13q96 -10 118 15q23 24 15 124q-2 16 13 21q14 7 24 -5q37 -43 53 -58t32 -15q34 0 93 72q10 12 24 6q14 -5 12 -21q-9 -97 13 -122
q17 -20 84 -20q9 0 43 2q14 2 21 -12q5 -15 -6 -24q-6 -5 -16 -12.5t-15 -12.5q-72 -6 -134 -43q-4 16 -7 23q-18 43 -60.5 61t-85.5 0t-61 -60.5t0 -85.5q14 -35 50 -55zM806 448q64 -7 107.5 -51t43.5 -103q0 -133 -172 -155q-97 -12 -241 -12q-147 0 -276 12
q-92 9 -149 55.5t-57 130.5q0 77 60 131.5t146 54.5q28 0 53 -6q23 73 88.5 119.5t149.5 46.5q100 0 172 -65t75 -158z" />
<glyph unicode="&#x26c8;" horiz-adv-x="960" d="M735 800q90 0 155.5 -62.5t65.5 -144.5q0 -89 -61.5 -138t-159.5 -59q-96 -9 -182 -12l-73 -96h224l-384 -288l128 192h-224l138 192q-89 1 -174 12q-184 24 -184 165q0 62 47 108.5t115 54.5q2 98 78.5 167t182.5 69q90 0 159 -45.5t92 -121.5q33 7 57 7z" />
<glyph unicode="&#x26d4;" horiz-adv-x="960" d="M480 960q130 0 240.5 -64.5t175 -175t64.5 -240.5t-64.5 -240.5t-175 -175t-240.5 -64.5t-240.5 64.5t-175 175t-64.5 240.5t64.5 240.5t175 175t240.5 64.5zM191 384h578q14 0 23.5 9.5t10.5 23.5q6 63 0 126q-1 14 -10.5 23.5t-23.5 9.5h-578q-14 0 -24 -9.5t-11 -23.5
q-4 -63 0 -126q1 -14 11 -23.5t24 -9.5z" />
<glyph unicode="&#x26e8;" horiz-adv-x="960" d="M824 896q45 -9 74.5 -45.5t29.5 -82.5v-576q0 -46 -29.5 -82.5t-74.5 -44.5q-169 -33 -344 -33t-344 33q-45 8 -74.5 44.5t-29.5 82.5v576q0 46 29.5 82.5t74.5 45.5q171 32 344 32t344 -32zM704 288v384q0 14 -9 23t-23 9h-96q-14 0 -23 -9t-9 -23v-128h-128v128
q0 14 -9 23t-23 9h-96q-14 0 -23 -9t-9 -23v-384q0 -14 9 -23t23 -9h96q14 0 23 9t9 23v128h128v-128q0 -14 9 -23t23 -9h96q14 0 23 9t9 23z" />
<glyph unicode="&#x26f5;" horiz-adv-x="960" d="M32 288q-19 0 -29 17q-8 18 3 34l448 608q14 19 36 11q22 -7 22 -30v-608q0 -14 -9 -23t-23 -9h-448zM896 352h-288q-14 0 -23 9t-9 23v352q0 22 21 30t36 -10l284 -348q12 -10 12 -24q0 -13 -9.5 -22.5t-23.5 -9.5zM456 0q-89 0 -168 14.5t-128 34.5t-86.5 42.5
t-52.5 36t-17 16.5q-8 16 0 31q6 13 24 17l30 3q29 3 80 8.5t117.5 12t149 13t167 12t178.5 10t177 5.5q21 -2 29 -17q10 -18 -2 -34q-7 -8 -23 -24t-63 -50t-101 -61t-138 -48.5t-173 -21.5z" />
<glyph unicode="&#x26f8;" horiz-adv-x="960" d="M950 186q17 -30 6 -64t-44 -48q-165 -73 -432 -73q-272 0 -433 74q-28 12 -40 39.5t-3 56.5l52 177q-25 24 -40.5 73t-15.5 92q0 159 9.5 238t39.5 120q18 24 61 42t87 26.5t95 13.5t72.5 5.5t31.5 0.5q20 0 26 -1q19 -2 34.5 -14t20.5 -31q13 -39 15 -44l-95 -53
q-17 -10 -22.5 -29.5t4.5 -36.5q13 -24 41 -24q14 0 24 6l87 49q18 -35 46 -64l-62 -72q-13 -15 -11.5 -35t16.5 -33q12 -11 31 -11q22 0 37 16l64 75q40 -22 74 -34h1l-24 -83q-5 -19 4.5 -36.5t28.5 -22.5q5 -2 14 -2q15 0 28.5 9.5t17.5 24.5l23 82q63 -22 102 -57.5
t39 -101.5q0 -72 -79 -116zM352 166q32 5 32 26v65q-120 5 -183 21l-2 -9q-1 -3 -4 -11t-5 -13.5t-3.5 -13t-1 -14t2.5 -11.5q7 -13 23 -18q40 -9 43 -9q39 -7 82 -12q5 -1 16 -1zM576 163q89 7 152 20q24 7 24 31q0 6 -10 26q-10 18 -17 30q-66 -11 -181 -13v-64
q0 -13 9 -21.5t23 -8.5z" />
<glyph unicode="&#x26fd;" horiz-adv-x="960" d="M960 584v-272q0 -115 -84 -197.5t-201 -82.5h-611q-26 0 -45 19t-19 45v779q0 23 15 40.5t38 22.5q123 21 251 21t251 -21q23 -5 38 -22.5t15 -40.5v-715h67q64 0 110.5 44.5t46.5 107.5v100q-36 22 -108 67q-11 8 -14 21q-3 12 4 24q23 34 76 121l-114 118
q-13 15 -12 34.5t16 33.5q14 13 36.5 10.5t35.5 -17.5l195 -208q13 -15 13 -32zM480 800q0 14 -9 23t-23 9h-288q-14 0 -23 -9t-9 -23v-192q0 -14 9 -23t23 -9h288q14 0 23 9t9 23v192z" />
<glyph unicode="&#x2708;" horiz-adv-x="960" d="M925 462q13 -8 24 -22t11 -27v-61q0 -13 -12.5 -21.5t-26.5 -5.5l-344 71q-13 -125 -14 -132l147 -110q26 -20 26 -50v-86q0 -13 -8.5 -18t-20.5 0l-198 98q-29 14 -58 0l-198 -98q-12 -5 -20.5 0t-8.5 18v86q0 30 26 50l146 110q-12 119 -13 132l-344 -71
q-14 -3 -26.5 5.5t-12.5 21.5v61q0 13 11 27.5t24 21.5l324 176q-7 70 -7 101q0 26 7.5 61t21.5 72t40.5 62t58.5 26q42 -1 73 -44.5t43 -91.5t12 -85q0 -21 -8 -101z" />
<glyph unicode="&#x2709;" horiz-adv-x="960" d="M611 360l317 243v-446q0 -12 -8 -20.5t-20 -10.5q-207 -30 -420 -30q-212 0 -421 30q-11 2 -19 10.5t-8 20.5v446l317 -243q53 -40 131 -40t131 40zM67 704q-28 27 -35 53v46q0 12 8 20.5t19 10.5q208 30 421 30t420 -30q12 -2 20 -10.5t8 -20.5v-46q-7 -26 -35 -53
l-341 -258q-28 -22 -72 -22t-72 22z" />
<glyph unicode="&#x270e;" horiz-adv-x="960" d="M956 58q10 -26 -8 -44q-14 -14 -30 -14q-8 0 -16 3q-136 48 -340 114q-9 4 -19 12l-529 532q-12 11 -14 28t7 31q46 74 103 128q54 54 136 105q33 19 59 -7l529 -532q9 -7 12 -19q98 -302 110 -337zM731 159l71 71q-30 88 -44 132l-494 500q-9 -7 -26.5 -22.5
t-24.5 -21.5l478 -478q13 -14 12.5 -32t-14.5 -32t-30 -14q-21 0 -34 13l-480 481q-22 -23 -45 -57l494 -496q13 -4 62.5 -19.5t74.5 -24.5z" />
<glyph unicode="&#x270f;" horiz-adv-x="960" d="M42 -4q-19 0 -33 14q-18 18 -13 42l99 455q1 12 13 24l419 419q13 14 33 14t33 -14l358 -357q13 -14 13 -33.5t-13 -33.5l-420 -419q-10 -10 -24 -13q-462 -98 -465 -98zM483 253l337 337l-65 66l-337 -337q-20 -20 -49 -20t-49 20t-20 48.5t20 48.5l337 338l-65 65
l-337 -337q-31 -31 -73 -16l-35 -184l135 -136l185 36q-15 40 16 71z" />
<glyph unicode="&#x2710;" horiz-adv-x="960" d="M946 946q21 -21 11 -50q-80 -227 -117 -343q-4 -9 -12 -19l-349 -348l-68 68l341 340q14 44 44 132l-70 70q-88 -30 -132 -44l-340 -341l-68 68l348 349q10 8 19 12q147 48 343 117q29 10 50 -11zM690 690q14 -14 14 -34t-14 -34l-323 -324l-68 68l324 324q14 14 33.5 14
t33.5 -14zM87 380l38 39l294 -294l-39 -38q-55 -55 -124 -55q-78 0 -151 73q-66 66 -72 138q-8 75 54 137zM864 96q-40 0 -68 28t-28 68t28 68t68 28t68 -28t28 -68t-28 -68t-68 -28zM624 0q-33 0 -56.5 23.5t-23.5 56.5t23.5 56.5t56.5 23.5t56.5 -23.5t23.5 -56.5
t-23.5 -56.5t-56.5 -23.5z" />
<glyph unicode="&#x2712;" horiz-adv-x="960" d="M91 230q-13 30 -13 66q0 131 182 326l329 -322q-96 -91 -176 -142.5t-150 -51.5q-33 0 -61 12l-99 -81q-18 -15 -40 -15q-32 0 -50 24q-15 18 -15 41q0 21 14 40zM962 588q0 -179 -174 -367q-18 -20 -47 -20q-26 0 -43 16q-20 18 -21 44.5t17 46.5q148 161 148 282
q0 28 -7 49q-55 -153 -189 -284l-330 325q100 97 213.5 156.5t196.5 59.5q40 0 66 -13q25 -11 52 -38q116 -115 118 -257z" />
<glyph unicode="&#x2713;" horiz-adv-x="960" d="M915 781q12 -10 13 -26.5t-9 -30.5q-379 -541 -410 -584q-32 -43 -82.5 -43.5t-83.5 43.5l-278 391q-10 14 -9 31t13 27q51 44 114 79q13 7 29 2t26 -19l188 -264l321 456q10 14 25.5 18.5t29.5 -2.5q66 -36 113 -78z" />
<glyph unicode="&#x2744;" horiz-adv-x="960" d="M880 512q20 0 34 -14t14 -34t-14 -34t-34 -14h-135l106 -107q14 -16 14 -37t-15 -36q-16 -14 -36 -14q-22 0 -37 15l-175 179h-90v-91l179 -175q15 -14 15 -35.5t-14 -36.5q-15 -15 -37 -15q-20 0 -36 14l-107 105v-134q0 -20 -14 -34t-34 -14t-34 14t-14 34v134
l-107 -105q-15 -14 -36.5 -14t-36.5 15q-14 15 -14 36.5t15 35.5l179 176v90h-90l-176 -179q-15 -15 -36 -15q-20 0 -36 14q-15 15 -15 36t14 37l105 107h-134q-20 0 -34 14t-14 34t14 34t34 14h134l-105 107q-14 15 -14 36.5t15 36.5q15 14 36.5 14t36.5 -15l174 -179h91
v90l-179 175q-15 15 -15 36.5t14 36.5q15 15 36.5 15t36.5 -14l107 -106v135q0 20 14 34t34 14t34 -14t14 -34v-134l107 105q15 14 36.5 14t36.5 -15q14 -15 14 -36.5t-15 -36.5l-179 -175v-90h90l175 179q15 15 36.5 15t36.5 -14q15 -15 15 -36.5t-14 -36.5l-105 -107h134z
" />
<glyph unicode="&#x2753;" horiz-adv-x="960" d="M480 960q130 0 240.5 -64.5t175 -175t64.5 -240.5t-64.5 -240.5t-175 -175t-240.5 -64.5t-240.5 64.5t-175 175t-64.5 240.5t64.5 240.5t175 175t240.5 64.5zM450 352h65q13 0 22.5 10t9.5 24q7 31 48 66q72 65 88 95q23 38 23 75q0 73 -59 129q-55 52 -150 52
q-79 0 -133 -45.5t-73 -105.5l-2 -6q0 -1 -0.5 -3.5t-0.5 -4.5q0 -13 9 -21.5t23 -8.5h67q26 0 31 24q6 24 30 44t54 20q37 0 62 -23q22 -22 22 -47t-13 -41q-14 -17 -43.5 -42t-52 -44t-41 -50t-19.5 -65q0 -13 9.5 -22.5t23.5 -9.5zM480 119q29 0 51 22t22 51t-22 51
t-51 22t-51 -22t-22 -51t22 -51t51 -22z" />
<glyph unicode="&#x27a1;" horiz-adv-x="960" d="M925 450q-5 -6 -26 -29t-64.5 -66t-93.5 -88.5t-117 -98.5t-131 -93q-13 -11 -30 -11q-19 0 -33 14t-14 33v184q-105 16 -202 37t-115 30q-67 37 -67 118q0 80 67 117q18 10 113.5 30.5t203.5 36.5v185q0 28 24 41q25 13 48 -1q64 -40 133 -94t117 -97.5t96 -91.5
t64 -65.5t27 -29.5q11 -14 11 -31t-11 -30z" />
<glyph unicode="&#x2922;" horiz-adv-x="960" d="M955 921q2 -19 4.5 -69t-2 -154t-20.5 -186q-5 -23 -27 -30q-25 -7 -40 10l-97 97q-53 -38 -106.5 -70t-73.5 -37q-40 -9 -80 31q-41 41 -31 80q5 18 37.5 73t69.5 107l-98 97q-17 18 -9 40q6 22 30 27q82 16 186 20.5t154 2t69 -4.5q13 -1 23 -11t11 -23zM371 187
l97 -97q17 -16 10 -39t-30 -28q-82 -16 -186 -20.5t-154 -2t-69 4.5q-13 1 -23 11t-11 24q-2 16 -4.5 67.5t2 155t20.5 185.5q5 24 27 30q22 8 40 -9l97 -98q134 96 180 107q39 10 80 -31q40 -40 31 -80q-5 -18 -37.5 -73t-69.5 -107z" />
<glyph unicode="&#x2941;" horiz-adv-x="960" d="M548 731q13 -3 20.5 -13.5t6.5 -23.5l-8 -202l71 -146q6 -14 0.5 -28.5t-19.5 -20.5q-26 -11 -43 11l-116 141q-15 19 -9 41v1l52 215q4 14 17 21.5t28 3.5zM959 480q0 -185 -131.5 -316.5t-316.5 -131.5q-121 0 -223.5 60t-162 163t-59.5 225q0 90 24 155l-66 8
q-19 3 -22 21q-5 16 11 27q54 37 118.5 68.5t80.5 34.5q18 3 27 -11q10 -14 33 -82t35 -132q5 -16 -11 -27q-7 -4 -14 -4q-9 0 -16 5l-57 44q-19 -54 -19 -107q0 -132 94 -226t227 -94q132 0 226 94t94 226t-94 226t-226 94q-93 0 -170 -50l-42 124q100 54 212 54
q185 0 316.5 -131.5t131.5 -316.5z" />
<glyph unicode="&#x2b05;" horiz-adv-x="960" d="M928 480q0 -81 -66 -117q-18 -10 -114.5 -30.5t-203.5 -36.5v-185q0 -29 -23 -41q-25 -13 -48 1q-102 64 -212 159.5t-161 148.5t-65 70q-11 13 -11 30.5t11 30.5q14 17 64 69.5t159 147t210 158.5q13 11 30 11q19 0 32.5 -13.5t13.5 -33.5v-184q105 -16 202 -36.5
t116 -30.5q66 -36 66 -118z" />
<glyph unicode="&#x2b06;" horiz-adv-x="960" d="M896 463q0 -19 -14 -33t-33 -14h-184q-16 -105 -37 -202t-30 -115q-37 -67 -118 -67q-80 0 -117 67q-10 18 -30.5 113.5t-36.5 203.5h-185q-28 0 -41 24q-13 25 1 48q40 64 93.5 132t99 118.5t89.5 94.5t67 65t29 26q13 11 30.5 11t30.5 -11q18 -14 69.5 -63.5
t146.5 -158t159 -209.5q11 -13 11 -30z" />
<glyph unicode="&#x2b07;" horiz-adv-x="960" d="M889 472q-40 -64 -94 -133t-97.5 -117t-91.5 -96t-65.5 -64t-29.5 -27q-13 -11 -30.5 -11t-30.5 11q-6 5 -29 26t-66 64.5t-88.5 93.5t-98.5 117t-93 131q-11 13 -11 30q0 19 14 33t33 14h184q16 105 37 202t30 115q37 67 118 67q80 0 117 -67q10 -18 30.5 -113.5
t36.5 -203.5h185q28 0 41 -24q13 -25 -1 -48z" />
<glyph unicode="&#x2b08;" horiz-adv-x="960" d="M827 783q3 -40 5.5 -101.5t-7 -214.5t-38.5 -275q-6 -27 -34 -35q-4 -2 -13 -2q-20 0 -34 14l-138 138q-87 -64 -167 -116t-100 -57q-73 -22 -131 36t-36 131q5 19 57 99t116 168l-138 138q-20 19 -12 47q6 27 35 34q193 45 444 45q132 0 147 -5q18 -1 30 -13.5t14 -30.5
z" />
<glyph unicode="&#x2b09;" horiz-adv-x="960" d="M133 783q2 18 13.5 30.5t29.5 13.5q15 5 148 5q251 0 443 -45q28 -6 36 -33q8 -28 -12 -48l-138 -138q63 -86 115 -167t58 -100q22 -73 -36 -131t-132 -36q-19 5 -99 57t-168 116l-137 -138q-16 -14 -35 -14q-9 0 -13 2q-27 8 -33 36q-29 122 -38.5 275t-7 214t5.5 101z
" />
<glyph unicode="&#x2b0a;" horiz-adv-x="960" d="M783 133q-40 -3 -101 -5.5t-214 7t-275 38.5q-28 6 -36 33q-2 5 -2 14q0 20 14 34l138 138q-64 87 -116 167t-57 100q-22 73 36 131t131 36q19 -5 99 -57t168 -116l138 138q20 20 48 12q27 -8 33 -35q45 -193 45 -444q0 -137 -5 -147q-1 -18 -13.5 -30t-30.5 -14z" />
<glyph unicode="&#x2b0b;" horiz-adv-x="960" d="M177 133q-18 2 -30.5 14t-13.5 30q-5 10 -5 147q0 251 45 444q6 27 33 35q28 8 48 -12l138 -138q89 65 168.5 116.5t98.5 56.5q73 22 131 -36t36 -131q-5 -20 -56.5 -100t-116.5 -168l138 -137q14 -14 14 -35q0 -5 -2 -13q-8 -27 -36 -33q-122 -29 -275 -38.5t-214 -7
t-101 5.5z" />
<glyph unicode="&#x2b0c;" horiz-adv-x="960" d="M390 859q26 -15 26 -43v-672q0 -28 -26 -43q-12 -5 -22 -5q-16 0 -28 9q-54 38 -105 88.5t-83.5 91.5t-61.5 85t-38.5 61t-14.5 27q-11 22 0 43q3 7 14 27t39 62t61 84.5t84 92.5t105 88q24 17 50 4zM592 96q-10 0 -22 5q-26 15 -26 43v672q0 28 26 43q26 13 50 -4
q175 -123 303 -354q11 -21 0 -43l-5 -10q-5 -9 -13 -22l-20 -32.5t-27 -41.5t-33.5 -46.5t-41.5 -50.5t-47.5 -51.5t-54.5 -51t-61 -47.5q-12 -9 -28 -9z" />
<glyph unicode="&#xe001;" horiz-adv-x="960" d="M818 518q23 -24 10 -55q-12 -30 -45 -32l-194 -11q40 -112 73 -215.5t35 -122.5q3 -28 -7 -44.5t-35 -28.5q-23 -11 -40.5 -8.5t-43.5 21.5q-17 14 -77 100t-126 192l-126 -141q-15 -17 -39 -17q-10 0 -15 2q-32 8 -37 42q0 1 -1.5 12.5t-3.5 28.5t-4.5 41t-5 54t-4.5 63
t-3 72t-1 77q0 213 37 372q5 23 28 35q23 11 46 0q280 -138 579 -437z" />
<glyph unicode="&#xe002;" horiz-adv-x="960" d="M560 280q116 0 198 82t82 198t-82 198t-198 82t-198 -82t-82 -198t82 -198t198 -82zM576 384h-32q-14 0 -23 9t-9 23v96h-96q-14 0 -23 9t-9 23v32q0 14 9 23t23 9h96v96q0 14 9 23t23 9h32q14 0 23 -9t9 -23v-96h96q14 0 23 -9t9 -23v-32q0 -14 -9 -23t-23 -9h-96v-96
q0 -14 -9 -23t-23 -9zM560 960q166 0 283 -117t117 -283t-117 -283t-283 -117q-88 0 -166 36l-241 -177q-32 -24 -71 -18t-63 38q-19 26 -19 57.5t19 57.5l177 240q-36 78 -36 166q0 166 117 283t283 117z" />
<glyph unicode="&#xe003;" horiz-adv-x="960" d="M560 280q116 0 198 82t82 198t-82 198t-198 82t-198 -82t-82 -198t82 -198t198 -82zM416 512q-14 0 -23 9t-9 23v32q0 14 9 23t23 9h288q14 0 23 -9t9 -23v-32q0 -14 -9 -23t-23 -9h-288zM560 960q166 0 283 -117t117 -283t-117 -283t-283 -117q-88 0 -166 36l-241 -177
q-32 -24 -71 -18t-63 38q-19 26 -19 57.5t19 57.5l177 240q-36 78 -36 166q0 166 117 283t283 117z" />
<glyph unicode="&#xe004;" horiz-adv-x="960" d="M928 544q14 0 23 -9t9 -23v-64q0 -14 -9 -23t-23 -9h-70q-20 -121 -106.5 -207.5t-207.5 -106.5v-70q0 -14 -9 -23t-23 -9h-64q-14 0 -23 9t-9 23v70q-121 20 -207.5 106.5t-106.5 207.5h-70q-14 0 -23 9t-9 23v64q0 14 9 23t23 9h70q20 121 106.5 207.5t207.5 106.5v70
q0 14 9 23t23 9h64q14 0 23 -9t9 -23v-70q121 -20 207.5 -106.5t106.5 -207.5h70zM480 217q109 0 186 77t77 186t-77 186t-186 77t-186 -77t-77 -186t77 -186t186 -77zM480 544q26 0 45 -19t19 -45t-19 -45t-45 -19t-45 19t-19 45t19 45t45 19z" />
<glyph unicode="&#xe010;" horiz-adv-x="960" d="M751 64q-86 0 -146.5 61t-60.5 147v51q-26 31 -63 31q-41 0 -65 -32v-50q0 -86 -60.5 -147t-146.5 -61q-84 0 -144 58.5t-63 142.5q-1 5 -1.5 15t1 43t6 68t18 89t34.5 109q54 142 133 223q53 55 111 51q44 -3 78 -41t34 -85v-19q33 14 65 14q31 0 63 -13v18q0 47 34 85
t78 41q58 4 111 -51q79 -81 133 -223q33 -87 47.5 -168t12.5 -119l-2 -37q-3 -84 -63 -142.5t-144 -58.5zM751 155q49 0 83.5 34t34.5 83t-34.5 83.5t-83.5 34.5t-83 -34.5t-34 -83.5t34 -83t83 -34zM209 155q49 0 83 34t34 83t-34 83.5t-83 34.5t-83.5 -34.5t-34.5 -83.5
t34.5 -83t83.5 -34z" />
<glyph unicode="&#xe070;" horiz-adv-x="960" d="M956 480q8 -16 0 -30q-9 -17 -66 -79t-114 -108q-15 -13 -32 -3q-9 5 -9 28q0 4 1 6l14 90h-174v-180l80 17q25 5 35 -12q10 -15 -3 -30q-48 -56 -111 -111t-82 -64q-15 -8 -30 0q-19 9 -82 64t-111 111q-14 14 -3 30q7 12 28 12h7l80 -17v180h-173l13 -90q6 -26 -8 -34
q-17 -10 -32 3q-57 46 -114 108t-66 79q-8 14 0 30q9 17 66.5 79t113.5 108q17 12 32 3q9 -5 9 -28q0 -1 -0.5 -3t-0.5 -4l-14 -91h174v180l-80 -17q-25 -5 -35 12q-11 16 3 30q47 55 110.5 110.5t82.5 64.5q15 8 30 0q19 -9 82 -64t111 -111q14 -15 3 -30q-7 -12 -28 -12
h-7l-80 17v-180h173l-13 91q-6 27 8 35q15 9 32 -3q57 -46 114 -108t66 -79z" />
<glyph unicode="&#xe071;" horiz-adv-x="960" d="M691 340q13 -14 12.5 -32t-14.5 -32t-30 -14q-21 0 -34 13l-44 44l65 66zM956 58q10 -26 -8 -44q-14 -14 -30 -14q-8 0 -16 3q-136 48 -340 114q-9 4 -19 12l-76 77l62 62l65 -65q13 -4 62.5 -19.5t74.5 -24.5l71 71q-30 88 -44 132l-67 68l64 64l79 -80q9 -7 12 -19
q98 -302 110 -337zM918 827q21 -21 0 -42l-736 -738q-15 -15 -24 -15q-14 0 -23 10l-61 60q-10 10 -10 24q0 10 13 23l225 222l-288 290q-12 11 -14 28t7 31q46 74 104 129q57 56 135 104q33 19 59 -7l287 -289l226 223q15 15 23 15q12 0 23 -11zM365 433l51 51l-271 272
q-22 -23 -45 -57zM482 549l46 45l-264 268q-9 -7 -26.5 -22.5t-24.5 -21.5z" />
<glyph unicode="&#xe0d0;" horiz-adv-x="960" d="M896 672h-832q-14 0 -23 9t-9 23v96q0 14 9 23t23 9h224v32q0 26 19 45t45 19h256q26 0 45 -19t19 -45v-32h224q14 0 23 -9t9 -23v-96q0 -14 -9 -23t-23 -9zM640 608h221q16 -258 -51 -517q-8 -27 -29 -46.5t-49 -23.5q-126 -21 -252 -21t-252 21q-28 4 -49 23.5
t-29 46.5q-67 259 -51 517h221v-448h64v448h192v-448h64v448z" />
<glyph unicode="&#xe100;" horiz-adv-x="960" d="M912 911q35 -35 44 -132t-1 -186t-26 -122q-26 -55 -164.5 -198.5t-277.5 -260.5q-15 -12 -34 -12q-9 0 -16.5 2t-11 3.5t-12.5 6.5t-11 6q-134 71 -223 161q-77 77 -151 203q-1 1 -6 10.5t-6.5 12t-5.5 11.5t-5 12.5t-3.5 11t-2 12.5t1 11.5t3.5 12t7 10.5
q106 134 253.5 274t206.5 169q29 13 95.5 22t135.5 9q161 0 210 -49zM736 632q43 0 73.5 30.5t30.5 73.5t-30.5 73.5t-73.5 30.5t-73.5 -30.5t-30.5 -73.5t30.5 -73.5t73.5 -30.5z" />
<glyph unicode="&#xe102;" horiz-adv-x="960" d="M907 911q35 -35 44.5 -131.5t-0.5 -185t-26 -121.5q-26 -56 -163.5 -198t-277.5 -259q-14 -12 -33 -12q-9 0 -16.5 2t-11 3.5t-12.5 6.5t-11 6q-138 73 -223 159q-71 70 -149 203q-1 1 -6 10.5t-6.5 12t-5.5 11.5t-5 12.5t-3.5 11t-2 12.5t1 11.5t3.5 12t7 10.5
q106 134 252.5 273t205.5 168q29 13 95 22t136 9q159 0 207 -49zM695 688q26 -23 61.5 -21t59.5 28q23 26 21 61.5t-28 59.5q-26 23 -61.5 21t-59.5 -28q-23 -26 -21 -61.5t28 -59.5zM373 296q105 -85 168 -22q19 19 24 41.5t-5.5 48.5t-23 47t-35.5 53q-23 34 -26 45.5
t8 24.5q21 21 60 -18q27 -26 45 -55q16 -27 40 -25l25 3q10 1 12.5 10t-3.5 20q-17 30 -44 61l33 34q6 6 3.5 17t-12.5 21l-21 21q-24 22 -38 8l-33 -34q-98 78 -156 19q-23 -23 -23 -53.5t14 -58t43 -68.5q25 -35 29 -48.5t-8 -29.5q-26 -24 -76 25q-34 34 -60 81
q-6 11 -17 17.5t-19 4.5l-27 -4q-10 -2 -12.5 -11t4.5 -20q23 -45 62 -88l-30 -30q-14 -16 9 -38l21 -21q10 -10 21 -12.5t17 3.5z" />
<glyph unicode="&#xe103;" horiz-adv-x="960" d="M912 907q35 -35 44 -131.5t-1 -185t-26 -121.5q-26 -55 -163.5 -197.5t-276.5 -259.5q-15 -12 -34 -12q-9 0 -16.5 2t-11 3.5t-12.5 6.5t-11 6q-138 73 -223 159q-77 77 -148 203q-29 50 -29 71q0 18 11 33q106 134 252.5 273t205.5 168q29 13 95.5 22t135.5 9
q159 0 208 -49zM696 689q26 -23 61 -21t58 28t21 61t-28 58t-61 21t-58 -28t-21 -61t28 -58zM448 352q-40 0 -68 28t-28 68t28 68t68 28t68 -28t28 -68t-28 -68t-68 -28zM448 188q59 0 90 102q28 -7 57 -7q55 0 75 35q28 48 -33 119q-1 2 -5 5.5t-5 5.5q1 2 5 5.5t5 5.5
q61 71 33 119q-20 35 -75 35q-29 0 -57 -7q-31 102 -90 102q-60 0 -89 -102q-29 7 -57 7q-56 0 -76 -35q-27 -49 33 -119l5.5 -5.5t4.5 -5.5q-73 -78 -43 -130q20 -35 76 -35q28 0 57 7q29 -102 89 -102z" />
<glyph unicode="&#xe1a0;" horiz-adv-x="960" d="M672 672v-608q-24 0 -72.5 28t-106 76.5t-119 128t-103.5 167.5q-61 131 -44.5 219.5t73.5 134t133 45.5q69 0 121 -37q42 -29 71.5 -67.5t38.5 -62.5z" />
<glyph unicode="&#xe1a1;" horiz-adv-x="960" d="M672 960v-825q-55 -35 -190 -102q-38 -18 -55 -28q-25 -13 -48 3q-24 16 -22 44q8 104 50 277q-160 136 -209 226q-11 19 -3 40q7 21 26 28q56 25 283 33q82 238 134 290q16 14 34 14z" />
<glyph unicode="&#xe1c1;" horiz-adv-x="960" d="M648 712q-84 43 -184 43t-184 -43l-248 248h320l112 -112l112 112h320zM464 0q-140 0 -238 98t-98 238t98 238t238 98t238 -98t98 -238t-98 -238t-238 -98zM416 160h128v352h-96q-30 -89 -128 -96v-64h96v-192z" />
<glyph unicode="&#xe200;" horiz-adv-x="960" d="M103 193q18 114 180 288l198 -198q-174 -162 -288 -180q2 -45 -28 -75q-28 -28 -68 -28q-41 0 -69 28t-28 68.5t28 68.5q30 30 75 28zM899 899q61 -61 61 -147.5t-60 -147.5q-94 -94 -238 -157l69 -68q23 -23 23 -50t-23 -50t-57 -23q-26 0 -53 27l-346 339
q-24 24 -25 51.5t22 51.5q25 23 54 23q30 0 53 -23l66 -65q63 143 159 240q60 60 146 60q88 0 149 -61z" />
<glyph unicode="&#xe201;" horiz-adv-x="960" d="M784 0h-96q-20 0 -34 14t-14 34v80h-416q-40 0 -68 28t-28 68v416h-80q-20 0 -34 14t-14 34v96q0 20 14 34t33 14h81v80q0 20 14 34t34 14h96q20 0 34 -14t14 -34v-592h592q20 0 34 -14t14 -34v-97q0 -20 -14 -33.5t-34 -13.5h-80v-80q0 -20 -14 -34t-34 -14zM640 384
v256h-256v192h352q40 0 68 -28t28 -68v-352h-192z" />
<glyph unicode="&#xe202;" horiz-adv-x="960" d="M944 330q14 -8 16 -25t-13 -28q-12 -9 -29.5 -22.5t-69 -49t-102 -67t-120.5 -70t-133 -65.5q-6 -3 -13 -3t-13 3q-40 17 -83.5 39t-81 43.5t-75.5 44.5t-68 43t-58 39.5t-45.5 32t-30.5 22.5l-13 10q-13 12 -12 28q2 18 16 25l177 97l230 -139q25 -16 57 -16t57 16
l229 139zM16 636q-14 7 -16 26q-2 15 12 27l9 7q9 6 20.5 14.5t30.5 21.5t39.5 27t47.5 31t54 33.5t58.5 34.5t62.5 35t65.5 33.5t67.5 30.5q6 3 13 3t13 -3q100 -43 216 -111.5t166 -104t72 -52.5q15 -11 13 -27q-2 -18 -16 -26l-448 -264q-7 -4 -16 -4t-16 4z" />
<glyph unicode="&#xe206;" horiz-adv-x="960" d="M918 352q13 0 25.5 -9.5t13.5 -22.5q6 -32 0 -64q-1 -13 -13.5 -22.5t-25.5 -9.5h-182v-182q0 -14 -9.5 -26t-22.5 -14q-32 -5 -64 0q-13 2 -22.5 14t-9.5 26v182h-256v-182q0 -14 -9.5 -26t-22.5 -14q-32 -5 -64 0q-13 2 -22.5 14t-9.5 26v182h-182q-13 0 -25.5 9.5
t-14.5 22.5q-5 32 0 64q2 13 14.5 22.5t25.5 9.5h182v256h-182q-13 0 -25.5 9.5t-14.5 22.5q-5 32 0 64q2 13 14.5 22.5t25.5 9.5h182v182q0 13 9.5 25.5t22.5 13.5q32 6 64 0q13 -1 22.5 -13.5t9.5 -25.5v-182h256v182q0 13 9.5 25.5t22.5 13.5q32 6 64 0q13 -1 22.5 -13.5
t9.5 -25.5v-182h182q13 0 25.5 -9.5t13.5 -22.5q6 -32 0 -64q-1 -13 -13.5 -22.5t-25.5 -9.5h-182v-256h182zM352 352h256v256h-256v-256z" />
<glyph unicode="&#xe220;" horiz-adv-x="960" d="M90 27q-39 -26 -63.5 -26.5t-25.5 18.5t10 44q49 110 211 277.5t311 270.5q16 11 8 18q-25 21 -180.5 -82.5t-262.5 -219.5q-4 266 148 415q59 57 140 96.5t167 57.5t154 25t136 7q15 0 29 -0.5t23.5 -1t17 -0.5h11.5l5 -1q12 -1 20 -9.5t9 -19.5q7 -48 -3 -154
q-80 -37 -201 -66q-1 0 -3 -1q-10 -4 -10 -14q-2 -16 15 -18q47 -3 184 -3q-18 -92 -63 -189q-58 -2 -215 1q-12 0 -17 -11q-5 -16 10 -21q87 -32 173 -56q-46 -69 -69 -91q-149 -145 -421 -145q-84 0 -104 2q-89 -67 -144 -103z" />
<glyph unicode="&#xe221;" horiz-adv-x="960" d="M704 426v284q0 37 -25 63.5t-62 26.5h-321l112 109q51 51 103 51h289q44 0 70 -29.5t26 -66.5v-176q0 -71 -47 -118zM608 736q10 0 21 -11t11 -21v-343l-183 -182q-20 -21 -50.5 -36t-58.5 -15h-237q-58 0 -91 44q-35 51 -11 122q67 171 114 299q21 53 61 92l48 51h376z
M832 64q-53 0 -90.5 37.5t-37.5 90.5t37.5 90.5t90.5 37.5t90.5 -37.5t37.5 -90.5t-37.5 -90.5t-90.5 -37.5zM560 0q-33 0 -56.5 23.5t-23.5 56.5t23.5 56.5t56.5 23.5t56.5 -23.5t23.5 -56.5t-23.5 -56.5t-56.5 -23.5z" />
<glyph unicode="&#xe225;" horiz-adv-x="960" d="M960 583q0 -85 -56 -147t-134 -86t-237 -41q-51 -5 -67.5 -17t-17.5 -36q26 0 45 -19t19 -45v-128q0 -26 -19 -45t-45 -19h-128q-26 0 -45 19t-19 45v128q0 28 19 45q17 19 45 19q9 161 200 181q138 12 212 35q36 11 68 40t32 71q0 35 -26 59t-70 29v-63
q0 -23 -14.5 -40.5t-36.5 -21.5q-156 -33 -317 -33t-317 33q-22 4 -36.5 21.5t-14.5 40.5v256q0 23 14.5 41t36.5 22q147 31 318 31q169 0 316 -31q22 -4 36.5 -22t14.5 -41v-64q98 -7 161 -68t63 -149z" />
<glyph unicode="&#xe226;" horiz-adv-x="960" d="M928 192q0 -13 -10 -22.5t-22 -9.5h-832q-12 0 -22 9.5t-10 22.5q0 35 22 87t64 74q46 24 267 74q9 72 -17 134l-16 37q-15 36 -22 55t-19 54t-17.5 66t-5.5 58q0 48 60 88t132 40t131.5 -40t59.5 -88q0 -16 -2 -32.5t-6 -35t-7.5 -33.5t-10.5 -35t-11 -31.5t-12 -31.5
t-11 -26.5t-11 -25.5l-8 -19q-26 -62 -17 -134q221 -50 267 -74q42 -22 64 -74t22 -87zM131 21l-25 74l748 1l-26 -75q-6 -21 -30 -21h-636q-23 0 -31 21z" />
<glyph unicode="&#xe2b3;" horiz-adv-x="960" d="M357 682q13 40 23 102.5t13.5 99.5t3.5 44q0 14 9.5 23t22.5 9h102q13 0 22.5 -9t9.5 -23q0 -7 3.5 -44t13.5 -99.5t23 -102.5q5 -16 -4 -28q-9 -14 -26 -14h-186q-17 0 -26 14q-9 12 -4 28zM899 840q12 -2 20.5 -11t8.5 -21v-741q0 -12 -8 -21t-20 -11l-16 -2
q-15 -2 -38 -5t-54.5 -7t-69 -7.5t-76.5 -6.5t-83 -5t-83 -2t-83 2t-83 5t-76.5 6.5t-69 7.5t-54.5 7t-38 5l-16 2q-12 2 -20 11t-8 21v741q0 12 8.5 21t20.5 11q111 13 256 20q-3 -66 -16 -121q-92 -6 -141 -10v-585q184 -23 320 -23t320 23v585q-49 4 -141 10
q-12 51 -17 121q145 -7 257 -20zM450 225h-2q-26 0 -45 19l-138 137q-19 19 -19 45t19 45t45.5 19t45.5 -19l89 -91l188 213q18 20 44.5 21.5t46.5 -16.5q20 -17 21.5 -43.5t-15.5 -46.5l-234 -261q-19 -20 -46 -22z" />
<glyph unicode="&#xe2b5;" horiz-adv-x="960" d="M354 682q13 40 22 103t11.5 98.5t2.5 44.5q0 13 9.5 22.5t22.5 9.5h116q13 0 22.5 -9.5t9.5 -22.5q0 -8 2.5 -44t11.5 -99t22 -103q6 -14 -4 -28q-9 -14 -26 -14h-192q-17 0 -26 14q-9 12 -4 28zM900 843q12 -1 20 -10.5t8 -21.5v-744q0 -12 -7.5 -21t-19.5 -10
q-12 -3 -69 -10.5t-161.5 -16.5t-190.5 -9t-190.5 9t-161.5 16.5t-69 10.5q-11 2 -19 10.5t-8 20.5v744q0 12 8 21.5t20 10.5q111 13 258 20q-5 -70 -17 -122q-92 -4 -141 -10v-586q221 -23 320 -23q173 0 320 23v586q-50 6 -141 10q-13 57 -16 122q146 -7 257 -20zM328 248
q-20 -24 -50 -24q-21 0 -40 14q-21 16 -24 42.5t14 47.5l138 160q19 23 47 24q29 2 48 -19l78 -77l96 117q17 20 43 23t47 -13q20 -17 23 -43.5t-13 -46.5l-141 -173q-18 -22 -46 -24t-49 19l-78 77z" />
<glyph unicode="&#xe300;" horiz-adv-x="960" d="M891 792q19 -19 0 -38l-436 -434l-307 -299q-1 -1 -6.5 -7t-9 -9t-7.5 -3q-15 0 -24 10l-59 54q-10 9 -10 24q0 11 10 20l180 181q-142 156 -179.5 321.5t50.5 254.5q53 53 143 61q19 0 29 -18l113 -220q6 -10 6 -18q0 -15 -13 -25l-86 -95q-17 -18 -5 -40q33 -53 70 -94
l436 433q13 13 24 13q13 0 23 -10zM228 926l2 1zM233 927l1 1l-1 -1h-2h2zM228 926l2 1zM231 927h2h-2zM234 928l-1 -1zM928 240q0 17 -24 30l-202 108q-11 6 -18 6q-5 0 -15 -4l-253 -249q152 -99 280 -99q102 0 167 65q57 55 65 143z" />
<glyph unicode="&#xe302;" horiz-adv-x="960" d="M958 471q0 -94 -36.5 -135.5t-107.5 -56.5q-24 -68 -72 -128q-54 -69 -126 -110t-138 -41q-62 0 -127.5 37t-119.5 103q-50 59 -80 138q-74 14 -111.5 55.5t-37.5 137.5q0 78 25 119.5t74 59.5q19 58 47 108t72 98t110.5 76t147.5 28q65 0 121.5 -19t96 -49t72 -72.5
t52.5 -83t35 -85.5q50 -19 76.5 -60t26.5 -120zM478 90q39 0 91.5 31.5t97.5 88.5q21 27 39 62q-92 -42 -178 -56q-21 -24 -50 -24q-27 0 -45.5 19t-18.5 45q0 27 18.5 45.5t45.5 18.5q35 0 55 -31q101 21 200 79q10 64 -3 125q-97 -8 -226 83q-32 23 -64 53
q-22 -35 -43 -57q-84 -87 -175 -84q-11 -75 10.5 -149.5t72.5 -137.5q40 -50 87.5 -80.5t85.5 -30.5z" />
<glyph unicode="&#xe310;" horiz-adv-x="960" d="M656 649q112 -114 175.5 -266.5t64.5 -318.5h-157q0 278 -196 477q-62 63 -134 107t-138.5 63t-114.5 26t-92 7v152q45 0 89.5 -4.5t110.5 -19.5t127 -40.5t132 -72.5t133 -110zM449 446q159 -162 159 -382h-154q0 73 -29.5 147t-80.5 127q-118 121 -280 118v152
q226 0 385 -162zM64 320q112 -1 184 -70t72 -186h-136q-50 0 -85 35t-35 85v136z" />
<glyph unicode="&#xe320;" horiz-adv-x="960" d="M608 717v-506q0 -16 -9.5 -29t-25.5 -17q-132 -37 -253 -37q-120 0 -252 37q-16 5 -26 17.5t-10 28.5v506q0 16 10 28.5t26 17.5q138 37 252 37q115 0 253 -37q16 -4 25.5 -17t9.5 -29zM897 194q-12 0 -22 8q-47 42 -96.5 103.5t-73.5 97t-28 44.5q-12 17 0 34
q4 8 28 42.5t73.5 94t96.5 101.5q14 14 36 6q17 -8 17 -31v-467q0 -22 -17 -30q-7 -3 -14 -3z" />
<glyph unicode="&#xe350;" horiz-adv-x="960" d="M903 946q27 -19 25 -53q-29 -437 -101 -773q-8 -32 -35 -44q-13 -7 -28 -7q-13 0 -29 7l-209 106l-93 -148q-18 -34 -55 -34q-5 0 -17 2q-41 10 -41 63v199l320 367l-431 -280l-174 77q-30 16 -35 50q-3 34 23 57q101 82 222.5 155.5t216 118.5t190 81.5t134.5 49
t59 17.5q32 10 58 -11z" />
<glyph unicode="&#xe352;" horiz-adv-x="960" d="M928 534v-486q0 -20 -14 -34t-34 -14h-832q-20 0 -34 14t-14 34v486q0 21 16 35l416 391q14 13 32.5 13t31.5 -13l416 -391q16 -14 16 -35zM785 384l66 65q-75 77 -175 120t-212 43t-212 -43t-175 -120l66 -65q133 135 321 135q92 0 175 -35.5t146 -99.5zM649 247l67 66
q-103 105 -252 105t-252 -105l67 -66q76 78 185 78t185 -78zM464 56q37 0 62.5 25.5t25.5 62.5t-25.5 62.5t-62.5 25.5t-62.5 -25.5t-25.5 -62.5t25.5 -62.5t62.5 -25.5z" />
<glyph unicode="&#xe400;" horiz-adv-x="960" d="M959 332q3 -10 -4 -21t-18 -12l-7 -1q-7 -1 -21.5 -2.5t-35.5 -3t-57.5 -2.5t-79.5 -2q-9 7 -20 13.5t-23.5 14t-18.5 11.5q-16 8 -31 18q105 139 42 276q-25 54 -70 84t-98 37q0 35 16 72q19 42 58 62t81 20t81 -20t58 -62q48 -105 -47 -215q-29 -34 4 -71
q10 -12 58.5 -40t68.5 -42q11 -8 19.5 -14.5t14.5 -15t9.5 -13t7 -15.5t4.5 -15t4.5 -19.5t4.5 -21.5zM286 327q-6 -4 -18.5 -11.5t-23.5 -14t-20 -13.5q-31 0 -59 1t-48 2t-36 2t-26.5 2t-17.5 2t-11 1l-3 1q-11 1 -18 12q-7 9 -4 21q2 7 5 21.5t4 19.5t4.5 15.5t7 15
t9.5 12.5t14 15t20 15q21 15 69 43t58 39q33 37 4 71q-95 110 -47 215q19 42 58 62t81 20t81 -20t58 -62q16 -37 16 -72q-120 -17 -169 -121q-62 -137 43 -276q-4 -3 -9 -6t-11.5 -6.5t-9.5 -5.5h-1zM480 64q-42 0 -79.5 0.5t-63.5 1.5t-47 2.5t-34.5 2.5t-22.5 2t-13 1
l-5 1q-11 1 -18 12q-7 9 -4 21q2 7 5 21.5t4 19.5t4.5 15.5t7 15t9.5 12.5t14 15t20 15q21 15 69 43t58 39q33 37 4 71q-95 110 -47 215q19 42 58 62t81 20t81 -20t58 -62q48 -105 -47 -215q-29 -34 4 -71q10 -12 58.5 -40t68.5 -42q25 -18 37 -33.5t16.5 -34t10.5 -46.5
q3 -11 -4 -21q-7 -11 -18 -12l-5 -1q-4 0 -13 -1t-22.5 -2t-35 -2.5t-47.5 -2.5t-63 -1.5t-79 -0.5z" />
<glyph unicode="&#xe401;" horiz-adv-x="960" d="M545 502q-41 -35 -73 -74q-64 -77 -64 -189q0 -96 55 -175h-35q-328 0 -400 18q-13 1 -22 14q-8 12 -5 25q27 130 133 195q17 10 67 31q32 13 48 20.5t35.5 22.5t24.5 30q10 33 -32 95q-124 198 -44 333q31 52 84 82t115 30t115 -30t84 -82q15 -27 22 -52
q31 -99 -27 -206q-4 -8 -8.5 -15t-10.5 -14t-10.5 -12t-13 -13t-12 -11t-13.5 -11.5t-13 -11.5zM720 0q-100 0 -170 70t-70 170t70 170t170 70q99 0 169.5 -70t70.5 -170t-70.5 -170t-169.5 -70zM688 96h64q16 0 16 16v80h80q16 0 16 16v64q0 16 -16 16h-80v80q0 16 -16 16
h-64q-16 0 -16 -16v-80h-80q-16 0 -16 -16v-64q0 -16 16 -16h80v-80q0 -16 16 -16z" />
<glyph unicode="&#xe402;" horiz-adv-x="960" d="M545 502q-41 -35 -73 -74q-64 -77 -64 -189q0 -96 55 -175h-35q-328 0 -400 18q-13 1 -22 14q-8 12 -5 25q27 130 133 195q17 10 67 31q32 13 48 20.5t35.5 22.5t24.5 30q10 33 -32 95q-124 198 -44 333q31 52 84 82t115 30t115 -30t84 -82q15 -27 22 -52
q31 -99 -27 -206q-4 -8 -8.5 -15t-10.5 -14t-10.5 -12t-13 -13t-12 -11t-13.5 -11.5t-13 -11.5zM720 0q-100 0 -170 70t-70 170t70 170t170 70q99 0 169.5 -70t70.5 -170t-70.5 -170t-169.5 -70zM592 192h256q16 0 16 16v64q0 16 -16 16h-256q-16 0 -16 -16v-64
q0 -16 16 -16z" />
<glyph unicode="&#xe404;" horiz-adv-x="960" d="M545 502q-41 -35 -73 -74q-64 -77 -64 -189q0 -96 55 -175h-35q-328 0 -400 18q-13 1 -22 14q-8 12 -5 25q27 130 133 195q17 10 67 31q32 13 48 20.5t35.5 22.5t24.5 30q10 33 -32 95q-124 198 -44 333q31 52 84 82t115 30t115 -30t84 -82q15 -27 22 -52
q31 -99 -27 -206q-4 -8 -8.5 -15t-10.5 -14t-10.5 -12t-13 -13t-12 -11t-13.5 -11.5t-13 -11.5zM720 0q-100 0 -170 70t-70 170t70 170t170 70q99 0 169.5 -70t70.5 -170t-70.5 -170t-169.5 -70zM787 114q12 -10 24 0l38 38q10 12 0 24l-64 64l64 64q11 11 0 24l-38 38
q-12 10 -24 0l-64 -64l-64 64q-11 11 -24 0l-38 -38q-11 -13 0 -24l64 -64l-64 -64q-10 -12 0 -24l38 -38q12 -10 24 0l64 64z" />
<glyph unicode="&#xe406;" horiz-adv-x="960" d="M400 64q-119 0 -211.5 4t-123 7t-36.5 4q-15 2 -23 15t-5 27q24 113 133 180q14 8 60 27q83 32 91 59q9 26 -25 75q-55 86 -65 164.5t26 138.5q28 46 75.5 72.5t103.5 26.5t103.5 -26.5t75.5 -72.5q76 -126 -38 -302q-34 -49 -26 -76t91 -59q46 -19 60 -27
q107 -65 133 -180q3 -14 -5 -27q-10 -14 -22 -15q-6 -1 -36.5 -4t-123.5 -7t-212 -4zM704 704h256v-64h-256v64zM960 512h-256v64h256v-64z" />
<glyph unicode="&#xe407;" horiz-adv-x="960" d="M927 71q5 -29 -22 -38q-139 -28 -348 -32l-32 142q23 16 41 40.5t18 44.5q0 30 -31.5 48.5t-72.5 18.5t-72.5 -18.5t-31.5 -48.5q0 -20 18 -44.5t41 -41.5l-32 -141q-239 5 -348 32q-27 9 -22 38q14 66 49 109t94 80q21 13 71 33q33 13 50.5 21t38.5 24t26 33
q12 35 -29 99q-127 202 -45 343q31 54 82 84.5t110 30.5t109.5 -30.5t82.5 -84.5q82 -141 -45 -343q-40 -62 -29 -99q6 -17 26.5 -33t38.5 -24t50 -21q50 -20 71 -33q59 -37 93.5 -80t49.5 -109z" />
<glyph unicode="&#xe412;" horiz-adv-x="960" d="M127 252q-14 -4 -31 -7v442q0 101 69 171t169 70q89 0 153 -53q-43 -63 -53 -137q-14 29 -41 47t-59 18q-46 0 -78 -34t-32 -82v-143h288v143q0 101 64.5 171t157.5 70t159.5 -70.5t66.5 -170.5v-47q0 -26 -19 -45t-45 -19t-45 19t-19 45v47q0 48 -28 82t-68 34
t-68 -33.5t-28 -81.5v-442q-13 1 -29 5q-58 18 -99 78v87h-288v-93q-35 -50 -97 -71zM940 243l20 11v-138q-162 -84 -290 -84q-58 0 -126 22q-103 34 -176 119q-73 -85 -176 -119q-61 -20 -115 -20q-36 0 -77 7v119q86 -15 151 6q31 10 58.5 28.5t45 38t30.5 38.5t18.5 30
t5.5 12q18 38 59 38t58 -38l2 -4q2 -4 5.5 -10.5t9 -15.5t13.5 -19.5t17.5 -21t21.5 -21.5t25.5 -20.5t30 -18t34.5 -14.5q147 -47 355 75z" />
<glyph unicode="&#xe420;" horiz-adv-x="960" d="M97 704h63v-685q-52 7 -73 10q-43 7 -53 49q-34 151 -34 290t34 287q5 22 22.5 35.5t40.5 13.5zM925 655q35 -146 35 -287q0 -139 -34 -290q-10 -42 -53 -49q-25 -4 -73 -10v685h63q23 0 40.5 -13.5t21.5 -35.5zM684 909q23 -5 37.5 -22.5t14.5 -40.5v-834
q-128 -12 -256 -12q-129 0 -256 12v834q0 23 14.5 41t37.5 22q98 19 204 19t204 -19zM608 704v91q-128 15 -256 0v-91h256z" />
<glyph unicode="&#xe421;" horiz-adv-x="960" d="M925 655q35 -146 35 -287q0 -137 -34 -290q-10 -42 -53 -49q-198 -29 -393 -29t-393 29q-43 7 -53 49q-34 153 -34 290q0 139 34 287q5 22 22.5 35.5t40.5 13.5h127v142q0 23 14.5 41t37.5 22q98 19 204 19t204 -19q23 -5 37.5 -22.5t14.5 -40.5v-142h127
q23 0 40.5 -13.5t21.5 -35.5zM489 316q4 13 -2 24.5t-19 15.5l-249 77q-11 4 -24 -2q-11 -6 -16 -19l-46 -150q-4 -13 2.5 -24.5t18.5 -15.5l249 -77q1 0 4.5 -0.5t5.5 -0.5q8 0 15 4q12 7 15 19zM608 704v91q-128 15 -256 0v-91h256zM736 352q40 0 68 28t28 68t-28 68
t-68 28t-68 -28t-28 -68t28 -68t68 -28z" />
<glyph unicode="&#xe422;" horiz-adv-x="960" d="M480 960q63 0 118.5 -14.5t101.5 -44t73 -80t27 -117.5v-515q0 -124 -88 -159q-46 -17 -98.5 -23.5t-149.5 -6.5t-150 6.5t-98 23.5q-88 35 -88 159v163q0 102 31.5 151t128.5 73q40 10 104 24.5t94 22.5q46 12 69.5 38.5t22.5 54t-23 52t-59 32.5q-52 11 -101 -13.5
t-85 -70.5q-47 -61 -105 -38q-28 11 -39 37.5t-3 56.5q20 74 110.5 131t206.5 57zM464 123q75 0 128 53t53 128t-53 128t-128 53t-128 -53t-53 -128t53 -128t128 -53zM576 256h-224v96h224v-96z" />
<glyph unicode="&#xe500;" horiz-adv-x="960" d="M913 809q19 -22 14 -51l-64 -400q-8 -42 -48 -53q-221 -49 -512 -49q-23 0 -41 15t-22 38q-1 2 -14.5 85.5t-32.5 202.5t-30 194q-2 15 -11 28t-24 13h-64q-26 0 -45 19t-19 45t19 45t45 19h64q56 0 99.5 -35t57.5 -93h579q28 0 49 -23zM768 0q-40 0 -68 28t-28 68t28 68
t68 28t68 -28t28 -68t-28 -68t-68 -28zM320 0q-40 0 -68 28t-28 68t28 68t68 28t68 -28t28 -68t-28 -68t-68 -28z" />
<glyph unicode="&#xe501;" horiz-adv-x="960" d="M945 809q19 -22 14 -51l-64 -400q-3 -19 -16.5 -33.5t-33.5 -19.5q-24 -5 -76.5 -14t-191.5 -22t-277 -13q-23 0 -41 15t-22 38q0 1 -14 85t-33 204t-29 193q-8 41 -33 41h-64q-26 0 -45 19t-19 45t19 45t45 19h64q56 0 98 -35t57 -93h613q29 0 49 -23zM528 384h64
q16 0 16 16v112h112q16 0 16 16v64q0 16 -16 16h-112v112q0 16 -16 16h-64q-16 0 -16 -16v-112h-112q-16 0 -16 -16v-64q0 -16 16 -16h112v-112q0 -16 16 -16zM768 192q40 0 68 -28t28 -68t-28 -68t-68 -28t-68 28t-28 68t28 68t68 28zM320 192q40 0 68 -28t28 -68t-28 -68
t-68 -28t-68 28t-28 68t28 68t68 28z" />
<glyph unicode="&#xe502;" horiz-adv-x="960" d="M945 809q19 -22 14 -51l-64 -400q-3 -19 -16.5 -33.5t-33.5 -19.5q-24 -5 -76.5 -14t-191.5 -22t-277 -13q-23 0 -41 15t-22 38q0 1 -14 85t-33 204t-29 193q-8 41 -33 41h-64q-26 0 -45 19t-19 45t19 45t45 19h64q56 0 98 -35t57 -93h613q29 0 49 -23zM400 512h320
q16 0 16 16v64q0 16 -16 16h-320q-16 0 -16 -16v-64q0 -16 16 -16zM768 192q40 0 68 -28t28 -68t-28 -68t-68 -28t-68 28t-28 68t28 68t68 28zM320 192q40 0 68 -28t28 -68t-28 -68t-68 -28t-68 28t-28 68t28 68t68 28z" />
<glyph unicode="&#xe504;" horiz-adv-x="960" d="M945 809q19 -22 14 -51l-64 -400q-3 -19 -16.5 -33.5t-33.5 -19.5q-24 -5 -76.5 -14t-191.5 -22t-277 -13q-23 0 -41 15t-22 38q0 1 -14 85t-33 204t-29 193q-8 41 -33 41h-64q-26 0 -45 19t-19 45t19 45t45 19h64q56 0 98 -35t57 -93h613q29 0 49 -23zM429 378
q15 -14 29 0l102 101l101 -101q16 -14 30 0l51 51q14 15 0 29l-102 102l102 102q14 14 0 29l-51 51q-14 16 -30 0l-101 -101l-102 101q-14 16 -29 0l-52 -51q-6 -6 -6 -14.5t6 -14.5l102 -102l-102 -102q-6 -6 -6 -14.5t6 -14.5zM768 192q40 0 68 -28t28 -68t-28 -68
t-68 -28t-68 28t-28 68t28 68t68 28zM320 192q40 0 68 -28t28 -68t-28 -68t-68 -28t-68 28t-28 68t28 68t68 28z" />
<glyph unicode="&#xe505;" horiz-adv-x="960" d="M945 809q19 -22 14 -51l-64 -400q-3 -19 -16.5 -33.5t-33.5 -19.5q-24 -5 -76.5 -14t-191.5 -22t-277 -13q-23 0 -41 15t-22 38q0 1 -14 85t-33 204t-29 193q-8 41 -33 41h-64q-26 0 -45 19t-19 45t19 45t45 19h64q56 0 98 -35t57 -93h613q29 0 49 -23zM560 410q9 0 14 5
l6 4l13.5 9t19.5 14t24 19t26 23t27.5 26.5t27 30t24.5 32.5q7 11 1 23q-7 12 -20 12h-88q-18 97 -30 117q-11 21 -45 21t-45 -21q-13 -21 -30 -117h-88q-13 0 -20 -12q-6 -12 1 -23q17 -25 40 -50.5t44.5 -44t40 -32.5t31.5 -23l12 -9q5 -4 14 -4zM768 192q40 0 68 -28
t28 -68t-28 -68t-68 -28t-68 28t-28 68t28 68t68 28zM320 192q40 0 68 -28t28 -68t-28 -68t-68 -28t-68 28t-28 68t28 68t68 28z" />
<glyph unicode="&#xe507;" horiz-adv-x="960" d="M945 809q19 -22 14 -51l-64 -400q-3 -19 -16.5 -33.5t-33.5 -19.5q-24 -5 -76.5 -14t-191.5 -22t-277 -13q-23 0 -41 15t-22 38q0 1 -14 85t-33 204t-29 193q-8 41 -33 41h-64q-26 0 -45 19t-19 45t19 45t45 19h64q56 0 98 -35t57 -93h613q29 0 49 -23zM354 379
q232 5 422 39l45 286h-518q24 -159 51 -325zM768 192q40 0 68 -28t28 -68t-28 -68t-68 -28t-68 28t-28 68t28 68t68 28zM320 192q40 0 68 -28t28 -68t-28 -68t-68 -28t-68 28t-28 68t28 68t68 28z" />
<glyph unicode="&#xe510;" horiz-adv-x="960" d="M422 660l311 267q11 10 26 8.5t24 -12.5l48 -56q10 -11 8.5 -26t-12.5 -25l-210 -176h303q18 0 28 -12q12 -12 12 -30q0 -15 -2 -55.5t-12 -121t-26 -140.5q-38 -147 -78 -226q-12 -23 -36 -23h-653q-26 0 -36 23q-42 84 -78 226q-15 58 -25 138.5t-12 122t-2 56.5
q0 20 10 30q11 12 28 12h285q-12 -61 21 -97q36 -42 104 -30q-27 6 -44.5 28t-17.5 49q0 46 36 70zM227 192h74l-22 256h-119q9 -72 23 -126q12 -46 44 -130zM445 192h72l21 256h-114zM661 192h70q35 92 45 130q13 49 22 126h-116z" />
<glyph unicode="&#xe530;" horiz-adv-x="960" d="M864 352h-768q3 61 14 118t23.5 93.5t27 68t21.5 42.5t10 16q9 14 27 14h101v64h-80q-20 0 -34 14t-14 34v96q0 20 14 34t34 14h288q20 0 34 -14t14 -34v-96q0 -20 -14 -34t-34 -14h-80v-64h293q17 0 26 -14q7 -7 24 -38t42 -116t31 -184zM64 288h832q26 0 45 -19t19 -45
v-96q0 -27 -19 -49t-45 -25q-212 -20 -416 -20t-416 20q-26 3 -45 25t-19 49v96q0 26 19 45t45 19z" />
<glyph unicode="&#xe531;" horiz-adv-x="960" d="M832 928h128v-672h-128v672zM384 928v-238q-32 -10 -64 -29v267h64zM256 613q-41 -41 -64 -90v405h64v-315zM608 678q-62 27 -128 27q-10 0 -32 -2v225h160v-250zM768 525q-34 68 -96 116v287h96v-403zM0 256v672h128v-672h-128zM480 221q66 0 114.5 48.5t48.5 115.5
q0 66 -48.5 114.5t-114.5 48.5t-114.5 -48.5t-48.5 -114.5q0 -67 48.5 -115.5t114.5 -48.5zM205 41q-11 -7 -29 -3.5t-29 14.5q-11 12 -14 29.5t4 29.5q44 69 119 150q-32 59 -32 123q0 106 75 181t181 75t180.5 -75t74.5 -181t-74.5 -181t-180.5 -75q-65 0 -124 32
q-91 -80 -151 -119z" />
<glyph unicode="&#xe540;" horiz-adv-x="960" d="M336 448q-46 0 -79 33t-33 79t33 79t79 33t79 -33t33 -79t-33 -79t-79 -33zM906 895q23 -4 38.5 -22t15.5 -42v-639q0 -26 -19 -45t-45 -19h-32v-64q0 -14 -9 -23t-23 -9h-192q-14 0 -23 9t-9 23v64h-256v-64q0 -14 -9 -23t-23 -9h-192q-14 0 -23 9t-9 23v64h-32
q-26 0 -45 19t-19 45v639q0 24 15.5 42t38.5 22q210 33 426 33t426 -33zM336 347q88 0 150.5 62.5t62.5 150.5t-62.5 150.5t-150.5 62.5t-150.5 -62.5t-62.5 -150.5t62.5 -150.5t150.5 -62.5zM768 328q38 26 38 72q0 36 -25 61t-61 25t-61 -25t-25 -61q0 -46 38 -72v-72h96
v72z" />
<glyph unicode="&#xe541;" horiz-adv-x="960" d="M906 895q23 -4 38.5 -22t15.5 -42v-639q0 -26 -19 -45t-45 -19h-32v-64q0 -14 -9 -23t-23 -9h-192q-14 0 -23 9t-9 23v64h-256v-64q0 -14 -9 -23t-23 -9h-192q-14 0 -23 9t-9 23v64h-32q-26 0 -45 19t-19 45v639q0 24 15.5 42t38.5 22q210 33 426 33q214 0 426 -33z
M320 348l-43 239q45 23 45 74q0 34 -24 58t-58 24t-58 -24t-24 -58q0 -51 45 -73l-43 -240q-3 -15 0 -30q6 -33 33.5 -52t61.5 -13q33 6 52 33.5t13 61.5zM544 488q-30 0 -51 -21t-21 -51t21 -51t51 -21t51 21t21 51t-21 51t-51 21zM472 608q0 -30 21 -51t51 -21t51 21
t21 51t-21 51t-51 21t-51 -21t-21 -51zM736 488q-30 0 -51 -21t-21 -51t21 -51t51 -21t51 21t21 51t-21 51t-51 21zM664 608q0 -30 21 -51t51 -21t51 21t21 51t-21 51t-51 21t-51 -21t-21 -51z" />
<glyph unicode="&#xe542;" horiz-adv-x="960" d="M960 640q0 -26 -19 -45t-45 -19h-21q56 -278 83 -402q6 -27 -9 -49q-15 -23 -43 -28q-212 -33 -426 -33q-216 0 -426 33q-28 5 -43 28q-15 21 -10 49q27 123 84 402h-21q-26 0 -45 19t-19 45v159q0 24 15.5 42t38.5 21q207 34 426 34q218 0 426 -34q23 -3 38.5 -21
t15.5 -42v-159zM640 230q0 49 43.5 84.5t106.5 37.5q-38 181 -75 374q-123 11 -235 11t-235 -11q-37 -193 -75 -374q63 -2 106.5 -37.5t43.5 -84.5q0 -18 -6 -33q83 -6 166 -6q82 0 165 6q-5 17 -5 33zM480 640q66 0 113 -33t47 -79t-47 -79t-113 -33t-113 33t-47 79t47 79
t113 33z" />
<glyph unicode="&#xe543;" horiz-adv-x="960" d="M480 544q-113 0 -209 25.5t-151.5 70t-55.5 96.5t55.5 96.5t151.5 70t209 25.5q172 0 294 -56.5t122 -135.5t-122 -135.5t-294 -56.5zM480 445q114 0 216 27.5t174 73.5q26 -32 26 -66q0 -79 -122 -135.5t-294 -56.5q-113 0 -209 25.5t-151.5 70t-55.5 96.5q0 34 26 66
q157 -101 390 -101zM90 290q157 -101 390 -101q114 0 216 27.5t174 73.5q26 -32 26 -66q0 -79 -122 -135.5t-294 -56.5q-113 0 -209 25.5t-151.5 70t-55.5 96.5q0 34 26 66z" />
<glyph unicode="&#xe544;" horiz-adv-x="960" d="M128 375q44 -5 119 -13l138 -137q-176 6 -331 32q-23 4 -38.5 22t-15.5 41v543q0 24 15.5 42t38.5 22q210 33 426 33q214 0 426 -33q23 -4 38.5 -22t15.5 -42v-543q0 -12 -7 -28l-121 121v345q-182 14 -352 14t-352 -14v-383zM503 631l417 -419q13 -13 8 -31
q-25 -62 -72 -109t-109 -72q-1 0 -4 -0.5t-5 -0.5q-12 0 -22 10l-419 416q-9 9 -9 23v160q0 14 9 23t23 9h160q14 0 23 -9z" />
<glyph unicode="&#xe545;" horiz-adv-x="960" d="M635 735q-88 38 -185 38.5t-191 -38.5q-4 24 -4 33q0 79 56 135t136 56t136 -56t56 -135q0 -16 -4 -33zM948 480q12 -10 12 -24v-111q0 -1 -3 -13l-2 -4q-2 -4 -4.5 -8.5t-7.5 -12t-10.5 -15t-14 -17.5t-18 -19.5t-22.5 -20t-26.5 -20.5t-31.5 -20t-37 -19q-3 -2 -16 -7
l18 -65q6 -26 -7.5 -49t-39.5 -29l-94 -24q-25 -7 -47 6t-30 38l-16 62q-56 -14 -104 -12q-41 0 -72 6q-17 -60 -18 -63q-9 -22 -30.5 -32.5t-44.5 -4.5l-95 25q-26 8 -39 31.5t-6 48.5l29 100q-62 63 -77 148q-42 18 -68 55q-28 42 -25.5 99t32.5 103q15 23 42 29t51 -9
q34 -24 29 -57q50 60 127 94.5t166 34.5q119 0 215 -61l76 140q11 19 34 16q10 -1 17.5 -8.5t8.5 -17.5q29 -173 149 -293zM772 448q0 28 -19.5 47.5t-47.5 19.5t-48 -19.5t-20 -47.5t20 -48t48 -20t47.5 20t19.5 48z" />
<glyph unicode="&#xe546;" horiz-adv-x="960" d="M464 480q-100 0 -170 70t-70 170q0 99 70 169.5t170 70.5q99 0 169.5 -70.5t70.5 -169.5q0 -100 -70.5 -170t-169.5 -70zM956 382q20 -17 21 -43.5t-17 -46.5q-16 -18 -40.5 -43t-79 -72t-107.5 -83.5t-120 -65t-122 -28.5q-186 0 -491 144v240h416q26 0 45 -19t19 -45
t-19 -45t-45 -19h-223l243 -32h12q37 0 68 24t35 59q5 43 -22 77q49 41 78 63q21 17 47.5 14.5t42.5 -22.5q17 -20 15 -45q9 7 25 21q20 17 46.5 15.5t43.5 -21.5q18 -21 14 -56q4 5 24 25q18 20 44.5 21t46.5 -17z" />
<glyph unicode="&#xe551;" horiz-adv-x="960" d="M818 926q34 -6 56 -32.5t22 -61.5v-704q0 -35 -22 -61.5t-56 -32.5q-169 -32 -338 -32t-338 32q-34 6 -56 32.5t-22 61.5v704q0 35 22 61.5t56 32.5q161 32 338 32t338 -32zM288 296q-30 0 -51 -21t-21 -51t21 -51t51 -21t51 21t21 51t-21 51t-51 21zM216 416
q0 -30 21 -51t51 -21t51 21t21 51t-21 51t-51 21t-51 -21t-21 -51zM408 224q0 -30 21 -51t51 -21t51 21t21 51t-21 51t-51 21t-51 -21t-21 -51zM600 224q0 -30 21 -51t51 -21t51 21t21 51t-21 51t-51 21t-51 -21t-21 -51zM600 416q0 -30 21 -51t51 -21t51 21t21 51t-21 51
t-51 21t-51 -21t-21 -51zM408 416q0 -30 21 -51t51 -21t51 21t21 51t-21 51t-51 21t-51 -21t-21 -51zM736 608v147q0 12 -8 20.5t-20 10.5q-109 16 -228 16q-118 0 -229 -16q-11 -2 -19 -10.5t-8 -20.5v-147q0 -14 9 -23t23 -9h448q14 0 23 9t9 23z" />
<glyph unicode="&#xe570;" horiz-adv-x="960" d="M448 428l-425 130q-13 4 -19.5 15.5t-2.5 23.5q41 146 156 238.5t259 92.5q12 0 21.5 -10t10.5 -22v-468zM544 830q161 -14 272.5 -133t111.5 -281q0 -172 -122 -294t-294 -122q-94 0 -175 37.5t-134 99t-81.5 139.5t-25.5 159l387 -115q23 -7 42 8.5t19 37.5v464z" />
<glyph unicode="&#xe571;" horiz-adv-x="960" d="M430 512h-428q18 176 150.5 296t311.5 120q159 0 284 -98zM830 748q98 -125 98 -284q0 -179 -120 -311.5t-296 -150.5v430zM416 2q-164 17 -280.5 133.5t-133.5 280.5h414v-414z" />
<glyph unicode="&#xe572;" horiz-adv-x="960" d="M916 892q19 -1 31.5 -15t12.5 -33v-796q0 -20 -14 -34t-34 -14h-160q-20 0 -34 14t-14 34v796q0 19 12.5 32.5t30.5 15.5q37 4 85 4q47 0 84 -4zM564 668q19 -1 31.5 -15t12.5 -33v-572q0 -20 -14 -34t-34 -14h-160q-20 0 -34 14t-14 34v572q0 19 12.5 32.5t30.5 15.5
q37 4 85 4q47 0 84 -4zM212 444q19 -1 31.5 -15t12.5 -33v-348q0 -20 -14 -34t-34 -14h-160q-20 0 -34 14t-14 34v348q0 19 12.5 32.5t30.5 15.5q37 4 85 4q47 0 84 -4z" />
<glyph unicode="&#xe573;" horiz-adv-x="960" d="M43 892q37 4 85 4q47 0 84 -4q19 -1 31.5 -15t12.5 -33v-796q0 -20 -14 -34t-34 -14h-160q-20 0 -34 14t-14 34v796q0 19 12.5 32.5t30.5 15.5zM395 668q37 4 85 4q47 0 84 -4q19 -1 31.5 -15t12.5 -33v-572q0 -20 -14 -34t-34 -14h-160q-20 0 -34 14t-14 34v572
q0 19 12.5 32.5t30.5 15.5zM747 444q37 4 85 4q47 0 84 -4q19 -1 31.5 -15t12.5 -33v-348q0 -20 -14 -34t-34 -14h-160q-20 0 -34 14t-14 34v348q0 19 12.5 32.5t30.5 15.5z" />
<glyph unicode="&#xe574;" horiz-adv-x="960" d="M892 212q4 -37 4 -84q0 -48 -4 -85q-2 -18 -15.5 -30.5t-32.5 -12.5h-796q-20 0 -34 14t-14 34v160q0 20 14 34t34 14h796q19 0 33 -12.5t15 -31.5zM48 352q-20 0 -34 14t-14 34v160q0 20 14 34t34 14h572q19 0 33 -12.5t15 -31.5q4 -37 4 -84q0 -48 -4 -85
q-2 -18 -15.5 -30.5t-32.5 -12.5h-572zM48 704q-20 0 -34 14t-14 34v160q0 20 14 34t34 14h348q19 0 33 -12.5t15 -31.5q4 -37 4 -84q0 -48 -4 -85q-2 -18 -15.5 -30.5t-32.5 -12.5h-348z" />
<glyph unicode="&#xe575;" horiz-adv-x="960" d="M538 412q16 -2 27 -15.5t11 -32.5v-316q0 -20 -12.5 -34t-29.5 -14h-140q-17 0 -29.5 14t-12.5 34v316q0 19 11 33t27 15q32 4 74 4q41 0 74 -4zM858 572q16 -2 27 -15.5t11 -32.5v-476q0 -20 -12.5 -34t-29.5 -14h-140q-17 0 -29.5 14t-12.5 34v476q0 19 11 33t27 15
q32 4 74 4q41 0 74 -4zM218 316q16 -2 27 -15.5t11 -32.5v-220q0 -20 -12.5 -34t-29.5 -14h-140q-17 0 -29.5 14t-12.5 34v220q0 19 11 33t27 15q32 4 74 4q41 0 74 -4zM519 544q-20 -15 -44.5 -12.5t-41.5 20.5l-115 126l-96 -98q2 -12 2 -20q0 -46 -33 -79t-79 -33t-79 33
t-33 79t33 79t79 33q5 0 19 -2l143 143q21 19 47 19q28 -2 46 -21l121 -130l216 163v4q0 46 33 79t79 33t79 -33t33 -79t-33 -79t-79 -33q-19 0 -34 6z" />
<glyph unicode="&#xe576;" horiz-adv-x="960" d="M448 592l-110 64l80 140q-2 14 -2 20q0 46 33 79t79 33t79 -33t33 -79q0 -1 -0.5 -3t-0.5 -3l176 -143q18 5 33 5q46 0 79 -33t33 -79t-33 -79t-79 -33t-79 33t-33 79q0 4 1 6l-176 143q-18 -5 -33 -5q-2 0 -7 0.5t-8 0.5zM848 96q-42 0 -73 27.5t-37 68.5l-573 334
q-25 -14 -53 -14q-46 0 -79 33t-33 79t33 79t79 33q42 0 73 -27.5t37 -68.5l573 -334q25 14 53 14q46 0 79 -33t33 -79t-33 -79t-79 -33zM112 32q-46 0 -79 33t-33 79t31.5 78t77.5 34l94 164l110 -64l-97 -171q8 -21 8 -41q0 -46 -33 -79t-79 -33z" />
<glyph unicode="&#xe578;" horiz-adv-x="960" d="M709 832q-26 0 -45 19t-19 45t19 45t45 19q27 0 45.5 -19t18.5 -45t-18.5 -45t-45.5 -19zM549 704q-26 0 -45 19t-19 45t19 45t45 19q27 0 45.5 -19t18.5 -45t-18.5 -45t-45.5 -19zM357 704q-26 0 -45 19t-19 45t19 45t45 19q27 0 45.5 -19t18.5 -45t-18.5 -45t-45.5 -19
zM958 767q12 -24 4.5 -49t-30.5 -38l-843 -459q-16 -8 -30 -8q-38 0 -57 34q-13 23 -5 48.5t31 37.5l843 459q23 13 48.5 5.5t38.5 -30.5zM133 640q-26 0 -45 19t-19 45t19 45t45 19q27 0 45.5 -19t18.5 -45t-18.5 -45t-45.5 -19zM293 544q-26 0 -45 19t-19 45t19 45t45 19
q27 0 45.5 -19t18.5 -45t-18.5 -45t-45.5 -19zM901 480q-26 0 -45 19t-19 45t19 45t45 19q27 0 45.5 -19t18.5 -45t-18.5 -45t-45.5 -19zM101 448q-26 0 -45 19t-19 45t19 45t45 19q27 0 45.5 -19t18.5 -45t-18.5 -45t-45.5 -19zM741 384q-26 0 -45 19t-19 45t19 45t45 19
q27 0 45.5 -19t18.5 -45t-18.5 -45t-45.5 -19zM581 288q-26 0 -45 19t-19 45t19 45t45 19q27 0 45.5 -19t18.5 -45t-18.5 -45t-45.5 -19zM773 192q-26 0 -45 19t-19 45t19 45t45 19q27 0 45.5 -19t18.5 -45t-18.5 -45t-45.5 -19zM421 160q-26 0 -45 19t-19 45t19 45t45 19
q27 0 45.5 -19t18.5 -45t-18.5 -45t-45.5 -19zM581 96q-26 0 -45 19t-19 45t19 45t45 19q27 0 45.5 -19t18.5 -45t-18.5 -45t-45.5 -19zM229 96q-26 0 -45 19t-19 45t19 45t45 19q27 0 45.5 -19t18.5 -45t-18.5 -45t-45.5 -19z" />
<glyph unicode="&#xe579;" horiz-adv-x="960" d="M906 862q23 -4 38.5 -21.5t15.5 -41.5v-638q0 -24 -15.5 -42t-38.5 -22q-212 -33 -426 -33q-216 0 -426 33q-23 4 -38.5 22t-15.5 42v638q0 24 15.5 41.5t38.5 21.5q207 34 426 34t426 -34zM124 276q-8 -16 -4 -33t19 -27q17 -11 35.5 -7.5t29.5 19.5l129 188
q119 -127 122 -129q30 -24 54 0q1 0 28.5 33t70.5 83.5t74 84.5l71 -65q7 -7 17 -7q3 0 7 2q14 4 16 18q10 50 11.5 111.5t-0.5 94.5t-4 41q-2 19 -21 21q-10 5 -105 5q-80 0 -142 -12q-14 -3 -19 -17q-3 -13 6 -24l71 -76l-113 -120q-132 121 -136 124q-13 11 -33 8
t-27 -17z" />
<glyph unicode="&#xe582;" horiz-adv-x="960" d="M916 840q19 -1 31.5 -14.5t12.5 -32.5v-626q0 -19 -12.5 -32.5t-31.5 -14.5q-217 -18 -436 -18q-218 0 -436 18q-19 1 -31.5 14.5t-12.5 32.5v626q0 19 12.5 32.5t31.5 14.5q217 18 436 18t436 -18zM96 544v-128h192v128h-192zM384 544v-128h480v128h-480zM864 736h-768
v-96h768v96zM96 320v-96h192v96h-192zM384 224h480v96h-480v-96z" />
<glyph unicode="&#xe5d8;" horiz-adv-x="960" d="M845 918q19 -163 19 -294q0 -130 -19 -293q-2 -18 -16 -30.5t-32 -12.5h-635q-18 0 -32 12.5t-16 30.5q-18 153 -18 293t18 294q2 18 16 30t32 12h635q18 0 32 -12t16 -30zM864 224q24 0 44 -20t20 -44v-128q0 -14 -9 -23t-23 -9h-128q-14 0 -23 9t-9 23v64h-160v-64
q0 -14 -9 -23t-23 -9h-128q-14 0 -23 9t-9 23v64h-160v-64q0 -14 -9 -23t-23 -9h-128q-14 0 -23 9t-9 23v128q0 24 19.5 44t44.5 20h768z" />
<glyph unicode="&#xe5e0;" horiz-adv-x="960" d="M640 576h197q-31 117 -80 192h-117v-192zM321 356q-57 0 -101.5 -38t-55.5 -94h-20q-20 0 -34 14t-14 34v184l203 16q33 2 48 35l-281 25q-13 1 -22.5 11t-10.5 24v2q0 6 4 16q9 17 27 19l32 2l233 17q16 1 32.5 12t23.5 25v1l-347 31q-13 1 -22.5 11t-10.5 24v4
q1 13 9.5 22.5t21.5 10.5l60 4v48q0 20 14 34t34 14h637q22 0 36 -17q7 -8 21 -29t40 -76t46 -118.5t30.5 -160t0.5 -196.5q-2 -18 -15.5 -30.5t-32.5 -12.5h-13q-11 56 -55.5 94t-101.5 38t-101.5 -38t-55.5 -94h-102q-11 56 -55.5 94t-101.5 38zM736 96q-40 0 -68 28
t-28 68t28 68t68 28t68 -28t28 -68t-28 -68t-68 -28zM320 96q-40 0 -68 28t-28 68t28 68t68 28t68 -28t28 -68t-28 -68t-68 -28z" />
<glyph unicode="&#xe5e1;" horiz-adv-x="960" d="M288 323q-67 0 -117 -48.5t-50 -114.5h-9q-20 0 -34 14t-14 34v250l240 19q16 2 31 13.5t20 26.5v1q2 5 2 13l-292 26q-33 5 -33 38q0 14 9 23.5t22 10.5v1l259 19q16 2 32 12.5t23 24.5q5 10 2 21l-346 31q-16 1 -24.5 13.5t-8.5 23.5q0 14 9 23.5t22 10.5l33 3v36
q0 20 14 34t34 14h544q20 0 34 -14t14 -34v-112h112q20 0 34 -14t14 -34v-176l77 -66q19 -14 19 -38v-200q0 -20 -14 -34t-34 -14h-10q0 66 -50 114.5t-116 48.5q-67 0 -117 -48.5t-50 -114.5h-115q0 66 -50 114.5t-116 48.5zM736 256q40 0 68 -28t28 -68t-28 -68t-68 -28
t-68 28t-28 68t28 68t68 28zM288 256q40 0 68 -28t28 -68t-28 -68t-68 -28t-68 28t-28 68t28 68t68 28z" />
<glyph unicode="&#xe5e2;" horiz-adv-x="960" d="M932 448q19 0 25 -25q11 -38 -27 -69q-42 -34 -130 -34h-128q-14 0 -23 9t-9 23v576q0 14 9 23t23 9h64q14 0 23 -9t9 -23v-480h164zM511 96h-225q-5 -41 -36.5 -68.5t-73.5 -27.5t-73.5 27.5t-36.5 68.5q-23 0 -38 6t-20 17.5t-6.5 19.5t-1.5 21v256q0 26 19 45t45 19
h32v320q0 26 19 45t45 19h210q26 0 45 -19q8 -8 20 -21.5t39 -53t47.5 -81.5t37.5 -105t17 -125v-188q-68 -61 -68 -143q0 -2 3 -32zM224 480h223q-9 134 -106 256h-117v-256zM704 0q-53 0 -90.5 37.5t-37.5 90.5t37.5 90.5t90.5 37.5t90.5 -37.5t37.5 -90.5t-37.5 -90.5
t-90.5 -37.5z" />
<glyph unicode="&#xe5e3;" horiz-adv-x="960" d="M384 494q-161 -68 -288 -77v191h-64q-14 0 -23 9t-9 23v64q0 14 9 23t23 9h64v48q0 20 14 34t34 14h192q20 0 34 -14t14 -34v-48h64q14 0 23 -9t9 -23v-64q0 -14 -9 -23t-23 -9h-64v-114zM920 0h-616q-91 0 -145.5 15.5t-88.5 51.5q-24 25 -39.5 60t-21.5 66t-7.5 61
t-1 46t1.5 19q1 12 10.5 19.5t20.5 7.5q127 0 233 35t326 136q123 58 237 58q124 0 127 -83q0 -42 -49 -123q-72 -121 -87 -183q6 -2 19.5 -6t19.5 -6q43 -14 67 -43.5t28 -55.5t0 -50q-2 -11 -12 -18t-22 -7z" />
<glyph unicode="&#xe5e4;" horiz-adv-x="960" d="M751 315q27 -9 40.5 -35t5.5 -53q-26 -95 -88 -150q-68 -62 -161 -73q-97 -10 -177 35q-86 50 -124 145q-35 92 -6 189q13 42 31 70.5t43.5 58t41.5 57.5q5 9 7 25q1 6 1 24h-77q-13 0 -26.5 8.5t-19.5 20.5l-77 166q-13 29 3 56l39 74q18 27 49 27h448q32 0 48 -27
l40 -74q16 -27 2 -56l-76 -166q-6 -12 -19.5 -20.5t-26.5 -8.5h-97q-4 -95 -49 -159q-18 -25 -50 -60q-43 -40 -57 -74q-14 -42 -2 -73t41 -51q32 -22 75 -20t76 27q8 6 15 13t10.5 11.5t8 12.5t6 11t5.5 13t5 12q10 28 37 41.5t55 2.5z" />
<glyph unicode="&#xe5e5;" horiz-adv-x="960" d="M942 111q6 -27 -9 -50q-16 -23 -43 -28q-9 -2 -62.5 -9.5t-155 -15.5t-191.5 -8t-192 8t-156 15.5t-63 9.5q-29 5 -43 28q-15 23 -9 50l128 512q5 22 22.5 35.5t39.5 13.5h80q-16 40 -16 80q0 86 61 147t147 61t147 -61t61 -147q0 -40 -16 -80h80q22 0 39.5 -13.5
t22.5 -35.5zM480 664q36 0 62 25.5t26 62.5q0 36 -26 62t-62 26q-37 0 -62.5 -26t-25.5 -62q0 -37 25.5 -62.5t62.5 -25.5z" />
<glyph unicode="&#xe5e6;" horiz-adv-x="960" d="M128 512q-15 0 -28 9t-17 24q-19 47 -19 191t19 191q4 15 17 24t28 9h672q17 0 30 -11t17 -28l2 -11q2 -10 4.5 -27.5t4.5 -39.5t4 -51t2 -56t-2 -56t-4 -51t-4.5 -39.5t-4.5 -27.5l-2 -11q-4 -17 -17 -28t-30 -11h-672zM672 608h64v256h-64v-256zM512 608h64v256h-64
v-256zM352 608h64v256h-64v-256zM192 608h64v256h-64v-256zM800 0h-672q-15 0 -28 9t-17 24q-19 47 -19 191t19 191q4 15 17 24t28 9h672q17 0 30 -11t17 -28l2 -11q2 -10 4.5 -27.5t4.5 -39.5t4 -51t2 -56t-2 -56t-4 -51t-4.5 -39.5t-4.5 -27.5l-2 -11q-4 -17 -17 -28
t-30 -11zM192 96h64v256h-64v-256zM352 96h64v256h-64v-256zM512 96h64v256h-64v-256zM672 96h64v256h-64v-256z" />
<glyph unicode="&#xe5e7;" horiz-adv-x="960" d="M754 87q18 -13 13 -32q-3 -20 -23 -25q-5 -2 -35.5 -8.5t-99.5 -13.5t-144 -7q-74 0 -144 7t-100.5 13.5t-36.5 8.5q-19 5 -24 25q-3 21 14 32q6 4 29 16t75.5 30.5t105.5 27.5v192q-145 23 -211 107q-35 45 -53.5 106.5t-21.5 112.5t1.5 104t9 75.5t7.5 34.5
q8 29 32.5 48t54.5 19h272l-179 -288h188l-57 -223l282 319h-208l113 192h111q30 0 54.5 -19t32.5 -48q3 -12 7.5 -34.5t9 -75.5t1.5 -104t-21.5 -112.5t-53.5 -106.5q-66 -84 -211 -107v-192q53 -9 105.5 -27.5t75.5 -30.5t29 -16z" />
<glyph unicode="&#xe5e8;" horiz-adv-x="960" d="M800 601v-345h-160v345l-88 -24q-22 -5 -34 14q-12 20 1 38q48 65 107.5 126t77.5 72q16 10 32 0q18 -11 78 -72.5t108 -125.5q13 -18 1 -38q-10 -15 -27 -15q-2 0 -4 0.5t-3 0.5zM320 601v-345h-160v345l-88 -24q-22 -5 -34 14q-13 18 1 38q48 65 107.5 126t77.5 72
q16 10 32 0q18 -11 78 -72.5t108 -125.5q13 -18 1 -38q-10 -15 -27 -15q-2 0 -4 0.5t-4 0.5zM864 0h-768q-26 0 -45 19t-19 45v64q0 26 19 45t45 19h768q26 0 45 -19t19 -45v-64q0 -26 -19 -45t-45 -19z" />
<glyph unicode="&#xe600;" horiz-adv-x="960" d="M633 488l28 -104h-362l28 104q5 12 17 14q62 8 137 8q15 0 30.5 -0.5t28.5 -1t25 -1.5t21 -2t15.5 -1.5t10.5 -1.5h4q4 -1 10 -5.5t7 -8.5zM916 549q12 -17 12 -37v-448q0 -26 -19 -45t-45 -19h-96v93q41 13 53 46q17 49 17 98q0 48 -17 97q-7 17 -18 28q-17 16 -42 19
l-36 137q-8 32 -35.5 56t-60.5 29l-9 1q-8 1 -21.5 2.5t-31 2.5t-40.5 2t-46 1t-46.5 -1t-41 -2t-31.5 -2.5t-22 -2.5l-9 -1q-33 -5 -60.5 -29t-35.5 -56l-36 -137q-27 -4 -42 -19q-11 -11 -18 -28q-17 -45 -17 -98q0 -52 17 -97q12 -33 53 -46v-93h-96q-26 0 -45 19t-19 45
v448q0 20 12 37q47 65 105.5 127.5t105.5 102.5t95 75t68 48t30 18q32 18 64 0q10 -5 30 -18t68 -48t95 -75t105.5 -102.5t105.5 -127.5zM320 0v96h320v-96h-320zM256 288q26 0 45 -19t19 -45t-19 -45t-45 -19t-45 19t-19 45t19 45t45 19zM704 288q26 0 45 -19t19 -45
t-19 -45t-45 -19t-45 19t-19 45t19 45t45 19z" />
<glyph unicode="&#xe602;" horiz-adv-x="960" d="M661 224q25 0 32 -24q11 -46 11 -88t-11 -88q-7 -24 -32 -24h-363q-24 0 -31 24q-11 46 -11 88t11 88q7 24 31 24h363zM661 512q25 0 32 -24q11 -46 11 -88t-11 -88q-7 -24 -32 -24h-363q-24 0 -31 24q-11 41 -11 88q0 42 11 88q7 24 31 24h363zM896 667q32 -18 32 -55
v-612h-128v571l-320 187l-320 -187v-571h-128v612q0 37 32 55l383 224q33 19 65 0z" />
<glyph unicode="&#xe610;" horiz-adv-x="960" d="M896 960q26 0 45 -19t19 -45v-832q0 -26 -19 -45t-45 -19h-832q-26 0 -45 19t-19 45v608q0 26 19 45t45 19h256v160q0 26 19 45t45 19h512zM352 128v320h320v-96h-224v-224h384v704h-384v-224h-320v-480h224z" />
<glyph unicode="&#xe611;" horiz-adv-x="960" d="M906 719q22 -124 22 -239q0 -120 -21 -238q-3 -18 -19 -24q-50 -21 -89.5 -59.5t-61.5 -87.5q-7 -15 -23 -18q-111 -20 -234 -20q-116 0 -236 20q-16 3 -24 19q-46 101 -148 145q-16 8 -19 24q-21 120 -21 240q0 123 22 239q3 16 18 24q103 44 148 144q6 16 23 19
q122 20 237 20q123 0 234 -20q16 -3 24 -18q45 -101 149 -146q16 -6 19 -24zM672 256v109h-165v1l47 37q97 78 97 183q0 70 -47 111.5t-129 41.5q-96 0 -163 -50l35 -94q55 39 102 39q35 0 53 -16t18 -43q-1 -36 -31 -77.5t-102 -103.5l-67 -58v-80h352z" />
<glyph unicode="&#xe612;" horiz-adv-x="960" d="M950 513q10 -17 10 -33v-384q0 -26 -19 -45t-45 -19h-426q98 36 160 124.5t62 196.5q0 140 -99.5 240t-239.5 100q-48 0 -95 -14q57 69 120.5 131.5t91.5 85.5t40 32q35 23 70 0q7 -5 26 -20t61 -53t85 -83t97.5 -115t100.5 -144zM352 188q67 0 115.5 48.5t48.5 115.5
t-48.5 115.5t-115.5 48.5t-115.5 -48.5t-48.5 -115.5t48.5 -115.5t115.5 -48.5zM72 5q-10 -7 -28 -3.5t-29 14.5t-13.5 29t4.5 29q37 59 123 155q-31 57 -31 123q0 105 74 179t180 74q105 0 179 -74t74 -179t-74 -179.5t-179 -74.5q-65 0 -123 32q-88 -80 -157 -125z" />
<glyph unicode="&#xe613;" horiz-adv-x="960" d="M864 864q26 0 45 -19t19 -45v-32q0 -26 -19 -45t-45 -19h-704v-704h-160v896q0 26 19 45t45 19h32q26 0 45 -19t19 -45v-32h704zM864 96h-576q-26 0 -45 19t-19 45v416q0 26 19 45t45 19h576q26 0 45 -19t19 -45v-416q0 -26 -19 -45t-45 -19zM448 224h256v174l-128 136
l-128 -136v-174z" />
<glyph unicode="&#xe670;" horiz-adv-x="960" d="M887 885q14 -15 5 -46q-33 -115 -82 -234.5t-92 -204t-88 -162.5t-65 -109.5t-30 -44.5q-14 -20 -39 -20q-5 0 -15 2q-33 12 -33 46v336h-336q-36 0 -46 30q-10 33 18 53q10 8 44.5 31t110 67.5t161.5 88.5t205 93t234 82q30 9 48 -8z" />
<glyph unicode="&#xe671;" horiz-adv-x="960" d="M480 960q130 0 240.5 -64.5t175 -175t64.5 -240.5t-64.5 -240.5t-175 -175t-240.5 -64.5t-240.5 64.5t-175 175t-64.5 240.5t64.5 240.5t175 175t240.5 64.5zM268 214q12 0 20 4l294 136q16 7 24 23l136 295q13 29 -10 54q-11 11 -28.5 16t-31.5 0l-295 -136
q-16 -8 -23 -24l-136 -294q-5 -14 0 -31.5t16 -28.5q14 -14 34 -14zM480 416q-26 0 -45 19t-19 45t19 45t45 19t45 -19t19 -45t-19 -45t-45 -19z" />
<glyph unicode="&#xe672;" horiz-adv-x="960" d="M934 851q26 -18 26 -51q0 -31 -26 -51l-129 -96q-16 -13 -35 -13h-194v-96h-192v96h-256q-26 0 -45 21.5t-19 48.5v186q0 26 19 45t45 19h642q17 0 35 -13zM384 0v160h-194q-19 0 -35 13l-130 96q-25 19 -25 51q0 33 26 51l129 96q18 13 35 13h642q26 0 45 -21.5
t19 -48.5v-186q0 -26 -19 -45t-45 -19h-256v-160h-192z" />
<glyph unicode="&#xe673;" horiz-adv-x="960" d="M864 352v364l-158 68q-70 -30 -92 -48q-43 -36 -43.5 -71t45.5 -91l8 -8t10.5 -6.5t10.5 -4.5t12.5 -4.5t11.5 -3t12.5 -2.5t10.5 -2q47 -9 60.5 -24.5t9.5 -67.5q-1 -15 5.5 -52t12.5 -51q2 -6 14 -16t25 -11q15 -2 45 31zM539 319q35 29 35 64q0 19 -10.5 40t-21.5 29
q-18 11 -77 17q-31 19 -47 19q-4 0 -24 -4.5t-32 -0.5q-8 4 -18 0.5t-24 -3.5q-12 0 -18 4t-7.5 9t-3.5 19q-1 10 -7.5 16.5t-17 12t-12.5 7.5q-15 12 -30 -4q-2 -2 -4 -6t-5.5 -3t-22.5 9q-30 13 -8 35q12 11 35 19q20 10 55 7.5t46 -25.5q5 -13 20 -3q24 18 14 62l-2 6
q-4 15 -22 36t-26 36l-208 90v-315q57 -17 104 -17q52 0 120 -51q-1 -5 -3 -12.5t-4 -28t0.5 -36.5t14.5 -31t33 -18q13 -2 22 -10.5t11 -15.5l3 -8q6 -47 12 -62q0 -1 1.5 -4.5t2.5 -5t2.5 -5t3 -4.5t3.5 -3t4 -2h5t6 2t7 5t8 8q33 36 51 72q23 44 36 54zM931 792
q29 -12 29 -44v-667q0 -26 -22 -40q-22 -13 -45 -4l-287 123l-227 -122q-11 -6 -22 -6t-20 4l-308 133q-29 13 -29 44v667q0 26 22 40q20 14 45 4l287 -124l227 122q8 5 16 5l1 1q14 2 24 -4z" />
<glyph unicode="&#xe674;" horiz-adv-x="960" d="M938 578q18 -96 18 -226q0 -132 -18 -227q-8 -38 -42 -70t-73 -36q-164 -19 -343 -19t-343 19q-39 5 -73.5 36.5t-41.5 69.5q-18 95 -18 227q0 130 18 226q7 38 41.5 71.5t73.5 37.5q93 11 214 16q-14 17 -36 43t-37.5 44.5t-20.5 24.5q-33 45 -33 113q0 14 9 23t23 9
h448q14 0 23 -9t9 -23q0 -68 -33 -113q-5 -6 -20.5 -24.5t-37.5 -44.5t-36 -43q121 -5 214 -16q39 -4 73 -37t42 -72zM160 518v-300q0 -10 8 -18t18 -8h38l128 288h96v-96h64v96h96l128 -288h38q10 0 18 8t8 18v300q0 10 -8 18t-18 8h-588q-10 0 -18 -8t-8 -18zM448 192h64
v128h-64v-128z" />
<glyph unicode="&#xe680;" horiz-adv-x="960" d="M480 960q130 0 240.5 -64.5t175 -175t64.5 -240.5t-64.5 -240.5t-175 -175t-240.5 -64.5t-240.5 64.5t-175 175t-64.5 240.5t64.5 240.5t175 175t240.5 64.5zM480 122q148 0 253 105t105 253t-105 253t-253 105t-253 -105t-105 -253t105 -253t253 -105zM448 224
q-6 0 -9 1q-23 7 -23 31v160h-160q-24 0 -31 23q-7 22 13 36q211 132 393 195q17 6 32 -7q13 -15 7 -32q-63 -182 -195 -393q-9 -14 -27 -14z" />
<glyph unicode="&#xe681;" horiz-adv-x="960" d="M480 960q130 0 240.5 -64.5t175 -175t64.5 -240.5t-64.5 -240.5t-175 -175t-240.5 -64.5t-240.5 64.5t-175 175t-64.5 240.5t64.5 240.5t175 175t240.5 64.5zM480 121q148 0 253 105t105 254q0 148 -105 253t-253 105t-253 -105t-105 -253q0 -149 105 -254t253 -105z
M660 666q3 -1 7 -7q8 -16 -32 -229q-2 -11 -14 -13q-1 -1 -3 -1q-10 0 -14 9l-41 64l-84 -86q29 -70 -16 -118q-24 -26 -62 -29h-2q-9 0 -12 7q-5 9 -1 16q11 19 5.5 43.5t-24.5 42.5q-18 18 -43 24t-43 -4q-9 -3 -16 1t-7 14q3 31 27 60q24 26 64 28t58 -10l83 82l-64 41
q-11 7 -8 18q2 11 13 14q184 35 218 35q8 0 11 -2z" />
<glyph unicode="&#xe6d0;" horiz-adv-x="960" d="M480 960q145 0 248.5 -108t103.5 -260q0 -77 -31 -163.5t-75 -154.5t-88 -125.5t-75 -88.5l-31 -31q-33 -29 -54.5 -28.5t-52.5 28.5q-12 12 -32 33t-71.5 85t-90.5 128t-71 152t-32 165q0 152 103.5 260t248.5 108zM480 442q69 0 118 48.5t49 117.5t-49 118t-118 49
t-117.5 -49t-48.5 -118t48.5 -117.5t117.5 -48.5z" />
<glyph unicode="&#xe6d1;" horiz-adv-x="960" d="M449 355q-21 -19 -35 -18.5t-33 18.5q-8 8 -20.5 21.5t-45 55t-57.5 83t-45.5 98.5t-20.5 108q0 99 65 169t158 70t159 -70t66 -169q0 -51 -19.5 -107t-48 -100.5t-56.5 -81.5t-48 -57zM416 635q42 0 71.5 29.5t29.5 71.5t-29.5 71.5t-71.5 29.5t-71.5 -29.5t-29.5 -71.5
t29.5 -71.5t71.5 -29.5zM946 825q14 -9 14 -26v-640q0 -22 -20 -30l-320 -127q-14 -5 -26 1l-244 122l-306 -123q-8 -2 -12 -2q-10 0 -18 5q-14 9 -14 27v640q0 22 20 30l89 34q0 -2 -0.5 -7t-0.5 -7q0 -61 22.5 -127.5t52 -116t64.5 -95t54 -66t27 -27.5q41 -41 87 -41
t87 41q8 7 27 27.5t54.5 66.5t65 96t52 116.5t22.5 127.5q0 18 -1 27l194 77q16 6 30 -3z" />
<glyph unicode="&#xe6d2;" horiz-adv-x="960" d="M769 355q-21 -19 -35 -18.5t-33 18.5q-8 8 -20.5 21.5t-45 55t-57.5 83t-45.5 98.5t-20.5 108q0 99 65 169t158 70t159 -70t66 -169q0 -51 -19.5 -107t-48 -100.5t-56.5 -81.5t-48 -57zM432 0q-179 0 -305.5 126.5t-126.5 305.5t126.5 305.5t305.5 126.5q11 0 31 -2
q-23 -49 -29 -105q-26 -21 -51 -95t-30 -182h154q52 -90 123 -167q-10 -99 -42 -179q81 43 129 122q12 -2 18 -2q46 0 87 41q20 21 28 29q-36 -141 -152.5 -232.5t-265.5 -91.5zM736 635q42 0 71.5 29.5t29.5 71.5t-29.5 71.5t-71.5 29.5t-71.5 -29.5t-29.5 -71.5
t29.5 -71.5t71.5 -29.5zM257 480q8 161 57 266q-85 -32 -143 -103t-71 -163h157zM447 98q8 0 18.5 11.5t22.5 36t22.5 57.5t18.5 80.5t11 100.5h-187q4 -86 22.5 -155t38 -100t33.5 -31zM100 384q13 -91 70.5 -162.5t142.5 -103.5q-48 103 -56 266h-157z" />
<glyph unicode="&#xe710;" horiz-adv-x="960" d="M830 256q14 0 24 -9t9 -22q-7 -98 -20 -169q-2 -13 -13 -24t-24 -12q-168 -20 -326 -20t-324 20q-13 1 -24 12t-13 24q-23 136 -23 270q0 135 23 271q2 13 13 23.5t24 12.5q93 11 196 16q6 0 14.5 2t22.5 15t12 35q-1 14 -14 31.5t-27.5 31.5t-26.5 37.5t-12 49.5
q0 46 43.5 77.5t115.5 31.5t115 -31.5t43 -77.5q0 -26 -12 -49.5t-26 -37.5t-27 -31.5t-14 -31.5q-2 -22 10 -35t25 -15l13 -2q107 -5 199 -16q13 -2 24 -12.5t13 -23.5q15 -83 21 -179q1 -13 -9 -22.5t-24 -9.5q-3 0 -9 0.5t-9 0.5q-36 0 -59 25q-43 43 -88 44
q-54 1 -92.5 -40t-38.5 -96q0 -54 38 -95.5t92 -40.5q20 1 42 12.5t34 22.5l12 11q27 25 59 25q6 1 18 1z" />
<glyph unicode="&#xe720;" horiz-adv-x="960" d="M960 479q0 -13 -10.5 -22t-24.5 -9h-272q-16 150 -118 288h390q13 0 24 -11t11 -24v-222zM187 218q-7 -87 64 -186h-2q-82 0 -145.5 44.5t-89.5 131.5q-15 53 -13.5 93.5t13 79.5t31 70t41.5 65t44 64.5t37.5 68.5t23 77.5t0.5 91.5t-30 110q90 -41 161.5 -93t118 -107
t77.5 -113t43.5 -116t11 -111t-15.5 -102q-29 -99 -94.5 -166.5t-149.5 -87.5q2 3 21 30.5t27 39.5t23.5 41t22.5 49.5t12 49t2 54.5q-4 37 -15.5 70.5t-25 55.5t-27 39t-22.5 25l-9 7q-5 -6 -13.5 -17t-31 -44.5t-40 -65t-32.5 -73t-18 -75.5zM636 270q14 45 18 114h271
q13 0 24 -11t11 -24v-224q0 -12 -10.5 -20.5t-24.5 -8.5h-391q63 44 102 174z" />
<glyph unicode="&#xe7a0;" horiz-adv-x="960" d="M864 608q26 0 45 -19t19 -45v-96q0 -26 -19 -45t-45 -19h-768q-26 0 -45 19t-19 45v96q0 26 19 45t45 19h768zM736 448v96h-96v-96h96zM864 320q26 0 45 -19t19 -45v-96q0 -23 -16 -40t-40 -22q-192 -34 -392 -34t-392 34q-24 5 -40 22t-16 40v96q0 26 19 45t45 19h768z
M736 160v96h-96v-96h96zM875 894q23 -4 38 -22.5t15 -42.5v-93q0 -26 -19 -45t-45 -19h-768q-26 0 -45 19t-19 45v93q0 24 15 42.5t38 22.5q192 34 395 34t395 -34zM736 736v96h-96v-96h96z" />
<glyph unicode="&#xe7b0;" horiz-adv-x="960" d="M800 841q73 -133 160 -329h-960q78 178 160 329l2 4q17 32 51 35q127 13 267 13q138 0 267 -13q34 -3 51 -35zM960 448v-285q0 -23 -15.5 -41t-38.5 -22q-218 -34 -426 -34q-210 0 -426 34q-23 4 -38.5 22t-15.5 41v285h960zM608 256v96h-96v-96h96zM800 256v96h-96v-96
h96z" />
<glyph unicode="&#xe800;" horiz-adv-x="960" d="M906 927q23 -4 38.5 -22t15.5 -42v-541q0 -27 -19 -46.5t-45 -19.5h-101q-46 67 -97 128h134v430q-168 23 -352 23q-185 0 -352 -23v-430h134q-51 -61 -97 -128h-101q-26 0 -45 19.5t-19 46.5v544q0 23 15.5 40t38.5 21q210 33 426 33q214 0 426 -33zM502 472
q173 -173 259 -322q8 -8 8 -20q0 -14 -10 -24t-23 -10h-1h-511q-17 0 -28 18q-9 16 0 31q87 152 262 327q8 8 22 8t22 -8z" />
<glyph unicode="&#xe801;" horiz-adv-x="960" d="M844 856q20 -191 20 -376t-20 -376q-3 -29 -26 -53t-51 -28q-144 -23 -287 -23t-287 23q-28 4 -51 28t-26 53q-20 191 -20 376t20 376q3 28 26 52.5t51 28.5q144 23 287 23t287 -23q28 -4 51 -28.5t26 -52.5zM479 839q-42 0 -72 -30t-30 -72q0 -43 30 -73t72 -30
q43 0 73 30t30 73q0 42 -30 72t-73 30zM480 90q95 0 162.5 67.5t67.5 162.5t-67.5 162.5t-162.5 67.5t-163 -67.5t-68 -162.5t68 -162.5t163 -67.5zM480 443q51 0 87 -36t36 -87t-36 -87t-87 -36t-87 36t-36 87t36 87t87 36z" />
<glyph unicode="&#xe810;" horiz-adv-x="960" d="M480 960q130 0 240.5 -64.5t175 -175t64.5 -240.5t-64.5 -240.5t-175 -175t-240.5 -64.5t-240.5 64.5t-175 175t-64.5 240.5t64.5 240.5t175 175t240.5 64.5zM843 480h42q0 167 -119 286t-286 119v-42q150 0 256.5 -106.5t106.5 -256.5zM747 480h42q0 128 -90.5 218.5
t-218.5 90.5v-42q110 0 188.5 -78.5t78.5 -188.5zM480 281q82 0 140.5 58.5t58.5 140.5t-58.5 140.5t-140.5 58.5t-140.5 -58.5t-58.5 -140.5t58.5 -140.5t140.5 -58.5zM480 544q26 0 45 -19t19 -45t-19 -45t-45 -19t-45 19t-19 45t19 45t45 19z" />
<glyph unicode="&#xe8a0;" horiz-adv-x="960" d="M864 153q0 -20 -14 -35.5t-35 -17.5q-95 -9 -190 0q-21 2 -35 17.5t-14 35.5v622q0 20 14 35.5t35 17.5q95 8 190 0q21 -2 35 -17.5t14 -35.5v-622zM96 775q0 20 14 35.5t35 17.5q95 8 190 0q21 -2 35 -17.5t14 -35.5v-622q0 -20 -14 -35.5t-35 -17.5q-95 -9 -190 0
q-21 2 -35 17.5t-14 35.5v622z" />
<glyph unicode="&#xe8a1;" horiz-adv-x="960" d="M907 715q21 -124 21 -251q0 -126 -21 -250q-9 -53 -47.5 -90t-91.5 -43q-147 -17 -288 -17t-288 17q-53 6 -91.5 43t-47.5 90q-21 125 -21 250q0 126 21 251q9 53 48 90t91 43q147 17 288 17q140 0 288 -17q52 -6 91 -43t48 -90zM667 440q12 9 12 25t-12 25
q-9 9 -42 34.5t-108.5 72t-150.5 77.5q-14 6 -30 -2q-13 -9 -15 -26q-1 -2 -2.5 -26.5t-3.5 -69t-2 -85.5t2 -85.5t3.5 -68.5t2.5 -27q2 -18 15 -25q8 -5 18 -5q4 0 12 2q75 31 150.5 77.5t108.5 72t42 34.5z" />
<glyph unicode="&#xe902;" horiz-adv-x="960" d="M320 800v96h320v-96h-320zM480 64q-110 1 -194 8.5t-127.5 17t-73.5 24.5t-37.5 23t-15.5 19q-31 48 -32 147t20 154l101 329q6 20 23 33t38 13h58l-78 -410q-3 -14 7 -27q9 -11 25 -11h158q0 -47 36.5 -75t91.5 -28t91.5 28t36.5 75h159q13 0 22.5 9.5t9.5 22.5
q0 7 -3 13l-76 403h57q21 0 38 -13t24 -33q61 -199 101 -329q20 -55 19.5 -154.5t-31.5 -146.5q-8 -11 -15.5 -19t-37.5 -23t-73.5 -24.5t-127.5 -17t-194 -8.5zM288 640v96h384v-96h-384zM256 448v128h448v-128h-448z" />
<glyph unicode="&#xe903;" horiz-adv-x="960" d="M829 926q16 -4 25.5 -17t9.5 -29v-560q0 -43 -61 -120t-138 -137.5t-120 -60.5l-19 -1q-13 -1 -46 -1q-180 0 -378 33q-16 4 -27 17t-11 30v800q0 17 10.5 30t27.5 17q198 33 378 33q102 0 189 -8.5t119.5 -15.5t40.5 -10zM224 704h480v64h-480v-64zM224 576h480v64h-480
v-64zM224 448h480v64h-480v-64zM512 96q25 0 44.5 19t19.5 45v96q0 10 11 21t21 11h96q26 0 45 19t19 45h-160q-37 0 -66.5 -29.5t-29.5 -66.5v-160z" />
<glyph unicode="&#xe962;" horiz-adv-x="960" d="M896 864h-640q-24 0 -44 -19t-20 -45t20 -45t44 -19h592q20 0 34 -14t14 -34v-640q0 -20 -14 -34t-34 -14h-592q-59 0 -102 41t-57 110q-36 179 -33 365q3 176 35 310q9 57 54 95.5t103 38.5h592q20 0 34 -14t14 -34v-48zM496 230q22 0 71.5 45.5t79.5 110.5q17 37 18 68
t-12 49t-32 27.5t-41 7.5t-40 -14q-16 -11 -26.5 -29t-13.5 -31l-3 -12q-10 47 -46 72q-30 22 -67 12t-52 -47.5t12 -102.5q30 -65 80 -110.5t72 -45.5z" />
<glyph unicode="&#xe963;" horiz-adv-x="960" d="M848 736q20 0 34 -14t14 -34v-640q0 -20 -14 -34t-34 -14h-592q-59 0 -102 41t-57 110q-36 179 -33 365q3 183 35 310q10 57 54.5 95.5t102.5 38.5h592q20 0 34 -14t14 -34v-48h-640q-24 0 -44 -19t-20 -45t20 -45t44 -19h592zM512 147q10 0 20 7q13 11 37.5 32.5t76 76
t84.5 103.5q12 17 2 33q-8 17 -28 17h-100q-7 45 -19 92.5t-17 55.5q-17 25 -56 25t-57 -25q-12 -17 -36 -148h-99q-20 0 -28 -17q-9 -16 1 -33q34 -50 85.5 -104.5t75.5 -75.5t38 -32q10 -7 20 -7z" />
<glyph unicode="&#xe966;" horiz-adv-x="960" d="M905 914q23 -7 23 -30v-691q0 -14 -10 -24q-11 -10 -24 -8h-24q-50 0 -102 -6t-132 -35.5t-135 -79.5q-10 -8 -21 -8q-12 0 -22 8q-55 50 -134.5 79.5t-131.5 35.5t-102 6h-24q-13 -1 -24 8q-10 10 -10 24v691q0 23 23 30q2 1 15.5 4t42 6.5t58.5 3.5q180 0 309 -113
q128 113 308 113q30 0 59 -3.5t42.5 -6.5t15.5 -4zM416 532q69 33 130 41q27 3 57 3q24 0 37 -1v-124q0 3 -27 3q-18 0 -36 -6q-42 -13 -65 -56q-14 -28 -5 -55q8 -24 30 -38.5t52 -14.5q16 0 36 5q43 13 64 51q15 30 15 69v263q0 12 -8 21.5t-21 10.5q-36 3 -68 3
q-73 0 -134 -17.5t-81.5 -30t-28.5 -20.5q-11 -9 -11 -24v-197q0 3 -27 3q-19 0 -37 -6q-46 -15 -64 -50q-15 -29 -6 -60q8 -24 30.5 -38.5t52.5 -14.5q21 0 35 5q51 16 69 51q11 20 11 52v172z" />
<glyph unicode="&#xe967;" horiz-adv-x="960" d="M937 883q23 -7 23 -31v-660q0 -15 -11 -24q-11 -10 -25 -8q-22 1 -56 1q-39 0 -66.5 -2t-73.5 -9.5t-87.5 -27t-74.5 -50.5q-10 -8 -22 -8t-22 8q-34 32 -85 57q96 32 157.5 115.5t61.5 187.5q0 133 -93.5 226.5t-226.5 93.5q-118 0 -208 -77v177q0 24 23 31l3 1
q3 0 8.5 1.5t12.5 3t17 2.5t21 2.5t24.5 2t26.5 0.5q162 0 280 -106q118 106 280 106q13 0 26.5 -0.5t24.5 -2t21 -2.5t17 -2.5t12.5 -3t8.5 -1.5zM224 220q-42 -36 -65 -54q-49 -39 -82 -61q-11 -7 -29 -3.5t-28 14.5q-11 11 -14.5 29t4.5 30q24 37 59 81q25 30 55 64
q-28 51 -28 112q0 100 70 170t170 70q99 0 169.5 -70t70.5 -170t-70.5 -170t-169.5 -70q-61 0 -112 28zM336 581q-62 0 -105.5 -43.5t-43.5 -105.5q0 -61 43.5 -104.5t105.5 -43.5t105.5 43.5t43.5 104.5q0 62 -43.5 105.5t-105.5 43.5z" />
<glyph unicode="&#xe968;" horiz-adv-x="960" d="M256 864q-24 0 -44 -19t-20 -45t20 -45t44 -19h592q20 0 34 -14t14 -34v-640q0 -20 -14 -34t-34 -14h-592q-59 0 -102 41t-57 110q-36 179 -33 365q3 183 35 310q10 57 54.5 95.5t102.5 38.5h592q20 0 34 -14t14 -34v-48h-640zM742 390l71 69l-5 5q-62 71 -144 111.5
t-168 40.5t-167.5 -40.5t-143.5 -111.5l-5 -5l72 -69l5 6q102 118 239 118q139 0 241 -118zM626 279l72 69l-5 6q-38 46 -89.5 73t-106.5 27q-113 0 -197 -100l-4 -6l71 -69l6 7q53 68 124 68q69 0 124 -68zM496 124q35 0 60 24.5t25 59.5t-25 60t-60 25t-60 -25t-25 -60
t25 -59.5t60 -24.5z" />
<glyph unicode="&#xe969;" horiz-adv-x="960" d="M480 960q136 0 250.5 -68t179.5 -181l-80 -53q-53 94 -146.5 151.5t-203.5 57.5t-203 -57t-146 -152l-80 53q65 113 179 181t250 68zM668 553q-26 54 -77 89t-111 35t-110 -34.5t-77 -89.5l-81 53q39 74 110.5 118t157.5 44t158 -44.5t111 -117.5zM368 464q0 46 33 79
t79 33t79 -33t33 -79t-33 -79t-79 -33t-79 33t-33 79zM480 0q-45 0 -84 26t-64 70h-284q-17 0 -26 14t-3 30l127 320q8 20 30 20h93q0 -2 -0.5 -8t-0.5 -8q0 -86 63 -149t149 -63t147 62.5t61 149.5v16h97q22 0 29 -20l125 -315q8 -20 0.5 -34.5t-27.5 -14.5h-284
q-24 -44 -63 -70t-85 -26z" />
<glyph unicode="&#xe972;" horiz-adv-x="960" d="M818 842q14 -16 14 -31v-732q0 -16 -10.5 -28t-26.5 -16q-165 -33 -302 -33q-33 0 -67 2t-62.5 4.5t-54.5 6t-46.5 7t-35 6.5t-23.5 5l-10 2q-34 9 -34 44v732q0 17 12 31l63 72q26 27 58 7l88 -62l88 61q25 17 50 0l89 -61l88 62q13 9 30 7t28 -14zM320 608h352v64h-352
v-64zM320 480h352v64h-352v-64zM320 352h352v64h-352v-64zM320 224h352v64h-352v-64z" />
<glyph unicode="&#xe973;" horiz-adv-x="960" d="M896 800q26 0 45 -19t19 -45v-639q0 -24 -15.5 -42t-38.5 -22q-212 -33 -426 -33q-216 0 -426 33q-23 4 -38.5 22t-15.5 42v639q0 26 19 45t45 19h224v-128h-160v-521q174 -24 352 -24q176 0 352 24v521h-160v128h224zM532 448q-10 -128 -12 -128h-80q-2 0 -12 128h-150
q-27 0 -43 26q-13 26 1 49q28 39 116 117v224h-48q-20 0 -34 14t-14 34q0 19 14.5 33.5t33.5 14.5h352q19 0 33.5 -14.5t14.5 -33.5t-14.5 -33.5t-33.5 -14.5h-48v-224q72 -64 110 -108q13 -15 13 -34q0 -20 -14 -35t-34 -15h-151z" />
<glyph unicode="&#xe9a1;" horiz-adv-x="960" d="M51 704q-18 0 -31.5 11t-15.5 27q-8 74 0 148q2 16 15.5 27t31.5 11h825q19 0 32.5 -11t15.5 -27q8 -74 0 -148q-2 -16 -15.5 -27t-32.5 -11h-825zM876 352h-825q-18 0 -31.5 11t-15.5 27q-8 74 0 148q2 16 15.5 27t31.5 11h825q19 0 32.5 -11t15.5 -27q8 -74 0 -148
q-2 -16 -15.5 -27t-32.5 -11zM876 0h-825q-18 0 -31.5 11t-15.5 27q-8 74 0 148q2 16 15.5 27t31.5 11h825q19 0 32.5 -11t15.5 -27q8 -74 0 -148q-2 -16 -15.5 -27t-32.5 -11z" />
<glyph unicode="&#xe9a2;" horiz-adv-x="960" d="M890 924q16 -2 27 -15.5t11 -32.5v-825q0 -18 -11 -31.5t-27 -15.5q-74 -8 -148 0q-16 2 -27 15.5t-11 31.5v825q0 19 11 32.5t27 15.5q74 8 148 0zM538 924q16 -2 27 -15.5t11 -32.5v-825q0 -18 -11 -31.5t-27 -15.5q-74 -8 -148 0q-16 2 -27 15.5t-11 31.5v825
q0 19 11 32.5t27 15.5q74 8 148 0zM186 924q16 -2 27 -15.5t11 -32.5v-825q0 -18 -11 -31.5t-27 -15.5q-74 -8 -148 0q-16 2 -27 15.5t-11 31.5v825q0 19 11 32.5t27 15.5q74 8 148 0z" />
<glyph unicode="&#xe9a3;" horiz-adv-x="960" d="M608 928h256q26 0 45 -19t19 -45v-256q0 -26 -19 -45t-45 -19h-256q-26 0 -45 19t-19 45v256q0 26 19 45t45 19zM32 608v256q0 26 19 45t45 19h256q26 0 45 -19t19 -45v-256q0 -26 -19 -45t-45 -19h-256q-26 0 -45 19t-19 45zM864 32h-256q-26 0 -45 19t-19 45v256
q0 26 19 45t45 19h256q26 0 45 -19t19 -45v-256q0 -26 -19 -45t-45 -19zM352 32h-256q-26 0 -45 19t-19 45v256q0 26 19 45t45 19h256q26 0 45 -19t19 -45v-256q0 -26 -19 -45t-45 -19z" />
<glyph unicode="&#xe9b0;" horiz-adv-x="960" d="M664 664q96 -96 153 -167.5t89.5 -142.5t43 -135t10.5 -155v-64h-160v64q0 56 -40 92t-98 36h-342q-52 0 -90 38t-38 90v342q0 58 -36 98t-92 40h-64v160h64q91 0 155 -10.5t135 -43t142.5 -89.5t167.5 -153z" />
<glyph unicode="&#xea00;" horiz-adv-x="960" d="M864 292q51 -19 73.5 -43.5t22.5 -67.5q0 -81 -88 -99t-392 -18t-392 18t-88 99q0 43 22.5 67.5t73.5 43.5v516q0 23 15.5 40.5t38.5 21.5q9 1 48 5t121 8.5t161 4.5q78 0 160.5 -4.5t122 -8.5t47.5 -5q23 -4 38.5 -21.5t15.5 -40.5v-516zM224 320h512v436
q-146 16 -256 16t-256 -16v-436zM443 457q-4 -9 -14 -9q-9 0 -14 8l-3 8q-4 7 -9 17.5t-11 25.5t-12 32.5t-11.5 36.5t-10 39.5t-6.5 39.5q0 8 5 13q4 4 12 4q19 -2 40.5 -6.5t40 -10.5t36 -12t32 -12t25 -10.5t17.5 -8.5l8 -3q8 -5 8 -14q0 -10 -9 -14l-48 -20
q48 -64 55 -78q6 -16 -7 -27q-11 -11 -26 -6q-14 4 -78 55z" />
<glyph unicode="&#xea01;" horiz-adv-x="960" d="M853 879q45 -5 76 -38.5t31 -79.5v-594q0 -46 -31 -79.5t-76 -38.5q-189 -17 -373 -17q-186 0 -373 17q-46 4 -76.5 38t-30.5 80v594q0 46 30.5 80t76.5 38q187 17 373 17q184 0 373 -17zM481 152q85 0 255 10v604q-170 10 -255 10q-162 0 -353 -18v-588q191 -18 353 -18
zM848 402q26 0 44 18t18 44t-18 44t-44 18t-44 -18t-18 -44t18 -44t44 -18z" />
<glyph unicode="&#xea02;" horiz-adv-x="960" d="M821 853q11 -198 11 -377q0 -182 -11 -372q-2 -35 -25.5 -60.5t-57.5 -29.5q-109 -14 -258 -14q-150 0 -259 14q-34 5 -57.5 30.5t-24.5 59.5q-11 187 -11 376q0 207 11 373q1 34 24.5 59.5t57.5 30.5q133 17 259 17q125 0 258 -17q34 -5 57.5 -30.5t25.5 -59.5zM480 61
q27 0 47 19.5t20 47.5q0 27 -20 46t-47 19q-28 0 -46.5 -19t-18.5 -46q0 -28 18.5 -47.5t46.5 -19.5zM699 270q9 147 9 261q-1 126 -13 279q-2 13 -14 15q-105 12 -201 12q-98 0 -201 -12q-13 -2 -15 -15q-11 -163 -11 -300q0 -122 7 -240q2 -14 15 -14h410q14 0 14 14z" />
<glyph unicode="&#xea03;" horiz-adv-x="960" d="M822 701q10 -157 10 -285t-10 -285q-3 -46 -35 -79.5t-78 -38.5q-110 -13 -229 -13t-229 13q-46 5 -78 38.5t-35 79.5q-10 134 -10 285t10 285q3 46 35 79.5t78 38.5q111 13 231 13q3 36 9 70q4 20 18 34.5t33 17.5q33 6 65 6t65 -6q19 -3 33 -17.5t17 -34.5
q7 -36 11 -89q37 -11 61.5 -42t27.5 -70zM674 479q2 96 -3 160q-1 12 -9 20.5t-20 9.5q-81 6 -162 6q-80 0 -161 -6q-12 -1 -20 -9.5t-9 -20.5q-6 -80 -3 -160q0 -13 9.5 -22t22.5 -9h323q13 0 22.5 9t9.5 22z" />
<glyph unicode="&#xea04;" horiz-adv-x="960" d="M320 672v64h320v-64h-320zM320 544v64h320v-64h-320zM320 416v64h160v-64h-160zM821 853q11 -195 11 -373q0 -186 -11 -376q-2 -35 -25.5 -60.5t-57.5 -29.5q-109 -14 -258 -14q-150 0 -258 14q-34 4 -57.5 29.5t-25.5 60.5q-11 185 -11 376q0 184 11 373q2 35 25.5 60
t57.5 30q131 17 258 17q125 0 258 -17q34 -5 57.5 -30.5t25.5 -59.5zM448 64v128l-88 -64zM512 64l88 64l-88 64v-128zM699 271q9 154 8 262q0 119 -12 278q-2 13 -14 15q-105 12 -201 12q-98 0 -201 -12q-13 -2 -15 -15q-11 -149 -11 -275q-1 -111 7 -265q2 -15 15 -15h410
q12 0 14 15z" />
<glyph unicode="&#xea05;" horiz-adv-x="960" d="M256 864q-24 0 -44 -19t-20 -45t20 -45t44 -19h592q20 0 34 -14t14 -34v-640q0 -20 -14 -34t-34 -14h-592q-59 0 -102 41t-57 110q-36 179 -33 365q3 183 35 310q10 57 54.5 95.5t102.5 38.5h592q20 0 34 -14t14 -34v-48h-640zM524 157q71 0 135 23q17 5 17 23l-1 5
l-8 44q-5 18 -23 18l-8 -1q-44 -11 -97 -11q-57 0 -96 24t-41 70h264q18 0 31.5 13.5t13.5 33.5q0 51 -18.5 97t-65.5 80.5t-115 34.5q-103 0 -166 -70t-63 -164q0 -99 66 -159.5t175 -60.5zM598 442h-196q4 28 29.5 47.5t73.5 19.5q51 0 72.5 -19.5t20.5 -47.5z" />
<glyph unicode="&#xea10;" horiz-adv-x="960" d="M896 608q26 0 45 -19t19 -45v-160q0 -26 -19 -45t-45 -19h-64v-127q0 -23 -14.5 -40.5t-37.5 -22.5q-177 -34 -364 -34t-364 34q-23 5 -37.5 22.5t-14.5 40.5v542q0 23 14.5 40.5t37.5 22.5q177 34 364 34t364 -34q23 -5 37.5 -22.5t14.5 -40.5v-127h64zM704 243v440
q-146 23 -288 23t-288 -23v-440q146 -23 288 -23t288 23zM544 635q-86 6 -127 6q-102 0 -225 -15v-324q115 -14 224 -14q56 0 128 5v342z" />
<glyph unicode="&#xea11;" horiz-adv-x="960" d="M416 641q-101 0 -224 -15v-324q115 -14 224 -14v353zM896 608q26 0 45 -19t19 -45v-160q0 -26 -19 -45t-45 -19h-64v-127q0 -23 -14.5 -40.5t-37.5 -22.5q-177 -34 -364 -34t-364 34q-23 5 -37.5 22.5t-14.5 40.5v542q0 23 14.5 40.5t37.5 22.5q177 34 364 34t364 -34
q23 -5 37.5 -22.5t14.5 -40.5v-127h64zM704 243v440q-146 23 -288 23t-288 -23v-440q146 -23 288 -23t288 23z" />
<glyph unicode="&#xea12;" horiz-adv-x="960" d="M312 637q-53 -3 -120 -11v-324q67 -8 120 -11v346zM896 608q26 0 45 -19t19 -45v-160q0 -26 -19 -45t-45 -19h-64v-127q0 -23 -14.5 -40.5t-37.5 -22.5q-177 -34 -364 -34t-364 34q-23 5 -37.5 22.5t-14.5 40.5v542q0 23 14.5 40.5t37.5 22.5q177 34 364 34t364 -34
q23 -5 37.5 -22.5t14.5 -40.5v-127h64zM704 243v440q-146 23 -288 23t-288 -23v-440q146 -23 288 -23t288 23z" />
<glyph unicode="&#xea13;" horiz-adv-x="960" d="M896 608q26 0 45 -19t19 -45v-160q0 -26 -19 -45t-45 -19h-64v-127q0 -23 -14.5 -40.5t-37.5 -22.5q-177 -34 -364 -34t-364 34q-23 5 -37.5 22.5t-14.5 40.5v542q0 23 14.5 40.5t37.5 22.5q177 34 364 34t364 -34q23 -5 37.5 -22.5t14.5 -40.5v-127h64zM704 243v440
q-146 23 -288 23t-288 -23v-440q146 -23 288 -23t288 23z" />
<glyph unicode="&#xea14;" horiz-adv-x="960" d="M289 515q2 8 9 10l326 83q10 2 15 -8q4 -11 -5 -16l-159 -110l96 -80q6 -4 4 -13q-2 -8 -9 -10l-326 -83h-3q-9 0 -12 8q-5 10 5 16l159 109l-96 81q-6 4 -4 13zM896 608q26 0 45 -19t19 -45v-160q0 -26 -19 -45t-45 -19h-64v-127q0 -23 -14.5 -40.5t-37.5 -22.5
q-177 -34 -364 -34t-364 34q-23 5 -37.5 22.5t-14.5 40.5v542q0 23 14.5 40.5t37.5 22.5q177 34 364 34t364 -34q23 -5 37.5 -22.5t14.5 -40.5v-127h64zM704 243v440q-146 23 -288 23t-288 -23v-440q146 -23 288 -23t288 23z" />
<glyph unicode="&#xea23;" horiz-adv-x="960" d="M821 853q11 -196 11 -376q0 -183 -11 -373q-2 -35 -25.5 -60.5t-57.5 -29.5q-109 -14 -258 -14q-150 0 -258 14q-34 4 -57.5 29.5t-25.5 60.5q-12 197 -11 401q0 170 11 348q1 34 24.5 59.5t58.5 30.5q131 17 258 17q125 0 258 -17q34 -5 57.5 -30.5t25.5 -59.5zM481 56
q29 0 49.5 21t20.5 50t-20.5 50t-49.5 21t-50 -21t-21 -50t21 -50t50 -21zM699 270q10 170 10 269q0 129 -11 271q-2 13 -14 15q-104 12 -204 12t-204 -12q-13 -2 -15 -15q-10 -153 -10 -266q0 -114 10 -274q0 -14 14 -14h410q12 0 14 14zM521 659q28 20 62.5 10.5t48 -44.5
t-11.5 -97q-27 -60 -73.5 -102t-66.5 -42t-66.5 42t-73.5 102q-16 35 -16.5 64t11.5 46t29.5 26.5t38 8t36.5 -13.5q15 -11 25 -25t13 -22l3 -9q8 32 41 56z" />
<glyph unicode="&#xea24;" horiz-adv-x="960" d="M637 416q2 8 -5 13l-75 64l-6 3q-6 1 -11 -2l-45 -29q-9 -5 -15 1q-25 22 -42 49q-19 28 -29 56q-3 10 5 15l44 29q6 4 7 9q0 5 -1 7l-30 94q-3 8 -10 9q-35 5 -60 -12q-44 -28 -39.5 -100.5t53.5 -145.5q38 -56 87 -89t92 -33q27 0 46 12q24 16 34 50zM821 853
q11 -196 11 -376q0 -183 -11 -373q-2 -35 -25.5 -60.5t-57.5 -29.5q-109 -14 -258 -14q-150 0 -258 14q-34 4 -57.5 29.5t-25.5 60.5q-12 197 -11 401q0 170 11 348q1 34 24.5 59.5t58.5 30.5q131 17 258 17q125 0 258 -17q34 -5 57.5 -30.5t25.5 -59.5zM481 56
q29 0 49.5 21t20.5 50t-20.5 50t-49.5 21t-50 -21t-21 -50t21 -50t50 -21zM699 270q10 170 10 269q0 129 -11 271q-2 13 -14 15q-104 12 -204 12t-204 -12q-13 -2 -15 -15q-10 -153 -10 -266q0 -114 10 -274q0 -14 14 -14h410q12 0 14 14z" />
<glyph unicode="&#xea25;" horiz-adv-x="960" d="M608 544q14 0 23 -9t9 -23v-128q0 -14 -9 -23t-23 -9h-256q-14 0 -23 9t-9 23v128q0 14 9 23t23 9v64q0 61 33.5 94.5t94.5 33.5t94.5 -33.5t33.5 -94.5v-64zM544 544v71q0 34 -14 45.5t-50 11.5t-50 -11.5t-14 -45.5v-71h128zM821 853q11 -196 11 -376q0 -183 -11 -373
q-2 -35 -25.5 -60.5t-57.5 -29.5q-109 -14 -258 -14q-150 0 -258 14q-34 4 -57.5 29.5t-25.5 60.5q-12 197 -11 401q0 170 11 348q1 34 24.5 59.5t58.5 30.5q131 17 258 17q125 0 258 -17q34 -5 57.5 -30.5t25.5 -59.5zM481 56q29 0 49.5 21t20.5 50t-20.5 50t-49.5 21
t-50 -21t-21 -50t21 -50t50 -21zM699 270q10 170 10 269q0 129 -11 271q-2 13 -14 15q-104 12 -204 12t-204 -12q-13 -2 -15 -15q-10 -153 -10 -266q0 -114 10 -274q0 -14 14 -14h410q12 0 14 14z" />
<glyph unicode="&#xea26;" horiz-adv-x="960" d="M320 672v64h320v-64h-320zM320 544v64h320v-64h-320zM320 416v64h160v-64h-160zM821 853q11 -196 11 -376q0 -183 -11 -373q-2 -35 -25.5 -60.5t-57.5 -29.5q-109 -14 -258 -14q-150 0 -258 14q-34 4 -57.5 29.5t-25.5 60.5q-12 197 -11 401q0 170 11 348q1 34 24.5 59.5
t58.5 30.5q131 17 258 17q125 0 258 -17q34 -5 57.5 -30.5t25.5 -59.5zM481 56q29 0 49.5 21t20.5 50t-20.5 50t-49.5 21t-50 -21t-21 -50t21 -50t50 -21zM699 270q10 170 10 269q0 129 -11 271q-2 13 -14 15q-104 12 -204 12t-204 -12q-13 -2 -15 -15q-10 -153 -10 -266
q0 -114 10 -274q0 -14 14 -14h410q12 0 14 14z" />
<glyph unicode="&#xea27;" horiz-adv-x="960" d="M490 578q35 -6 55 -11.5t43.5 -15.5t34.5 -27.5t11 -41.5q0 -80 -122 -91v-42q0 -8 -8.5 -14.5t-20.5 -6.5h-23q-12 0 -20.5 6.5t-8.5 14.5v41q-56 5 -94 17q-21 7 -14 25l11 29q3 8 14.5 10t21.5 -1q49 -16 86 -17q69 -3 69 25q1 16 -11.5 22t-51.5 14q-67 12 -101 31.5
t-34 61.5q0 73 115 85v46q0 9 8 15.5t20 6.5h23q12 0 20.5 -7t8.5 -15v-46q46 -4 71 -12q18 -5 13 -24l-10 -27q-9 -17 -40 -9q-36 10 -69 11q-53 0 -54 -21q-1 -14 9.5 -19.5t47.5 -12.5zM821 853q11 -196 11 -376q0 -183 -11 -373q-2 -35 -25.5 -60.5t-57.5 -29.5
q-109 -14 -258 -14q-150 0 -258 14q-34 4 -57.5 29.5t-25.5 60.5q-12 197 -11 401q0 170 11 348q1 34 24.5 59.5t58.5 30.5q131 17 258 17q125 0 258 -17q34 -5 57.5 -30.5t25.5 -59.5zM481 56q29 0 49.5 21t20.5 50t-20.5 50t-49.5 21t-50 -21t-21 -50t21 -50t50 -21z
M699 270q10 170 10 269q0 129 -11 271q-2 13 -14 15q-104 12 -204 12t-204 -12q-13 -2 -15 -15q-10 -153 -10 -266q0 -114 10 -274q0 -14 14 -14h410q12 0 14 14z" />
<glyph unicode="&#xea28;" horiz-adv-x="960" d="M493 655q-13 -2 -21.5 -4.5t-19.5 -15t-13 -34.5v-25h89q16 0 16 -16v-32q0 -16 -16 -16h-89v-25q2 -22 13.5 -34.5t19.5 -14.5t21 -4q28 -4 73 10q17 6 26.5 1.5t14.5 -23.5q14 -43 -15 -52q-54 -18 -99 -18q-57 0 -94 37.5t-44 101.5q0 3 -0.5 10t-0.5 11h-50
q-16 0 -16 16v32q0 16 16 16h50q0 4 0.5 11t0.5 10q7 64 44 101.5t94 37.5q45 0 99 -18q29 -9 15 -52q-5 -18 -14.5 -23t-26.5 1q-44 13 -73 11zM821 853q11 -196 11 -376q0 -183 -11 -373q-2 -35 -25.5 -60.5t-57.5 -29.5q-109 -14 -258 -14q-150 0 -258 14
q-34 4 -57.5 29.5t-25.5 60.5q-12 197 -11 401q0 170 11 348q1 34 24.5 59.5t58.5 30.5q131 17 258 17q125 0 258 -17q34 -5 57.5 -30.5t25.5 -59.5zM481 56q29 0 49.5 21t20.5 50t-20.5 50t-49.5 21t-50 -21t-21 -50t21 -50t50 -21zM699 270q10 170 10 269q0 129 -11 271
q-2 13 -14 15q-104 12 -204 12t-204 -12q-13 -2 -15 -15q-10 -153 -10 -266q0 -114 10 -274q0 -14 14 -14h410q12 0 14 14z" />
<glyph unicode="&#xea29;" horiz-adv-x="960" d="M320 482q43 0 70.5 -26.5t27.5 -71.5h-51q-20 0 -33.5 13.5t-13.5 32.5v52zM320 592q88 0 148 -61q60 -62 60 -147h-57q0 60 -44 106q-47 47 -107 44v58zM320 704q135 0 227 -95q93 -95 93 -225h-60q-1 108 -76 184q-76 77 -184 77v59zM821 853q11 -196 11 -376
q0 -183 -11 -373q-2 -35 -25.5 -60.5t-57.5 -29.5q-109 -14 -258 -14q-150 0 -258 14q-34 4 -57.5 29.5t-25.5 60.5q-12 197 -11 401q0 170 11 348q1 34 24.5 59.5t58.5 30.5q131 17 258 17q125 0 258 -17q34 -5 57.5 -30.5t25.5 -59.5zM481 56q29 0 49.5 21t20.5 50
t-20.5 50t-49.5 21t-50 -21t-21 -50t21 -50t50 -21zM699 270q10 170 10 269q0 129 -11 271q-2 13 -14 15q-104 12 -204 12t-204 -12q-13 -2 -15 -15q-10 -153 -10 -266q0 -114 10 -274q0 -14 14 -14h410q12 0 14 14z" />
<glyph unicode="&#xea2a;" horiz-adv-x="960" d="M596 670q20 7 35 -7q13 -15 7 -33q-21 -59 -54.5 -125t-53.5 -99t-26 -40q-9 -14 -24 -14q-6 0 -9 1q-23 7 -23 31v96h-96q-24 0 -31 23q-7 22 13 35l5 3q5 3 11.5 7.5t17.5 11t23 13t27 15t30.5 17t34 17.5t36.5 17t38 16t39 15zM821 853q11 -196 11 -376
q0 -183 -11 -373q-2 -35 -25.5 -60.5t-57.5 -29.5q-109 -14 -258 -14q-150 0 -258 14q-34 4 -57.5 29.5t-25.5 60.5q-12 197 -11 401q0 170 11 348q1 34 24.5 59.5t58.5 30.5q131 17 258 17q125 0 258 -17q34 -5 57.5 -30.5t25.5 -59.5zM481 56q29 0 49.5 21t20.5 50
t-20.5 50t-49.5 21t-50 -21t-21 -50t21 -50t50 -21zM699 270q10 170 10 269q0 129 -11 271q-2 13 -14 15q-104 12 -204 12t-204 -12q-13 -2 -15 -15q-10 -153 -10 -266q0 -114 10 -274q0 -14 14 -14h410q12 0 14 14z" />
<glyph unicode="&#xea2b;" horiz-adv-x="960" d="M576 704q14 0 23 -9t9 -23v-288q0 -14 -9 -23t-23 -9h-192q-14 0 -23 9t-9 23v288q0 14 9 23t23 9h32v32q0 14 9 23t23 9h64q14 0 23 -9t9 -23v-32h32zM544 416v224h-128v-224h128zM821 853q11 -196 11 -376q0 -183 -11 -373q-2 -35 -25.5 -60.5t-57.5 -29.5
q-109 -14 -258 -14q-150 0 -258 14q-34 4 -57.5 29.5t-25.5 60.5q-12 197 -11 401q0 170 11 348q1 34 24.5 59.5t58.5 30.5q131 17 258 17q125 0 258 -17q34 -5 57.5 -30.5t25.5 -59.5zM481 56q29 0 49.5 21t20.5 50t-20.5 50t-49.5 21t-50 -21t-21 -50t21 -50t50 -21z
M699 270q10 170 10 269q0 129 -11 271q-2 13 -14 15q-104 12 -204 12t-204 -12q-13 -2 -15 -15q-10 -153 -10 -266q0 -114 10 -274q0 -14 14 -14h410q12 0 14 14z" />
<glyph unicode="&#xea2c;" horiz-adv-x="960" d="M592 576q9 0 14 -8t0 -16l-129 -224q-7 -12 -18 -7q-13 4 -11 17l22 174h-102q-9 0 -14 8t0 16l129 224q6 10 18 7q13 -4 11 -17l-22 -174h102zM821 853q11 -196 11 -376q0 -183 -11 -373q-2 -35 -25.5 -60.5t-57.5 -29.5q-109 -14 -258 -14q-150 0 -258 14
q-34 4 -57.5 29.5t-25.5 60.5q-12 197 -11 401q0 170 11 348q1 34 24.5 59.5t58.5 30.5q131 17 258 17q125 0 258 -17q34 -5 57.5 -30.5t25.5 -59.5zM481 56q29 0 49.5 21t20.5 50t-20.5 50t-49.5 21t-50 -21t-21 -50t21 -50t50 -21zM699 270q10 170 10 269q0 129 -11 271
q-2 13 -14 15q-104 12 -204 12t-204 -12q-13 -2 -15 -15q-10 -153 -10 -266q0 -114 10 -274q0 -14 14 -14h410q12 0 14 14z" />
<glyph unicode="&#xea30;" horiz-adv-x="960" d="M904 901q24 -3 40 -21t16 -43v-480q0 -24 -16 -42t-40 -21q-280 -36 -424 -36t-424 36q-24 3 -40 21t-16 42v480q0 25 16 43t40 21q210 27 424 27t424 -27zM537 439q24 -7 39 8q18 18 9 39q-13 25 -85 119l73 30q14 5 14 20t-12 21l-9 4q-9 5 -21 10.5t-30.5 13.5t-39 16
t-45.5 16.5t-50 16t-53 13.5t-54 9q-11 1 -18 -6q-8 -8 -7 -16q7 -62 32.5 -138t42 -111.5t24.5 -49.5q3 -5 9 -10q6 -4 12 -4q14 0 20 16l29 66q95 -77 120 -83zM352 196q9 0 56 -3t72 -3t72 3t56 3v-48l216 -50q12 -2 19.5 -12t5.5 -22t-11 -22t-21 -10h-676q-12 0 -21 10
t-11 22q-1 12 6 22t19 12l218 48v50z" />
<glyph unicode="&#xea31;" horiz-adv-x="960" d="M904 900q24 -3 40 -21t16 -42v-488q0 -24 -16 -42t-40 -21q-218 -28 -424 -28t-424 28q-24 3 -40 21t-16 42v488q0 24 16 42t40 21q187 24 424 24t424 -24zM460 358h27q14 0 23.5 6t9.5 14v40q138 13 138 100q0 26 -12.5 44.5t-38 30t-49.5 17.5t-63 12q-40 8 -51 14
t-11 22q0 29 55 29q38 0 72 -8q31 -7 46 10l16 19q6 7 2 15t-17 11q-31 10 -75 13v45q0 8 -9.5 14t-23.5 6h-27q-14 0 -23.5 -6t-9.5 -14v-45q-128 -13 -128 -93q0 -46 37.5 -67t114.5 -35q43 -7 56 -14t13 -25q0 -35 -72 -35q-49 0 -99 16q-12 3 -25 0t-18 -10l-15 -22
q-6 -8 -1.5 -15.5t16.5 -11.5q42 -13 109 -18v-39q0 -8 9.5 -14t23.5 -6zM352 191q63 -3 128 -3q64 0 128 3v-47l199 -49q12 -2 19 -12t5 -23q-1 -12 -10 -20t-21 -8h-640q-28 0 -32 28q-1 13 6 23t19 12l199 48v48z" />
<glyph unicode="&#xea32;" horiz-adv-x="960" d="M904 897q24 -3 40 -21t16 -42v-481q0 -24 -16 -42t-40 -21q-218 -28 -424 -28t-424 28q-24 3 -40 21t-16 42v481q0 24 16 42t40 21q218 28 424 28t424 -28zM288 416h384q14 0 23 9t9 23t-9 23t-23 9h-32v160h32q10 0 21.5 7.5t11.5 24.5q0 19 -22 30l-189 107
q-14 6 -28 0l-192 -111q-23 -10 -17 -34q5 -24 31 -24h32v-160h-32q-14 0 -23 -9t-9 -23t9 -23t23 -9zM576 480h-64v160h64v-160zM448 480h-64v160h64v-160zM807 95q12 -2 19 -12t6 -23q-1 -12 -10.5 -20t-21.5 -8h-640q-12 0 -21.5 8t-10.5 20q-1 13 6 23t19 12l199 39v57
q96 -3 128 -3t128 3v-55z" />
<glyph unicode="&#xea33;" horiz-adv-x="960" d="M904 895q24 -4 40 -22t16 -42v-480q0 -24 -16 -42t-40 -21q-218 -28 -424 -28t-424 28q-24 3 -40 21t-16 42v480q0 24 16 42t40 22q222 27 424 27t424 -27zM416 384v192h128v-192h96q14 0 23 9t9 23v200q0 13 -9 22l-160 161q-9 9 -22.5 9t-22.5 -9l-160 -161
q-10 -10 -10 -22v-200q0 -14 9 -23t23 -9h96zM808 95q12 -2 19 -12t5 -23q-1 -12 -10 -20t-21 -8h-641q-12 0 -21.5 8t-10.5 20q-1 13 6 23t19 12l199 38v58q65 -3 128 -3q64 0 128 3v-56z" />
<glyph unicode="&#xea34;" horiz-adv-x="960" d="M904 901q24 -3 40 -21t16 -43v-484q0 -25 -16 -43t-40 -21q-272 -33 -424 -33t-424 33q-24 3 -40 21t-16 43v484q0 25 16 43t40 21q210 27 424 27t424 -27zM592 384q16 0 16 16v25q0 6 -4.5 10.5t-10.5 4.5q-15 3 -24 5q-13 3 -19 9.5t-6 25.5v232q46 -2 70 -17.5
t36 -44.5q5 -10 15 -10h24q15 0 15 15v97q0 16 -16 16h-416q-16 0 -16 -16v-97q0 -15 15 -15h23q12 0 15 10q12 29 36.5 44.5t70.5 17.5v-232q0 -19 -6 -25.5t-20 -9.5q-18 -4 -24 -5q-14 0 -14 -15v-25q0 -16 16 -16h224zM839 99q11 -3 18 -13t6 -22q-2 -13 -11 -22.5
t-21 -9.5h-703q-12 0 -21 10t-11 22q-2 28 25 35l231 47v50q18 0 61.5 -3t66.5 -3t66.5 3t61.5 3v-48z" />
<glyph unicode="&#xea35;" horiz-adv-x="960" d="M352 191q65 -3 128 -3q64 0 128 3v-55l199 -41q12 -2 19 -12t5 -23q-1 -12 -10 -20t-21 -8h-640q-28 0 -32 28q-1 13 6 23t19 12l199 39v57zM904 895q24 -4 40 -22t16 -42v-480q0 -24 -16 -42t-40 -21q-218 -28 -424 -28t-424 28q-24 3 -40 21t-16 42v480q0 24 16 42
t40 22q222 27 424 27t424 -27zM321 418q87 -7 181 -7q99 0 158 7q114 15 114 104q0 39 -29 68t-71 34q-1 62 -48.5 105.5t-113.5 43.5q-55 0 -98 -31t-57 -80q-15 4 -36 4q-56 0 -96 -36t-40 -87q0 -57 38.5 -88t97.5 -37z" />
<glyph unicode="&#xea83;" horiz-adv-x="960" d="M800 784q-20 0 -34 14t-14 34t14 34l64 64q14 14 34 14t34 -14t14 -34t-14 -34l-64 -64q-14 -14 -34 -14zM160 784q-20 0 -34 14l-64 64q-14 14 -14 34t14 34t34 14t34 -14l64 -64q14 -14 14 -34t-14 -34t-34 -14zM612 256h-265l-1 19q-6 36 -24 68t-57 81
q-38 49 -55.5 90.5t-17.5 93.5q0 118 84 203t204 85t204 -85t84 -203q0 -52 -17.5 -93.5t-55.5 -90.5q-39 -49 -57 -81t-24 -68q-1 -7 -2 -19zM864 272q-20 0 -34 14l-64 64q-14 14 -14 34t14 34t34 14t34 -14l64 -64q14 -14 14 -34t-14 -34t-34 -14zM96 272q-20 0 -34 14
t-14 34t14 34l64 64q14 14 34 14t34 -14t14 -34t-14 -34l-64 -64q-14 -14 -34 -14zM480 0q-46 0 -70 22.5t-38 72.5q-11 32 -18 97h251q-7 -64 -17 -97q-15 -50 -38.5 -72.5t-69.5 -22.5z" />
<glyph unicode="&#xea85;" horiz-adv-x="960" d="M205 772q-23 -4 -46 9.5t-28 42.5q-5 26 10.5 48t41.5 26l348 61q26 5 48 -10.5t26 -41.5t-11 -47.5t-41 -26.5zM863 756q5 -26 -10.5 -48t-41.5 -26l-640 -115q-20 -4 -44 7.5t-30 44.5q-5 26 10.5 48t41.5 26l639 115q26 4 48 -11t27 -41zM756 602q26 5 48 -10.5
t26 -41.5q5 -26 -10.5 -48t-41.5 -26l-434 -76l74 -62l283 43q-23 -156 -40 -232q-18 -78 -56 -113.5t-117 -35.5q-78 0 -114.5 35t-57.5 114q-10 35 -25 128l-130 109q-24 15 -28 42q-5 26 10.5 48t41.5 26z" />
<glyph unicode="&#xea86;" horiz-adv-x="960" d="M726 545q41 -118 -77 -242q-48 -50 -68 -96.5t-26.5 -100.5t-11.5 -71q-11 -35 -67 -35q-52 0 -122 27q-1 51 14.5 108t29 86t16.5 32q2 7 -2 10q-5 5 -10 1q-82 -58 -141 -190q-85 53 -143 125q28 48 78 97q5 5 2 10q-5 6 -10 3q-65 -27 -120 -38q-41 69 -57.5 135
t-7.5 102q8 29 32 37q16 5 71 12t101 27.5t95 67.5q88 84 180 84q42 0 66 -9l256 211q31 25 70 21.5t64 -34.5q22 -27 21.5 -61t-21.5 -60q-207 -254 -212 -259zM896 480q26 0 45 -19t19 -45t-19 -45t-45 -19t-45 19t-19 45t19 45t45 19zM784 224q46 0 79 -33t33 -79
t-33 -79t-79 -33t-79 33t-33 79t33 79t79 33z" />
<glyph unicode="&#xea88;" horiz-adv-x="960" d="M713 826q23 -7 23 -31v-315q0 -22 -19 -30l-3 -2q-3 -1 -8 -2.5t-12.5 -4.5t-17.5 -6t-22 -7t-27 -8t-31 -8t-36 -8.5t-41 -8.5l55 -281q7 -40 -16 -72.5t-62 -39.5q-29 -6 -56.5 6t-42.5 37l-199 316q-87 24 -142.5 97t-55.5 166q0 110 75.5 187t185.5 82q27 3 57 3
q149 0 395 -70zM960 672h-160v96h160v-96zM272 504q50 0 85 35t35 85t-35 85t-85 35t-85 -35t-35 -85t35 -85t85 -35zM960 512h-160v96h160v-96z" />
<glyph unicode="&#xeab1;" horiz-adv-x="960" d="M835 690l-245 -260l211 -223q23 -24 22 -57.5t-25 -55.5q-23 -22 -55 -22q-36 0 -58 25l-205 216l-204 -216q-22 -25 -58 -25q-32 0 -55 22q-24 22 -25 55.5t22 57.5l210 223l-245 261q-29 24 -29 60q0 34 23.5 57.5t56.5 23.5h608q34 0 57 -23.5t23 -57.5q0 -37 -29 -61
zM480 547l118 125h-236zM880 352h-96q-33 0 -56.5 23.5t-23.5 56.5t23.5 56.5t56.5 23.5h96q33 0 56.5 -23.5t23.5 -56.5t-23.5 -56.5t-56.5 -23.5zM176 352h-96q-33 0 -56.5 23.5t-23.5 56.5t23.5 56.5t56.5 23.5h96q33 0 56.5 -23.5t23.5 -56.5t-23.5 -56.5t-56.5 -23.5z
" />
<glyph unicode="&#xeab2;" horiz-adv-x="960" d="M833 621q42 -73 55.5 -158t-7.5 -166q-26 -100 -126.5 -183.5t-241.5 -96.5q57 26 98 67t62.5 88.5t29.5 97t3 100.5q-4 39 -21 76.5t-38 63t-41 45.5t-34 29l-14 10q3 -2 8.5 -43t6.5 -61q7 -135 -28 -191q-38 -59 -87 -59q-26 0 -45.5 21.5t-26.5 65.5q-7 50 11 106
q-62 -51 -94 -106.5t-33.5 -102t14 -89t42 -72t57.5 -45.5q1 0 2 -1q-225 24 -293 171q-26 55 -26 110q-1 145 172 258q67 44 107 100t49 104.5t8.5 91t-8.5 66.5l-8 25q13 -3 34.5 -10.5t82 -34.5t114.5 -60.5t115.5 -91.5t100.5 -125z" />
<glyph unicode="&#xeab3;" horiz-adv-x="960" d="M410 631q-106 -88 -82 -183h-160q-11 131 148 235q50 33 76.5 74t27.5 75.5t-4.5 64t-15.5 46.5l-10 17q10 -2 28 -7t67 -25t92.5 -45t92.5 -69t78 -96q32 -57 42.5 -122.5t-4.5 -128.5q-5 -15 -7 -19h-136q30 62 22 139q-3 29 -17 57.5t-32 47.5t-35.5 34t-29.5 22
l-12 7q4 -4 4 -22q5 -24 7 -56q6 -92 -21 -134q-12 -18 -38 -32t-45 -6q-17 7 -29.5 23t-14.5 34q-5 29 8 69zM888 384q41 0 60 -27t3 -65q-5 -12 -15 -31.5t-49.5 -70t-88.5 -89t-134 -70t-184 -31.5q-72 0 -136.5 16t-111 42t-85.5 57t-63.5 62t-42 57t-25.5 42l-7 16
q-16 38 3 65t60 27h816z" />
<glyph unicode="&#xeb00;" horiz-adv-x="960" d="M850 502q50 -42 80 -99t30 -115q0 -97 -76 -180.5t-181 -96.5q-102 -11 -224 -11q-121 0 -223 11q-105 13 -180.5 96.5t-75.5 180.5q0 56 28 112.5t76 98.5q-2 18 -2 27q0 78 55 133t133 55q9 0 27 -2q39 65 109.5 107t147.5 42q119 0 200.5 -89t81.5 -212q0 -30 -6 -58z
M500 132q10 7 41.5 33.5t88.5 85t95 115.5q10 17 1 33q-8 17 -28 17h-112q-8 50 -22 103.5t-20 63.5q-18 28 -64 28q-45 0 -63 -28q-7 -9 -20.5 -62.5t-21.5 -104.5h-112q-19 0 -28 -17q-9 -16 1 -33q38 -57 95 -115.5t88.5 -85t41.5 -33.5q8 -7 20 -7t19 7z" />
<glyph unicode="&#xeb01;" horiz-adv-x="960" d="M457 360q-10 7 -48 42t-103.5 106.5t-109.5 137.5q-12 18 -2 38q12 20 33 20h130q24 148 49 191q19 33 74 33t74 -33q8 -15 23.5 -73.5t25.5 -117.5h130q21 0 33 -20q10 -20 -2 -38q-45 -66 -110 -137.5t-103 -106.5t-48 -42q-11 -8 -23 -8t-23 8zM804 448h156
q0 -209 -36 -389q-7 -26 -29 -42.5t-49 -16.5h-733q-27 0 -48 16t-29 42q-36 180 -36 390h156q0 -157 19 -288h610q19 133 19 288z" />
<glyph unicode="&#xeb02;" horiz-adv-x="960" d="M874 861q23 -4 38.5 -21.5t15.5 -41.5v-640q0 -23 -15.5 -41t-38.5 -22q-192 -31 -394 -31t-394 31q-23 4 -38.5 22t-15.5 41v640q0 24 15.5 41.5t38.5 21.5q151 25 298 29v-154h192v154q147 -4 298 -29zM249 403q74 -110 211 -214l2 -2q19 -14 36 0q12 8 41 31.5t83 78
t89 106.5q10 15 2 30t-26 15h-113q-24 129 -35 146q-18 26 -59 26q-40 0 -58 -26q-12 -16 -36 -146h-113q-17 0 -25 -15q-8 -16 1 -30z" />
<glyph unicode="&#xeb03;" horiz-adv-x="960" d="M845 918q19 -163 19 -294q0 -130 -19 -293q-2 -18 -16 -30.5t-32 -12.5h-635q-18 0 -32 12.5t-16 30.5q-18 153 -18 293t18 294q2 18 16 30t32 12h635q18 0 32 -12t16 -30zM654 592q6 10 0 19t-17 6l-93 -19v202h-128v-202l-92 19q-1 0 -2 1h-2q-8 0 -13 -7q-6 -9 0 -19
q26 -36 65 -75.5t65 -60.5t35 -26q8 -5 17 0t35 26t65 60.5t65 75.5zM864 224q24 0 44 -20t20 -44v-128q0 -14 -9 -23t-23 -9h-128q-14 0 -23 9t-9 23v64h-160v-64q0 -14 -9 -23t-23 -9h-128q-14 0 -23 9t-9 23v64h-160v-64q0 -14 -9 -23t-23 -9h-128q-14 0 -23 9t-9 23v128
q0 24 19.5 44t44.5 20h768z" />
<glyph unicode="&#xeb40;" horiz-adv-x="960" d="M851 502q50 -42 79.5 -99t29.5 -115q0 -97 -75.5 -180.5t-180.5 -96.5q-103 -11 -224 -11t-224 11q-105 13 -180.5 96.5t-75.5 180.5q0 60 32 119.5t86 101.5q-2 9 -2 26q0 78 55 133t133 55q13 0 20 -1q41 62 105 102t136 40q120 0 209.5 -91.5t89.5 -212.5
q0 -35 -13 -58zM480 128q44 0 64 28q6 9 19.5 61t22.5 103h112q18 0 28 16q8 18 -2 33q-38 57 -96.5 118.5t-84 83.5t-43.5 36q-20 15 -40 0q-9 -6 -41.5 -34t-88.5 -87.5t-94 -116.5q-10 -15 -2 -33q10 -16 28 -16h112q9 -51 22.5 -103t19.5 -61q20 -28 64 -28z" />
<glyph unicode="&#xeb41;" horiz-adv-x="960" d="M457 920q11 8 23 8t23 -8q10 -7 48 -42t103 -106t110 -137q12 -20 2 -39q-12 -20 -33 -20h-130q-10 -59 -25.5 -117.5t-23.5 -73.5q-20 -33 -74 -33t-74 33q-25 43 -49 191h-130q-21 0 -33 20q-10 19 2 39q44 66 109.5 137t103.5 106t48 42zM804 448h156q0 -209 -36 -389
q-7 -26 -29 -42.5t-49 -16.5h-733q-27 0 -48 16t-29 42q-36 180 -36 390h156q0 -157 19 -288h610q19 133 19 288z" />
<glyph unicode="&#xeb42;" horiz-adv-x="960" d="M874 861q23 -4 38.5 -21.5t15.5 -41.5v-640q0 -23 -15.5 -41t-38.5 -22q-192 -31 -394 -31t-394 31q-23 4 -38.5 22t-15.5 41v640q0 24 15.5 41.5t38.5 21.5q151 25 298 29v-154h192v154q147 -4 298 -29zM480 180q42 0 58 26q12 16 36 146h113q18 0 26 15t-2 30
q-35 52 -89 106.5t-83 78t-41 31.5q-17 14 -36 0q-81 -64 -124 -109q-54 -55 -89 -107q-9 -14 -1 -30q8 -15 25 -15h113q24 -130 36 -146q18 -26 58 -26z" />
<glyph unicode="&#xeb43;" horiz-adv-x="960" d="M162 288q-18 0 -32 12.5t-15 30.5q-19 149 -19 293q0 143 19 294q1 18 15 30t32 12h635q18 0 32 -12t16 -30q19 -163 19 -294q0 -130 -19 -293q-2 -18 -16 -30.5t-32 -12.5h-635zM323 631l93 19v-202h128v202l92 -19q2 -1 4 -1q8 0 13 7q6 9 0 19q-26 36 -65 75.5
t-65 60.5t-35 26q-8 5 -17 0q-9 -6 -34 -26.5t-65 -60t-66 -75.5q-6 -10 0 -19q7 -9 17 -6zM864 224q24 0 44 -20t20 -44v-128q0 -14 -9 -23t-23 -9h-128q-14 0 -23 9t-9 23v64h-160v-64q0 -14 -9 -23t-23 -9h-128q-14 0 -23 9t-9 23v64h-160v-64q0 -14 -9 -23t-23 -9h-128
q-14 0 -23 9t-9 23v128q0 24 19.5 44t44.5 20h768z" />
<glyph unicode="&#xeb80;" horiz-adv-x="960" d="M592 832h144v96q0 22 19 29q20 9 35 -6q55 -51 106 -116.5t61 -85.5q6 -14 0 -26q-10 -20 -61 -85.5t-106 -117.5q-10 -8 -22 -8q-7 0 -13 3q-19 7 -19 29v96h-144q-57 0 -75 -7t-50 -45q-49 -57 -88 -108q5 -7 88 -109q31 -37 49 -44t76 -7h144v96q0 20 19 29
q20 9 35 -6q54 -50 105.5 -115.5t61.5 -86.5q6 -14 0 -26q-10 -20 -61 -85.5t-106 -117.5q-10 -8 -22 -8q-5 0 -13 2q-19 9 -19 30v96h-144q-91 0 -149 21.5t-123 97.5q-61 74 -115 143l-143 18q-29 4 -47 27.5t-15 53.5q3 25 20.5 42.5t41.5 20.5l143 18q54 69 115 143
q65 76 123 97.5t149 21.5z" />
<glyph unicode="&#xeb81;" horiz-adv-x="960" d="M501 215q-66 -77 -122.5 -98t-147.5 -21h-158q-30 0 -51.5 22.5t-21.5 53.5q0 25 15.5 45t39.5 25l1 1q128 17 195 29q62 11 91 54q8 8 13 14q10 12 94 116q-82 143 -103 175q-7 11 -17 21t-17 14l-7 4q-1 1 -3 2t-5 2t-4 2q-8 5 -14 6q-13 6 -28 8l-196 30q-16 3 -28 14
l-2 2q-1 1 -3.5 3t-3.5 3v1l-1 1q-15 18 -16 39q-1 5 -1 7q0 31 21.5 52t51.5 21l176 1q32 0 50 -0.5t50.5 -7t55.5 -19.5t51.5 -39.5t52.5 -64.5q42 -67 111 -189h116v97q0 21 19 28q20 8 35 -5q54 -51 105.5 -116.5t61.5 -86.5q7 -13 0 -26q-10 -20 -61 -85.5t-106 -117.5
q-10 -8 -22 -8q-7 0 -13 3q-19 7 -19 29v96h-125q-58 -75 -110 -137z" />
<glyph unicode="&#xeb82;" horiz-adv-x="960" d="M910 879q15 -75 17 -169t-1 -132.5t-6 -61.5q-3 -25 -28 -28l-8 -1q-8 -1 -22 -2t-31.5 -2t-42 -2t-48.5 -1q-116 0 -214 19q-17 3 -24 22q-5 18 8 32l79 76q-47 36 -115 52q-50 9 -96.5 10.5t-102 -15.5t-110.5 -54l-18 -12t-17 -11t-13.5 -8.5t-13 -7t-11 -3.5
t-12 -1.5t-10.5 2.5q-36 12 -5 83q49 115 160.5 189.5t245.5 74.5q172 0 300 -117l84 84q16 14 32 8q18 -4 23 -24zM489 32q-173 0 -301 117l-84 -84q-10 -10 -22 -10q-4 0 -10 2q-17 5 -22 24q-15 75 -17 168.5t1 132.5t6 62q2 24 27 28l8 1q8 1 22 2t32 2t42 2t48 1
q116 0 214 -19q19 -3 25 -22q5 -18 -8 -32l-79 -76q48 -36 115 -52q49 -9 96 -10.5t102.5 15.5t110.5 54q5 3 14 9l13.5 9t12 7.5t11 6.5t9.5 5t9.5 4t8 1.5t8.5 0t8 -1.5q37 -12 6 -83q-50 -116 -161.5 -190t-244.5 -74z" />
<glyph unicode="&#xeb83;" horiz-adv-x="960" d="M352 816q0 46 33 79t79 33t79 -33t33 -79t-33 -79t-79 -33t-79 33t-33 79zM713 601q-47 0 -79.5 32.5t-32.5 79.5t32.5 79.5t79.5 32.5t79.5 -32.5t32.5 -79.5t-32.5 -79.5t-79.5 -32.5zM215 601q-47 0 -79.5 32.5t-32.5 79.5t32.5 79.5t79.5 32.5t79.5 -32.5t32.5 -79.5
t-32.5 -79.5t-79.5 -32.5zM816 352q-46 0 -79 33t-33 79t33 79t79 33t79 -33t33 -79t-33 -79t-79 -33zM112 352q-46 0 -79 33t-33 79t33 79t79 33t79 -33t33 -79t-33 -79t-79 -33zM215 103q-47 0 -79.5 32.5t-32.5 79.5t32.5 79.5t79.5 32.5t79.5 -32.5t32.5 -79.5
t-32.5 -79.5t-79.5 -32.5zM713 103q-47 0 -79.5 32.5t-32.5 79.5t32.5 79.5t79.5 32.5t79.5 -32.5t32.5 -79.5t-32.5 -79.5t-79.5 -32.5zM464 0q-46 0 -79 33t-33 79t33 79t79 33t79 -33t33 -79t-33 -79t-79 -33z" />
<glyph unicode="&#xeb84;" horiz-adv-x="960" d="M480 864q141 0 266 -57.5t214 -159.5l-110 -103q-68 80 -164.5 125t-205.5 45t-205.5 -45t-164.5 -125l-110 103q90 102 214.5 159.5t265.5 57.5zM480 608q85 0 160 -39t128 -107l-108 -110q-31 44 -78.5 70t-101.5 26t-101.5 -26t-78.5 -70l-108 110q53 68 128 107
t160 39zM480 352q53 0 90.5 -37.5t37.5 -90.5t-37.5 -90.5t-90.5 -37.5t-90.5 37.5t-37.5 90.5t37.5 90.5t90.5 37.5z" />
<glyph unicode="&#xeb85;" horiz-adv-x="960" d="M784 352q73 0 124.5 -51.5t51.5 -124.5t-51.5 -124.5t-124.5 -51.5t-124.5 51.5t-51.5 124.5q0 25 8 52l-152 134l-128 -113q16 -35 16 -73q0 -73 -51.5 -124.5t-124.5 -51.5t-124.5 51.5t-51.5 124.5t51.5 124.5t124.5 51.5q17 0 32 -3l176 156v122q-44 23 -70 65
t-26 92q0 73 51.5 124.5t124.5 51.5t124.5 -51.5t51.5 -124.5q0 -50 -26.5 -92.5t-69.5 -64.5v-122l183 -163q26 10 57 10z" />
<glyph unicode="&#xeb87;" horiz-adv-x="960" d="M714 255q38 2 47.5 -20t-18.5 -52q-49 -48 -118.5 -80.5t-149.5 -32.5q-159 0 -304 134l-98 -97q-11 -11 -26 -11q-3 0 -11 2q-22 7 -25 29q-21 142 7 367q5 27 30 30q85 17 222 17q84 0 145 -10q22 -3 30 -24q7 -22 -9 -38l-97 -96q86 -80 162.5 -101t212.5 -17z
M245 673q-37 -2 -47 20t19 52q49 49 119 81t150 32q157 0 303 -135l98 98q9 11 25 11q4 0 12 -2q22 -7 25 -29q21 -142 -7 -367q-5 -26 -30 -31q-1 0 -13.5 -1.5t-33.5 -4t-47 -5t-60.5 -4t-67.5 -1.5q-84 0 -145 10q-22 3 -30 24q-7 22 9 38l97 96q-86 80 -163 101t-213 17
z" />
<glyph unicode="&#xec01;" horiz-adv-x="960" d="M829 926q16 -4 25.5 -17t9.5 -29v-560q0 -43 -61 -120t-138.5 -137.5t-120.5 -60.5l-18 -1q-13 -1 -46 -1q-180 0 -378 33q-17 4 -27.5 17t-10.5 30v800q0 17 11 30t27 17q198 33 378 33q102 0 189 -8.5t119.5 -15.5t40.5 -10zM432 448h64q16 0 16 16v112h112q16 0 16 16
v64q0 16 -16 16h-112v112q0 16 -16 16h-64q-16 0 -16 -16v-112h-112q-16 0 -16 -16v-64q0 -16 16 -16h112v-112q0 -16 16 -16zM512 96q25 0 44.5 19t19.5 45v96q0 10 11 21t21 11h96q26 0 45 19t19 45h-160q-37 0 -66.5 -29.5t-29.5 -66.5v-160z" />
<glyph unicode="&#xec02;" horiz-adv-x="960" d="M829 926q16 -4 25.5 -17t9.5 -29v-560q0 -43 -61 -120t-138.5 -137.5t-120.5 -60.5l-18 -1q-13 -1 -46 -1q-180 0 -378 33q-17 4 -27.5 17t-10.5 30v800q0 17 11 30t27 17q198 33 378 33q102 0 189 -8.5t119.5 -15.5t40.5 -10zM304 576h320q16 0 16 16v64q0 16 -16 16
h-320q-16 0 -16 -16v-64q0 -16 16 -16zM512 96q25 0 44.5 19t19.5 45v96q0 10 11 21t21 11h96q26 0 45 19t19 45h-160q-37 0 -66.5 -29.5t-29.5 -66.5v-160z" />
<glyph unicode="&#xec04;" horiz-adv-x="960" d="M829 926q16 -4 25.5 -17t9.5 -29v-560q0 -43 -61 -120t-138.5 -137.5t-120.5 -60.5l-18 -1q-13 -1 -46 -1q-180 0 -378 33q-17 4 -27.5 17t-10.5 30v800q0 17 11 30t27 17q198 33 378 33q102 0 189 -8.5t119.5 -15.5t40.5 -10zM566 442q14 -14 29 0l51 51q14 15 0 29
l-101 102l101 102q14 14 0 29l-51 51q-15 14 -29 0l-102 -101l-102 101q-14 14 -29 0l-51 -51q-14 -15 0 -29l101 -102l-101 -102q-14 -14 0 -29l51 -51q15 -14 29 0l102 101zM512 96q25 0 44.5 19t19.5 45v96q0 10 11 21t21 11h96q26 0 45 19t19 45h-160q-37 0 -66.5 -29.5
t-29.5 -66.5v-160z" />
<glyph unicode="&#xec06;" horiz-adv-x="960" d="M829 926q16 -4 25.5 -17t9.5 -29v-560q0 -43 -61 -120t-138.5 -137.5t-120.5 -60.5l-18 -1q-13 -1 -46 -1q-180 0 -378 33q-17 4 -27.5 17t-10.5 30v800q0 17 11 30t27 17q198 33 378 33q102 0 189 -8.5t119.5 -15.5t40.5 -10zM465 440q9 0 17 6l4 3q5 3 11 7.5
t15.5 11.5t19.5 15t22.5 18.5t25 21.5t25.5 24t25.5 26.5t25 28.5t22.5 30q9 14 1 26q-6 14 -23 14h-112q-18 102 -26 115q-15 23 -53 23t-53 -23q-11 -16 -28 -115h-112q-17 0 -23 -14q-8 -13 1 -26q10 -15 22.5 -30t25 -28.5t26 -26.5t26 -24t25 -21.5t22.5 -18.5
t19.5 -15t16 -11.5t11.5 -7.5l4 -3q8 -6 17 -6zM512 96q25 0 44.5 19t19.5 45v96q0 10 11 21t21 11h96q26 0 45 19t19 45h-160q-37 0 -66.5 -29.5t-29.5 -66.5v-160z" />
<glyph unicode="&#xec07;" horiz-adv-x="960" d="M829 926q16 -4 25.5 -17t9.5 -29v-560q0 -43 -61 -120t-138.5 -137.5t-120.5 -60.5l-18 -1q-13 -1 -46 -1q-180 0 -378 33q-17 4 -27.5 17t-10.5 30v800q0 17 11 30t27 17q198 33 378 33q102 0 189 -8.5t119.5 -15.5t40.5 -10zM464 438q38 0 53 23q9 14 27 115h112
q18 0 24 14q8 12 -1 26q-10 15 -22.5 30t-25 28.5t-26 26.5t-26 24t-25 21.5t-22.5 18.5t-19.5 15t-16 11.5t-10.5 7.5l-5 3q-7 6 -17 6t-17 -6l-5 -3l-10 -7.5t-15.5 -11.5t-19.5 -15t-22.5 -18.5t-25 -21.5t-25.5 -24t-25.5 -26.5t-25 -28.5t-22.5 -30q-9 -13 -1 -26
q6 -14 22 -14h112q17 -99 27 -115q13 -23 53 -23zM512 96q25 0 44.5 19t19.5 45v96q0 10 11 21t21 11h96q26 0 45 19t19 45h-160q-37 0 -66.5 -29.5t-29.5 -66.5v-160z" />
<glyph unicode="&#xec08;" horiz-adv-x="960" d="M307 260q-19 8 -19 29v114q-58 9 -120 23t-72 20q-32 22 -32 66t32 66q10 6 72 20t120 23v114q0 19 19 29q19 9 37 -2q131 -81 256 -230q19 -21 0 -40q-125 -149 -256 -230q-18 -11 -37 -2zM858 927q16 -4 27 -17t11 -30v-560q0 -43 -61 -120t-138.5 -137.5t-120.5 -60.5
q-56 -2 -96 -2q-180 0 -378 33q-17 4 -27.5 17t-10.5 30v293q32 -13 96 -27v-229q174 -28 320 -28l48 1q19 0 33.5 15.5t14.5 35.5v131q0 20 14 34t34 14h128q20 0 34 14t14 34v472q-165 27 -320 27q-152 0 -320 -27v-162q-64 -14 -96 -27v229q0 17 11 30t27 17
q198 33 378 33t378 -33z" />
<glyph unicode="&#xec09;" horiz-adv-x="960" d="M365 764q19 -10 19 -29v-114q58 -9 120 -23t72 -20q32 -22 32 -66t-32 -66q-10 -6 -72 -20t-120 -23v-114q0 -21 -19 -29q-18 -10 -37 2q-131 81 -256 230q-19 19 0 40q125 149 256 230q19 12 37 2zM858 927q16 -4 27 -17t11 -30v-560q0 -43 -61 -120t-138.5 -137.5
t-120.5 -60.5q-56 -2 -96 -2q-180 0 -378 33q-17 4 -27.5 17t-10.5 30v300q46 -50 96 -93v-170q174 -28 320 -28l48 1q19 0 33.5 15.5t14.5 35.5v131q0 20 14 34t34 14h128q20 0 34 14t14 34v472q-165 27 -320 27q-152 0 -320 -27v-104q-48 -41 -96 -92v236q0 17 11 30
t27 17q198 33 378 33t378 -33z" />
<glyph unicode="&#xec0a;" horiz-adv-x="960" d="M829 926q16 -4 25.5 -17t9.5 -29v-560q0 -43 -61 -120t-138.5 -137.5t-120.5 -60.5l-18 -1q-13 -1 -46 -1q-180 0 -378 33q-17 4 -27.5 17t-10.5 30v800q0 17 11 30t27 17q198 33 378 33q102 0 189 -8.5t119.5 -15.5t40.5 -10zM543 416q4 0 10 2q30 16 45 26q13 10 8 26
l-15 39q-3 7 -3 16q0 19 12 31q12 14 28 15l40 7q18 4 18 20q3 26 0 52q0 16 -18 20q-14 2 -40 6q-17 2 -28.5 15.5t-11.5 31.5q0 9 3 16l15 38q5 17 -8 27q-30 18 -45 26q-16 7 -27 -7q-5 -6 -14.5 -18t-11.5 -14q-15 -17 -36 -17q-10 0 -20 5q-11 5 -16 12l-26 32
q-12 14 -27 7q-21 -10 -45 -26q-13 -10 -8 -27q5 -12 15 -38q3 -8 3 -16q0 -17 -12 -31q-10 -13 -29 -16l-39 -6q-17 -3 -19 -20q-2 -26 0 -52q2 -17 19 -20l39 -6q17 -2 29 -15.5t12 -31.5q0 -5 -1 -8q0 -4 -2 -8l-15 -39q-5 -16 8 -26q15 -10 45 -26q6 -2 10 -2q11 0 17 8
l26 33q14 17 36 17q10 0 20 -5q11 -5 16 -12q5 -6 13 -17t13 -16q6 -8 17 -8zM464 699q31 0 52.5 -21.5t21.5 -52.5t-21.5 -53t-52.5 -22t-52.5 22t-21.5 53t21.5 52.5t52.5 21.5zM512 96q25 0 44.5 19t19.5 45v96q0 10 11 21t21 11h96q26 0 45 19t19 45h-160
q-37 0 -66.5 -29.5t-29.5 -66.5v-160z" />
<glyph unicode="&#xec11;" horiz-adv-x="960" d="M829 926q16 -4 25.5 -17t9.5 -29v-560q0 -43 -61 -120t-138.5 -137.5t-120.5 -60.5l-18 -1q-13 -1 -46 -1q-180 0 -378 33q-17 4 -27.5 17t-10.5 30v800q0 17 11 30t27 17q198 33 378 33q102 0 189 -8.5t119.5 -15.5t40.5 -10zM464 444q74 0 146 6q13 2 21.5 10.5
t8.5 21.5v126q0 14 -9 23t-23 9v58q0 68 -37 104t-107 36t-107 -36t-37 -104v-58q-14 0 -23 -9t-9 -23v-126q0 -13 8.5 -21.5t20.5 -10.5q73 -6 147 -6zM544 640h-160v52q0 41 18.5 58.5t61.5 17.5t61.5 -17.5t18.5 -58.5v-52zM512 96q25 0 44.5 19t19.5 45v96q0 10 11 21
t21 11h96q26 0 45 19t19 45h-160q-37 0 -66.5 -29.5t-29.5 -66.5v-160z" />
<glyph unicode="&#xec15;" horiz-adv-x="960" d="M858 927q16 -4 27 -17t11 -30v-560q0 -43 -61 -120t-138.5 -137.5t-120.5 -60.5q-56 -2 -96 -2q-180 0 -378 33q-17 4 -27.5 17t-10.5 30v800q0 17 11 30t27 17q198 33 378 33t378 -33zM480 89l48 1q19 0 33.5 15.5t14.5 35.5v131q0 20 14 34t34 14h128q20 0 34 14t14 34
v472q-165 27 -320 27q-152 0 -320 -27v-723q174 -28 320 -28zM224 448q0 29 9.5 47t36.5 36q7 5 22 10.5t25.5 10.5t18.5 13t5 21t-18 31q-25 29 -27.5 64t10.5 51q23 36 78 36t77 -36q13 -16 11 -51t-27 -64q-15 -18 -18 -31.5t5 -21t18.5 -12.5t25 -10.5t21.5 -10.5
q27 -18 37 -36.5t10 -46.5h-320z" />
<glyph unicode="&#xec17;" horiz-adv-x="960" d="M858 927q16 -4 27 -17t11 -30v-560q0 -43 -61 -120t-138.5 -137.5t-120.5 -60.5q-56 -2 -96 -2q-180 0 -378 33q-17 4 -27.5 17t-10.5 30v800q0 17 11 30t27 17q198 33 378 33t378 -33zM480 89l48 1q19 0 33.5 15.5t14.5 35.5v131q0 20 14 34t34 14h128q20 0 34 14t14 34
v472q-165 27 -320 27q-152 0 -320 -27v-723q174 -28 320 -28zM480 416q-84 0 -180 8q-19 1 -31.5 15t-12.5 33v184q0 20 14 34t34 14h52l33 50q9 14 27 14h128q18 0 27 -14l33 -50h52q20 0 34 -14t14 -34v-184q0 -19 -12.5 -33t-31.5 -15q-96 -8 -180 -8zM480 473
q43 0 73 30t30 73t-30 73t-73 30t-73 -30t-30 -73t30 -73t73 -30z" />
<glyph unicode="&#xec19;" horiz-adv-x="960" d="M857 927q17 -4 28 -17.5t11 -29.5v-560q0 -43 -61 -120t-138.5 -137.5t-120.5 -60.5q-58 -2 -96 -2q-36 0 -72 1t-66 3t-58.5 4.5t-52 5t-43.5 5t-35.5 5.5t-26 4.5t-17.5 3.5l-7 1q-16 4 -27 17t-11 30v800q0 16 11 29.5t27 17.5l7 1q7 2 17.5 3.5t26 4.5t35.5 5.5
t43.5 5t52 5t58.5 4.5t66 3t72 1q179 0 377 -33zM480 92q8 0 24.5 0.5t23.5 0.5q19 0 33.5 15.5t14.5 35.5v128q0 20 14 34t34 14h128q20 0 34 14t14 34v472q-168 27 -320 27q-155 0 -320 -27v-720q174 -28 320 -28zM256 672v64h448v-64h-448zM704 544h-448v64h448v-64z
M704 416h-448v64h448v-64z" />
<glyph unicode="&#xec30;" horiz-adv-x="960" d="M858 927q16 -4 27 -17t11 -30v-560q0 -43 -61 -120t-138.5 -137.5t-120.5 -60.5q-56 -2 -96 -2q-180 0 -378 33q-17 4 -27.5 17t-10.5 30v800q0 17 11 30t27 17q198 33 378 33t378 -33zM656 544h128q16 0 16 16v32q0 16 -16 16h-80v32h64q16 0 16 16v32q0 16 -16 16h-64
v32h80q16 0 16 16v32q0 16 -16 16h-128q-16 0 -16 -16v-224q0 -16 16 -16zM208 544h128q16 0 16 16v32q0 16 -16 16h-80v32h64q16 0 16 16v32q0 16 -16 16h-64v32h80q16 0 16 16v32q0 16 -16 16h-128q-16 0 -16 -16v-224q0 -16 16 -16zM456 544q16 0 23 14l17 42l17 -42
q7 -14 23 -14h65q7 0 9.5 4t-1.5 10l-64 114l64 114q4 6 1.5 10t-9.5 4h-65q-16 0 -23 -14l-17 -42l-17 42q-7 14 -23 14h-66q-15 0 -8 -14l65 -114l-65 -114q-7 -14 8 -14h66zM480 89h48q20 0 34 13.5t14 33.5v136q0 20 14 34t34 14h128q20 0 34 14t14 34v48h-640v-302
q156 -25 320 -25z" />
<glyph unicode="&#xec31;" horiz-adv-x="960" d="M858 927q16 -4 27 -17t11 -30v-560q0 -43 -61 -120t-138.5 -137.5t-120.5 -60.5q-56 -2 -96 -2q-180 0 -378 33q-17 4 -27.5 17t-10.5 30v800q0 17 11 30t27 17q198 33 378 33t378 -33zM204 544h167q16 0 16 16v32q0 16 -16 16h-88l102 143q2 4 2 7v26q0 16 -16 16h-167
q-16 0 -16 -16v-32q0 -16 16 -16h89l-103 -143q-2 -6 -2 -7v-26q0 -16 16 -16zM464 544h32q16 0 16 16v224q0 16 -16 16h-32q-16 0 -16 -16v-224q0 -16 16 -16zM698 675q-11 -12 -31 -10q-7 0 -13 0.5t-10 1.5l-4 1v73q14 2 21 2q24 2 37 -13q6 -7 6 -26q0 -21 -6 -29z
M625 544q6 0 11 4.5t5 11.5v46q12 -2 25 -2h3q52 0 80 26q26 26 26 73q0 50 -26 75q-29 28 -90 28q-12 0 -27 -1t-24 -1l-10 -1q-9 -1 -15.5 -8.5t-6.5 -14.5v-220q0 -16 16 -16h33zM480 89h48q20 0 34 13.5t14 33.5v136q0 20 14 34t34 14h128q20 0 34 14t14 34v48h-640
v-302q156 -25 320 -25z" />
<glyph unicode="&#xec32;" horiz-adv-x="960" d="M858 927q16 -4 27 -17t11 -30v-560q0 -43 -61 -120t-138.5 -137.5t-120.5 -60.5q-56 -2 -96 -2q-180 0 -378 33q-17 4 -27.5 17t-10.5 30v800q0 17 11 30t27 17q198 33 378 33t378 -33zM279 536q45 0 73.5 26t33.5 72q4 35 0 76q-5 47 -32.5 72.5t-74.5 25.5
q-53 0 -68 -6q-19 -10 -19 -31v-198q0 -21 19 -31q12 -6 68 -6zM512 537q41 0 69 26t33 71q4 35 0 75q-4 45 -32 71.5t-70 26.5q-43 0 -70 -26.5t-32 -71.5q-4 -40 0 -75q5 -45 32.5 -71t69.5 -26zM544 704q3 -34 0 -64q-5 -40 -32 -40t-32 40q-3 30 0 64q4 40 32 40t32 -40
zM734 539q41 0 65 8q28 8 15 46q-8 23 -36 13q-17 -5 -34 -5q-33 0 -38 38q-4 24 0 67q3 36 38 36q5 0 10 -0.5t9.5 -1t8 -1.5t5.5 -1l2 -1q29 -8 35 14q13 38 -15 46q-24 8 -65 8q-42 0 -69 -26t-32 -70q-4 -40 0 -75q6 -44 33 -69.5t68 -25.5zM318 703q3 -33 0 -61
q-4 -39 -40 -39q-16 0 -22 1v136q3 0 10 0.5t12 0.5q21 0 29.5 -8t10.5 -30zM480 89h48q20 0 34 13.5t14 33.5v136q0 20 14 34t34 14h128q20 0 34 14t14 34v48h-640v-302q156 -25 320 -25z" />
<glyph unicode="&#xec33;" horiz-adv-x="960" d="M858 927q16 -4 27 -17t11 -30v-560q0 -43 -61 -120t-138.5 -137.5t-120.5 -60.5q-56 -2 -96 -2q-180 0 -378 33q-17 4 -27.5 17t-10.5 30v800q0 17 11 30t27 17q198 33 378 33t378 -33zM688 544h32q16 0 16 16v176h48q16 0 16 16v32q0 16 -16 16h-160q-16 0 -16 -16v-32
q0 -16 16 -16h48v-176q0 -16 16 -16zM512 704q0 -21 -6 -29q-11 -12 -31 -10q-5 0 -10 0.5t-8 1t-5 1t-3 0.5v73q14 2 20 2q24 2 37 -13q6 -7 6 -26zM288 704q0 -21 -6 -29q-11 -12 -31 -10q-5 0 -10 0.5t-8 1t-5 1t-3 0.5v73q14 2 20 2q24 2 37 -13q6 -7 6 -26zM209 544
q6 0 11 4.5t5 11.5v46q12 -2 25 -2h3q52 0 80 26q26 26 26 73q0 50 -26 75q-29 28 -90 28q-12 0 -27 -1t-24 -1l-10 -1q-9 -1 -15.5 -8.5t-6.5 -14.5v-220q0 -16 16 -16h33zM433 544q6 0 11 4.5t5 11.5v46q12 -2 25 -2h3q52 0 80 26q26 26 26 73q0 50 -26 75q-29 28 -90 28
q-12 0 -27 -1t-24 -1l-10 -1q-9 -1 -15.5 -8.5t-6.5 -14.5v-220q0 -16 16 -16h33zM480 89h48q20 0 34 13.5t14 33.5v136q0 20 14 34t34 14h128q20 0 34 14t14 34v48h-640v-302q156 -25 320 -25z" />
<glyph unicode="&#xec34;" horiz-adv-x="960" d="M858 927q16 -4 27 -17t11 -30v-560q0 -43 -61 -120t-138.5 -137.5t-120.5 -60.5q-56 -2 -96 -2q-180 0 -378 33q-17 4 -27.5 17t-10.5 30v800q0 17 11 30t27 17q198 33 378 33t378 -33zM503 537q45 0 73.5 26t33.5 71q4 36 0 76q-5 47 -32.5 72.5t-74.5 25.5
q-53 0 -68 -6q-19 -10 -19 -31v-197q0 -22 19 -30q9 -7 68 -7zM656 544h32q16 0 16 16v80h74q6 0 11 4.5t5 11.5v32q0 7 -5 11.5t-11 4.5h-74v32h80q16 0 16 16v32q0 16 -16 16h-128q-16 0 -16 -16v-224q0 -16 16 -16zM320 704q0 -21 -6 -29q-11 -12 -31 -10q-5 0 -10 0.5
t-8 1t-5 1t-3 0.5v73q14 2 20 2q24 2 37 -13q6 -7 6 -26zM502 603q-16 0 -22 1v136q3 0 10 0.5t12 0.5q21 0 29.5 -8t10.5 -30q3 -33 0 -61q-4 -39 -40 -39zM241 544q6 0 11 4.5t5 11.5v46q12 -2 25 -2h3q52 0 80 26q26 26 26 73q0 50 -26 75q-29 28 -90 28q-12 0 -27 -1
t-24 -1l-10 -1q-9 -1 -15.5 -8.5t-6.5 -14.5v-220q0 -16 16 -16h33zM480 89h48q20 0 34 13.5t14 33.5v136q0 20 14 34t34 14h128q20 0 34 14t14 34v48h-640v-302q156 -25 320 -25z" />
<glyph unicode="&#xec35;" horiz-adv-x="960" d="M858 927q16 -4 27 -17t11 -30v-560q0 -43 -61 -120t-138.5 -137.5t-120.5 -60.5q-56 -2 -96 -2q-180 0 -378 33q-17 4 -27.5 17t-10.5 30v800q0 17 11 30t27 17q198 33 378 33t378 -33zM512 704q0 -21 -6 -29q-11 -12 -31 -10q-7 0 -13 0.5t-10 1.5l-4 1v73q14 2 21 2
q24 2 37 -13q6 -7 6 -26zM705 538q27 0 78 17q18 8 18 38v63q0 16 -16 16h-33q-16 0 -16 -16v-30q0 -16 -2 -16h-1q-5 -5 -22 -5q-31 0 -36 36q-3 28 0 63t36 35l47 -6q12 -4 21.5 4.5t13.5 21.5q10 30 -16 39q-40 8 -72 8q-40 0 -67.5 -25t-31.5 -67q-5 -45 0 -84
q5 -42 32.5 -67t66.5 -25zM256 536q43 0 69.5 25.5t26.5 67.5v155q0 16 -16 16h-32q-16 0 -16 -16v-152q0 -32 -32 -32t-32 32v24q0 16 -16 16h-42q-16 0 -16 -16q0 -57 14 -77q18 -28 46 -37q17 -6 46 -6zM433 544q6 0 10.5 4.5t4.5 11.5v46q12 -2 26 -2h3q52 0 80 26
q26 26 26 73q0 50 -26 75q-29 28 -90 28q-12 0 -27 -1t-24 -1l-10 -1q-9 -1 -15.5 -8.5t-6.5 -14.5v-220q0 -16 16 -16h33zM480 89h48q20 0 34 13.5t14 33.5v136q0 20 14 34t34 14h128q20 0 34 14t14 34v48h-640v-302q156 -25 320 -25z" />
<glyph unicode="&#xec36;" horiz-adv-x="960" d="M858 927q16 -4 27 -17t11 -30v-560q0 -43 -61 -120t-138.5 -137.5t-120.5 -60.5q-56 -2 -96 -2q-180 0 -378 33q-17 4 -27.5 17t-10.5 30v800q0 17 11 30t27 17q198 33 378 33t378 -33zM282 675q-11 -12 -31 -10q-5 0 -10 0.5t-8 1t-5 1t-3 0.5v73q14 2 20 2q24 2 37 -13
q6 -7 6 -26q0 -21 -6 -29zM704 538q27 0 78 17q18 8 18 38v63q0 16 -16 16h-33q-16 0 -16 -16v-30q0 -16 -2 -16q-6 -5 -23 -5q-32 0 -36 36q-3 28 0 63t36 35l47 -6q12 -4 21.5 4.5t13.5 21.5q10 30 -16 39q-40 8 -72 8q-40 0 -67.5 -25t-31.5 -67q-5 -45 0 -84
q5 -42 32.5 -67t66.5 -25zM432 544q16 0 16 16v132l54 -138v-1q5 -9 14 -9h44q16 0 16 16v224q0 16 -16 16h-32q-16 0 -16 -16v-133l-52 139l-1 -1q-3 11 -14 11h-45q-16 0 -16 -16v-224q0 -16 16 -16h32zM209 544q6 0 11 4.5t5 11.5v46q12 -2 25 -2h3q52 0 80 26
q26 26 26 73q0 50 -26 75q-29 28 -90 28q-12 0 -27 -1t-24 -1l-10 -1q-9 -1 -15.5 -8.5t-6.5 -14.5v-220q0 -16 16 -16h33zM480 89h48q20 0 34 13.5t14 33.5v136q0 20 14 34t34 14h128q20 0 34 14t14 34v48h-640v-302q156 -25 320 -25z" />
<glyph unicode="&#xec76;" horiz-adv-x="960" d="M896 800q26 0 45 -19t19 -45v-640q0 -24 -16 -44.5t-40 -23.5q-218 -28 -424 -28t-424 28q-24 3 -40 23.5t-16 44.5v768q0 26 19 45t45 19h224q39 0 57 -35l47 -93h504zM462 182q18 -14 36 0q8 5 39.5 33t84 83t87.5 106q10 13 1 29q-8 15 -26 15h-108q-23 132 -37 149
q-18 25 -59 25t-59 -25q-14 -20 -37 -149h-108q-18 0 -26 -15q-9 -16 1 -29q35 -51 87.5 -106t84 -83t39.5 -33z" />
<glyph unicode="&#xec77;" horiz-adv-x="960" d="M896 800q26 0 45 -19t19 -45v-640q0 -24 -16 -44.5t-40 -23.5q-218 -28 -424 -28t-424 28q-24 3 -40 23.5t-16 44.5v768q0 26 19 45t45 19h224q39 0 57 -35l47 -93h504zM480 177q41 0 59 25q14 23 37 150h108q18 0 26 15t-1 29q-35 50 -87.5 105.5t-84 83.5t-39.5 33
q-18 14 -36 0q-8 -5 -39.5 -33t-84 -83.5t-87.5 -105.5q-9 -14 -1 -29t26 -15h108q23 -131 37 -150q18 -25 59 -25z" />
<glyph unicode="&#xec80;" horiz-adv-x="960" d="M896 800q26 0 45 -19t19 -45v-640q0 -24 -16 -44.5t-40 -23.5q-218 -28 -424 -28t-424 28q-24 3 -40 23.5t-16 44.5v768q0 26 19 45t45 19h224q39 0 57 -35l47 -93h504zM307 194q173 -21 346 0q58 9 90.5 49t32.5 87q0 36 -19.5 67t-55.5 48q6 21 6 43q0 64 -45.5 109.5
t-109.5 45.5q-70 0 -116 -53q-32 24 -70 24q-47 0 -81 -33.5t-34 -80.5q0 -27 11 -53q-38 -17 -58 -48.5t-20 -68.5q0 -47 32.5 -87t90.5 -49z" />
<glyph unicode="&#xec81;" horiz-adv-x="960" d="M896 800q26 0 45 -19t19 -45v-640q0 -24 -16 -44.5t-40 -23.5q-218 -28 -424 -28t-424 28q-24 3 -40 23.5t-16 44.5v768q0 26 19 45t45 19h224q39 0 57 -35l47 -93h504zM480 186q83 0 164 12q12 1 20 10.5t8 21.5v154q0 14 -9 23t-23 9v69q0 74 -43 114.5t-117 40.5
t-117 -40.5t-43 -114.5v-69q-14 0 -23 -9t-9 -23v-154q0 -12 8 -21t19 -11q83 -12 165 -12zM480 576q37 0 66.5 -22t29.5 -80v-58h-192v58q0 58 29.5 80t66.5 22z" />
<glyph unicode="&#xec83;" horiz-adv-x="960" d="M896 800q26 0 45 -19t19 -45v-640q0 -24 -16 -44.5t-40 -23.5q-218 -28 -424 -28t-424 28q-24 3 -40 23.5t-16 44.5v768q0 26 19 45t45 19h224q39 0 57 -35l47 -93h504zM480 188q23 0 34 1q13 1 21.5 10t8.5 22v108q32 18 52 49.5t20 69.5q0 56 -40 96t-96 40t-96 -40
t-40 -96q0 -38 19.5 -69.5t52.5 -49.5v-108q0 -13 8.5 -22t20.5 -10t35 -1z" />
<glyph unicode="&#xec87;" horiz-adv-x="960" d="M896 800q26 0 45 -19t19 -45v-640q0 -24 -16 -44.5t-40 -23.5q-218 -28 -424 -28t-424 28q-24 3 -40 23.5t-16 44.5v768q0 26 19 45t45 19h224q39 0 57 -35l47 -93h504zM480 216q128 0 244 10q19 1 31.5 15t12.5 33v254q0 20 -14 34t-34 14h-91l-26 47q-9 17 -27 17h-192
q-18 0 -27 -17l-26 -47h-91q-20 0 -34 -14t-14 -34v-254q0 -19 12.5 -33t31.5 -15q116 -10 244 -10zM480 544q53 0 90.5 -37.5t37.5 -90.5t-37.5 -90.5t-90.5 -37.5t-90.5 37.5t-37.5 90.5t37.5 90.5t90.5 37.5z" />
<glyph unicode="&#xec88;" horiz-adv-x="960" d="M896 800q26 0 45 -19t19 -45v-640q0 -24 -16 -44.5t-40 -23.5q-218 -28 -424 -28t-424 28q-24 3 -40 23.5t-16 44.5v768q0 26 19 45t45 19h224q39 0 57 -35l47 -93h504zM355 183q9 0 13 2q75 32 151.5 79.5t109.5 74t42 35.5q12 12 12 26t-12 26q-9 9 -42 35.5t-109.5 74
t-151.5 79.5q-16 6 -31 -3q-15 -8 -15 -26q-1 -3 -2.5 -28t-3.5 -70.5t-2 -87.5t2 -87.5t3.5 -70.5t2.5 -28q0 -18 16 -26q6 -5 17 -5z" />
<glyph unicode="&#xed00;" horiz-adv-x="960" d="M896 896q14 0 23 -9t9 -23v-256q0 -14 -9 -23t-23 -9h-47q-22 0 -30 20q-14 37 -21.5 53t-21 40.5t-26 35t-33 22.5t-47 17t-62.5 6v-566q0 -38 15.5 -54t50.5 -22q29 -6 65 -9q29 -4 29 -31v-56q0 -14 -9 -23t-23 -9h-512q-14 0 -23 9t-9 23v56q0 13 8 21t21 10
q37 3 65 9q35 6 50.5 22t15.5 54v566q-36 -1 -62.5 -6t-47 -17t-33 -22.5t-26 -35t-21 -40.5t-21.5 -53q-8 -20 -30 -20h-47q-14 0 -23 9t-9 23v256q0 14 9 23t23 9h832z" />
<glyph unicode="&#xed01;" horiz-adv-x="960" d="M366 384h205l-106 324zM320 896h300q24 0 32 -22l306 -832q6 -14 -4 -29q-11 -13 -28 -13h-204q-25 0 -33 23l-55 169h-327l-52 -169q-8 -23 -31 -23h-192q-16 0 -26 13q-10 15 -4 29l288 832q7 22 30 22z" />
<glyph unicode="&#xed11;" horiz-adv-x="960" d="M250 896h702q-46 -77 -75 -124t-75 -114.5t-82 -110t-87 -93t-99 -81t-108.5 -56t-125.5 -35.5l-151 -185q-22 -27 -56 -30.5t-61 18.5q-25 19 -30 50t11 57l128 210q-43 236 109 494zM896 64h-512q-26 0 -45 19t-19 45t19 45t45 19h512q26 0 45 -19t19 -45t-19 -45
t-45 -19z" />
<glyph unicode="&#xed50;" horiz-adv-x="960" d="M80 864q33 0 56.5 -23.5t23.5 -56.5t-23.5 -56.5t-56.5 -23.5t-56.5 23.5t-23.5 56.5t23.5 56.5t56.5 23.5zM319 704q-12 0 -21.5 9.5t-9.5 23.5v94q0 14 9 23.5t22 9.5h565q16 0 28 -9.5t13 -23.5q4 -47 0 -94q-1 -14 -13 -23.5t-28 -9.5h-565zM80 416q-33 0 -56.5 23.5
t-23.5 56.5t23.5 56.5t56.5 23.5t56.5 -23.5t23.5 -56.5t-23.5 -56.5t-56.5 -23.5zM884 416h-565q-12 0 -21.5 9.5t-9.5 23.5v94q0 14 9 23.5t22 9.5h565q16 0 28 -9.5t13 -23.5q4 -47 0 -94q-1 -14 -13 -23.5t-28 -9.5zM80 128q-33 0 -56.5 23.5t-23.5 56.5t23.5 56.5
t56.5 23.5t56.5 -23.5t23.5 -56.5t-23.5 -56.5t-56.5 -23.5zM884 128h-565q-12 0 -21.5 9.5t-9.5 23.5v94q0 14 9 23.5t22 9.5h565q16 0 28 -9.5t13 -23.5q4 -47 0 -94q-1 -14 -13 -23.5t-28 -9.5z" />
<glyph unicode="&#xeda0;" horiz-adv-x="960" d="M928 672h-896v192q0 26 19 45t45 19h768q26 0 45 -19t19 -45v-192zM864 32h-480v544h544v-480q0 -26 -19 -45t-45 -19zM288 32h-192q-26 0 -45 19t-19 45v480h256v-544z" />
<glyph unicode="&#xee00;" horiz-adv-x="960" d="M704 192v30q100 74 128 101v-128q0 -45 -30.5 -78.5t-75.5 -37.5q-153 -15 -310 -15t-310 15q-45 4 -75.5 37.5t-30.5 78.5v570q0 45 30.5 78.5t75.5 37.5q153 15 310 15q54 0 128 -2v-126h-416v-576h576zM668 294q-18 -12 -39 -2q-21 12 -21 33v158q-27 0 -49.5 -1.5
t-44 -6.5t-33 -7t-32 -11.5t-24.5 -11.5t-28 -15.5t-26 -14.5q-63 -36 -103 -16q-52 25 -37 91q6 25 35 60t76 70t118 59.5t148 24.5v155q0 21 21 33q20 9 39 -2q42 -28 86.5 -66t76.5 -71.5t61.5 -66.5t42.5 -49.5t17 -21.5q8 -11 8 -23t-8 -23q-66 -79 -92 -107
q-101 -107 -192 -168z" />
<glyph unicode="&#xee01;" horiz-adv-x="960" d="M948 570q17 -15 10 -39q-6 -22 -30 -27q-82 -16 -185.5 -20.5t-153.5 -2t-69 4.5q-14 2 -23 11t-11 23q-2 19 -4.5 69t2 153.5t20.5 185.5q5 24 27 30q24 7 39 -10l97 -97q134 96 180 107q40 9 80 -31t31 -80q-5 -17 -37.5 -73t-69.5 -107zM463 463q9 -9 11 -23
q2 -19 4.5 -69t-2 -153.5t-20.5 -185.5q-5 -24 -27 -30q-22 -8 -39 9l-98 98q-53 -39 -106.5 -71t-72.5 -36q-40 -9 -80 31t-31 80q5 17 37.5 73t69.5 107l-98 97q-17 17 -9 39q6 22 30 27q82 16 185.5 20.5t153.5 2t69 -4.5q13 -2 23 -11z" />
<glyph unicode="&#xee02;" horiz-adv-x="960" d="M156 484q0 -153 23 -291q158 -33 301 -38v-154q-89 4 -188.5 18t-140 22.5t-60.5 13.5q-22 5 -38.5 21t-21.5 37q-31 186 -31 371q0 36 1 71.5t3 65t4 57t5 50t5.5 41t5 33t4 24t2.5 16.5l2 6q5 21 21 36.5t38 20.5q20 5 60.5 13.5t140 22t188.5 17.5v-153
q-146 -6 -301 -38q-23 -133 -23 -283zM609 189q-7 0 -17 4q-16 9 -16 33v126q-79 9 -171.5 26.5t-107.5 26.5q-41 24 -41 74q0 52 41 74q15 9 108.5 27t170.5 26v126q0 24 16 33q21 10 38 -2q66 -44 138.5 -109t108.5 -104t43 -48q19 -22 0 -46q-6 -9 -43 -47.5t-109 -103.5
t-138 -110q-9 -6 -21 -6z" />
<glyph unicode="&#xee03;" horiz-adv-x="960" d="M928 848l2 -6q1 -7 2.5 -16.5t4 -24t5 -33t5.5 -41t5 -50t4 -57t3 -65t1 -71.5q0 -185 -31 -371q-5 -21 -21.5 -37t-38.5 -21q-20 -5 -60.5 -13.5t-140 -22.5t-188.5 -18v154q143 5 301 38q22 132 22 291q0 156 -22 283q-155 32 -301 38v153q89 -4 188.5 -17.5t140 -22
t60.5 -13.5q22 -5 38 -20.5t21 -36.5zM354 189q-7 0 -17 4q-17 10 -17 33v126q-78 9 -169.5 26.5t-106.5 26.5q-41 24 -41 74q0 52 41 74q15 9 107 27t169 26v126q0 23 17 33q20 10 38 -2q66 -44 138.5 -109t110 -104t43.5 -48q19 -22 0 -46q-6 -9 -43.5 -48t-110 -103.5
t-138.5 -109.5q-9 -6 -21 -6z" />
<glyph unicode="&#xee04;" horiz-adv-x="960" d="M73 520q-18 5 -21 24q-12 64 -15.5 144t-2 122t3.5 53q0 10 8 18q7 7 19 9q11 2 53 3.5t122 -2t144 -15.5q19 -3 24 -21t-8 -31l-76 -76q76 -106 84 -141q7 -31 -25 -63t-62 -24q-38 11 -141 84l-76 -76q-13 -13 -31 -8zM603 748l-76 76q-13 13 -8 30q7 19 24 22
q65 12 145 15.5t122 2t53 -3.5q12 -2 18 -9q7 -6 9 -18q2 -11 3.5 -53t-2 -122t-15.5 -145q-3 -17 -22 -24q-17 -5 -30 8l-76 76q-107 -74 -141 -83q-31 -8 -63 24t-24 63q8 33 83 141zM863 38q-11 -2 -53 -3.5t-122 2t-145 15.5q-19 3 -24 21t8 31l76 77q-75 103 -84 141
q-8 30 24 62q33 33 63 25q14 -4 58 -29.5t83 -54.5l77 76q13 13 30 8q19 -5 22 -24q12 -65 15.5 -145t2 -122t-3.5 -53q-2 -12 -9 -19q-8 -8 -18 -8zM324 180l77 -76q13 -13 7 -31q-5 -18 -23 -21q-65 -12 -145 -15.5t-122 -2t-53 3.5q-9 0 -19 8q-8 10 -8 19q-2 11 -3.5 53
t2 122t15.5 145q3 18 21 23q18 6 31 -7l76 -77q105 75 141 84q31 8 63 -24t24 -63q-11 -38 -84 -141z" />
<glyph unicode="&#xee05;" horiz-adv-x="960" d="M525 525q-7 6 -9 18q-2 11 -3.5 53t2 122t15.5 145q5 18 22 23q16 7 30 -7l76 -76q107 74 141 83q31 8 63 -24t24 -63q-8 -33 -83 -141l76 -76q13 -13 8 -30q-7 -19 -24 -22q-65 -12 -145 -15.5t-122 -2t-53 3.5q-12 2 -18 9zM385 516q-11 -2 -53 -3.5t-122 2t-145 15.5
q-18 3 -23 22q-7 16 7 30l76 76q-74 107 -83 141q-8 31 24 63t63 24q33 -8 141 -83l76 76q13 13 30 7q17 -5 22 -23q12 -65 15.5 -145t2 -122t-3.5 -53q-2 -12 -9 -18q-7 -7 -18 -9zM376 41q-17 -5 -31 8l-76 76q-105 -74 -141 -83q-30 -8 -62 24q-33 33 -25 63
q4 14 29.5 57.5t54.5 83.5l-76 76q-13 13 -8 31q7 18 24 21q65 12 145 15.5t122 2t53 -3.5q9 0 18 -9q7 -6 9 -18q2 -11 3.5 -53t-2 -122t-15.5 -145q-5 -18 -22 -24zM582 49q-13 -13 -30 -8q-17 6 -22 24q-12 65 -15.5 145t-2 122t3.5 53q2 12 9 18q6 7 18 9q11 2 53 3.5
t122 -2t145 -15.5q17 -3 24 -21q5 -18 -8 -31l-76 -76q72 -101 84 -141q6 -32 -25 -63q-32 -32 -63 -24q-34 8 -140 83z" />
<glyph unicode="&#xef20;" horiz-adv-x="960" d="M98 663q-2 9 -34.5 30.5t-53 45.5t-1.5 46q11 15 42 13.5t60.5 -10.5t61 -16.5t45.5 -3.5q12 4 40 27t59 50t86 56t117 44q47 11 90 11q91 0 166 -34.5t86 -71.5q6 -14 1.5 -36t-13 -46.5t-28.5 -51.5t-45.5 -50.5t-64.5 -44t-85 -31.5q-61 -15 -117 -13
q-56 0 -112.5 13.5t-90.5 24t-45 7.5q-14 -4 -47 -35t-67.5 -56t-58.5 -18q-21 7 -23.5 28.5t7.5 44t18.5 46t6.5 31.5zM640 872q-29 0 -50 -21t-21 -51t21 -51t50 -21q30 0 51 21t21 51t-21 51t-51 21zM957 371q7 -25 -5.5 -65.5t-42.5 -84.5t-88.5 -83.5t-132.5 -57.5
q-60 -14 -120 -14q-64 0 -128 16t-102 29.5t-50 9.5q-15 -4 -52 -38.5t-75.5 -61.5t-64.5 -19q-23 7 -25.5 30.5t8.5 48.5t21 51t8 34q-3 9 -38.5 33t-58 50.5t-1.5 49.5q13 17 46.5 16t65.5 -10t66.5 -16t49.5 -3q14 4 44.5 27.5t65.5 50t95.5 56.5t127.5 45q54 12 109 12
q100 0 182.5 -33.5t94.5 -72.5zM736 252q29 0 49 20t20 48t-20 48t-49 20q-28 0 -48 -20t-20 -48t20 -48t48 -20z" />
<glyph unicode="&#xef21;" horiz-adv-x="960" d="M959 426q2 -87 -73 -171t-201 -117l-62 -86q-20 -29 -41.5 -40.5t-59.5 -11.5h-156q-26 0 -37 16.5t1 39.5l64 121q-26 19 -55.5 48.5t-48.5 46t-34 16.5q-23 0 -56.5 -26t-59.5 -53t-58.5 -43t-53.5 3q-19 14 -20 37t10.5 50t26 55t26.5 60t11 57q0 25 -12.5 59
t-26.5 63t-25 58t-9.5 51.5t21.5 35.5q23 12 43 4.5t45 -28t46 -42t46.5 -38.5t45.5 -17q16 0 35 17t49 50t53 53l-84 160q-12 23 4.5 46t43.5 23h142q38 0 59.5 -11t41.5 -40l102 -131q67 -23 120 -69t80.5 -94.5t42 -88t14.5 -63.5zM736 416q26 0 45 19t19 45t-19 45
t-45 19t-45 -19t-19 -45t19 -45t45 -19z" />
<glyph unicode="&#xef70;" horiz-adv-x="960" d="M382 32q30 249 111 499t162 379q10 15 27 19.5t33 -5.5t19.5 -27t-1.5 -23q-57 -218 -75 -483q93 117 202 212q13 11 31 9.5t29 -14.5q18 -21 5 -46q-53 -102 -90.5 -252t-36.5 -268h-416zM388 430q-50 -180 -73 -398h-125q5 173 -37.5 381.5t-117.5 357.5q-8 16 -2 34.5
t23 26.5q29 15 52 -10q158 -164 280 -392z" />
<glyph unicode="&#xf000;" horiz-adv-x="960" d="M480 960q130 0 240.5 -64.5t175 -175t64.5 -240.5t-64.5 -240.5t-175 -175t-240.5 -64.5t-240.5 64.5t-175 175t-64.5 240.5t64.5 240.5t175 175t240.5 64.5zM480 726q31 0 52.5 21.5t21.5 52.5t-21.5 52.5t-52.5 21.5t-52.5 -21.5t-21.5 -52.5t21.5 -52.5t52.5 -21.5z
M480 186q56 0 96.5 39.5t40.5 94.5q0 52 -24 83l86 271q9 24 -13 39q-12 7 -25.5 4t-20.5 -15l-158 -250q-49 -7 -82.5 -44.5t-33.5 -87.5q0 -56 39 -95t95 -39zM800 406q31 0 52.5 21.5t21.5 52.5t-21.5 52.5t-52.5 21.5t-52.5 -21.5t-21.5 -52.5t21.5 -52.5t52.5 -21.5z
M160 406q31 0 52.5 21.5t21.5 52.5t-21.5 52.5t-52.5 21.5t-52.5 -21.5t-21.5 -52.5t21.5 -52.5t52.5 -21.5z" />
<glyph unicode="&#xf004;" horiz-adv-x="960" d="M480 960q130 0 240.5 -64.5t175 -175t64.5 -240.5t-64.5 -240.5t-175 -175t-240.5 -64.5t-240.5 64.5t-175 175t-64.5 240.5t64.5 240.5t175 175t240.5 64.5zM480 160q57 0 98 13.5t59.5 35t26 39t8.5 35.5q8 105 -8.5 245.5t-50.5 257.5q-6 20 -23 33t-38 13h-40v-192
h-64v192h-40q-21 0 -38 -13t-23 -33q-35 -117 -51.5 -257.5t-7.5 -245.5q1 -18 8.5 -35.5t26 -39t59.5 -35t98 -13.5z" />
<glyph unicode="&#xf036;" horiz-adv-x="960" d="M896 960q26 0 45 -19t19 -45v-448q0 -26 -19 -45t-45 -19h-643q-53 0 -90.5 -37.5t-37.5 -90.5t37.5 -90.5t90.5 -37.5h451q13 0 22.5 9.5t9.5 22.5t-9.5 22.5t-22.5 9.5h-416q-26 0 -45 19t-19 45t19 45t45 19h416q66 0 113 -47t47 -113t-47 -113t-113 -47h-451
q-105 0 -179 75t-74 181v448q0 106 74 181t179 75h3v-224h96v224h128v-384h96v384h128v-224h96v224h96z" />
<glyph unicode="&#xf070;" horiz-adv-x="960" d="M890 829q17 -4 27.5 -17t10.5 -30v-699q0 -17 -10.5 -30t-27.5 -17l-8 -2q-7 -1 -19 -3t-29 -5t-39 -5.5t-47.5 -5.5t-56 -6t-63 -5t-71 -3t-77.5 -1t-77.5 1t-71 3t-63 5t-56 6t-47.5 5.5t-39 5.5t-29 5t-19 3l-8 2q-17 4 -27.5 17t-10.5 30v699q0 17 10.5 30t27.5 17
q1 0 11.5 2t32.5 5.5t46 6.5v-59q0 -33 23.5 -56.5t56.5 -23.5q9 0 25 4q-41 17 -41 53v135q0 26 19 45t45 19t45 -19t19 -45v-35q60 3 128 3q43 0 64 -1v-79q0 -33 23.5 -56.5t56.5 -23.5q9 0 25 4q-41 17 -41 53v135q0 26 19 45t45 19t45 -19t19 -45v-45q96 -10 154 -22z
M448 154h70q14 0 23 9t9 23v128h128q14 0 23 9t9 23v76q0 14 -9 23t-23 9h-128v128q0 14 -9 23t-23 9h-76q-14 0 -23 -9t-9 -23v-128h-128q-14 0 -23 -9t-9 -23v-76q0 -14 9 -23t23 -9h128v-128q0 -13 12 -22.5t26 -9.5z" />
<glyph unicode="&#xf071;" horiz-adv-x="960" d="M890 829q17 -4 27.5 -17t10.5 -30v-699q0 -17 -10.5 -30t-27.5 -17l-8 -2q-7 -1 -19 -3t-29 -5t-39 -5.5t-47.5 -5.5t-56 -6t-63 -5t-71 -3t-77.5 -1t-77.5 1t-71 3t-63 5t-56 6t-47.5 5.5t-39 5.5t-29 5t-19 3l-8 2q-17 4 -27.5 17t-10.5 30v699q0 17 10.5 30t27.5 17
q1 0 11.5 2t32.5 5.5t46 6.5v-59q0 -33 23.5 -56.5t56.5 -23.5q9 0 25 4q-41 17 -41 53v135q0 26 19 45t45 19t45 -19t19 -45v-35q60 3 128 3q43 0 64 -1v-79q0 -33 23.5 -56.5t56.5 -23.5q9 0 25 4q-41 17 -41 53v135q0 26 19 45t45 19t45 -19t19 -45v-45q96 -10 154 -22z
M282 314h396q14 0 23 9t9 23v76q0 14 -9 23t-23 9h-396q-14 0 -23 -9t-9 -23v-76q0 -14 9 -23t23 -9z" />
<glyph unicode="&#xf072;" horiz-adv-x="960" d="M890 829q17 -4 27.5 -17t10.5 -30v-699q0 -17 -10.5 -30t-27.5 -17l-8 -2q-7 -1 -19 -3t-29 -5t-39 -5.5t-47.5 -5.5t-56 -6t-63 -5t-71 -3t-77.5 -1t-77.5 1t-71 3t-63 5t-56 6t-47.5 5.5t-39 5.5t-29 5t-19 3l-8 2q-17 4 -27.5 17t-10.5 30v699q0 17 10.5 30t27.5 17
q1 0 11.5 2t32.5 5.5t46 6.5v-59q0 -33 23.5 -56.5t56.5 -23.5q9 0 25 4q-41 17 -41 53v135q0 26 19 45t45 19t45 -19t19 -45v-35q60 3 128 3q43 0 64 -1v-79q0 -33 23.5 -56.5t56.5 -23.5q9 0 25 4q-41 17 -41 53v135q0 26 19 45t45 19t45 -19t19 -45v-45q96 -10 154 -22z
M395 177q19 -27 48.5 -26.5t48.5 26.5l251 356q14 19 -2 33q-19 17 -85 53q-8 4 -17.5 1.5t-14.5 -10.5l-181 -274l-103 155q-14 19 -33 9q-38 -22 -72 -52q-16 -14 -2 -34q144 -213 162 -237z" />
<glyph unicode="&#xf073;" horiz-adv-x="960" d="M890 829q17 -4 27.5 -17t10.5 -30v-699q0 -17 -10.5 -30t-27.5 -17l-8 -2q-7 -1 -19 -3t-29 -5t-39 -5.5t-47.5 -5.5t-56 -6t-63 -5t-71 -3t-77.5 -1t-77.5 1t-71 3t-63 5t-56 6t-47.5 5.5t-39 5.5t-29 5t-19 3l-8 2q-17 4 -27.5 17t-10.5 30v699q0 17 10.5 30t27.5 17
q1 0 11.5 2t32.5 5.5t46 6.5v-59q0 -33 23.5 -56.5t56.5 -23.5q9 0 25 4q-41 17 -41 53v135q0 26 19 45t45 19t45 -19t19 -45v-35q60 3 128 3q43 0 64 -1v-79q0 -33 23.5 -56.5t56.5 -23.5q9 0 25 4q-41 17 -41 53v135q0 26 19 45t45 19t45 -19t19 -45v-45q96 -10 154 -22z
M581 191q9 -9 22.5 -9t22.5 9l47 47q9 9 9 22.5t-9 22.5l-101 101l101 101q9 9 9 22.5t-9 22.5l-47 47q-9 9 -22.5 9t-22.5 -9l-101 -101l-101 101q-9 9 -22.5 9t-22.5 -9l-47 -47q-9 -9 -9 -22.5t9 -22.5l101 -101l-101 -101q-9 -9 -9 -22.5t9 -22.5l47 -47q9 -9 22.5 -9
t22.5 9l101 101z" />
<glyph unicode="&#xf103;" horiz-adv-x="960" d="M925 865q47 -70 29 -162q-51 -258 -245 -451q-197 -198 -451 -248q-19 -4 -42 -4q-76 0 -136 49t-75 124q-16 88 33.5 162t136.5 91q126 25 231 130q104 104 129 230q15 76 74.5 125t136.5 49q14 0 42 -4q87 -17 137 -91zM195 130q42 0 71.5 29t29.5 71q0 15 -7 34
q140 50 252 162q146 146 182 323q13 65 65 107q-12 4 -19 6q-14 2 -23 2q-42 0 -75 -27.5t-41 -68.5q-31 -156 -157 -280q-127 -127 -280 -156l-9 -3q-38 -5 -63.5 -33t-25.5 -66q0 -42 29.5 -71t70.5 -29z" />
<glyph unicode="&#xf105;" horiz-adv-x="960" d="M784 507q20 41 48 44q57 -73 91.5 -147.5t34.5 -113.5q0 -86 -71 -143t-182 -71q-113 -12 -225 -12t-223 12q-111 14 -183 71t-72 143q0 28 13 73t38 101.5t67 111.5t94 100.5t124.5 70.5t153.5 20q91 -5 186 -69q22 27 27.5 54t1.5 44.5t5 44.5q11 29 32.5 37.5t42 -1
t33.5 -27.5q8 -14 11 -25q8 -32 -14 -75q60 32 102 3q18 -13 26 -33.5t-1.5 -42t-38.5 -31.5q-17 -5 -36 -5.5t-34.5 1t-38.5 -9t-49 -36.5q-30 -29 -56 -110q-4 -11 -12 -39t-13 -42t-15 -35t-24 -35.5t-33 -25.5q-46 -27 -99 -18.5t-91 47.5q-26 27 -39 58q-6 7 -10 6
q-8 -4 -5 -32q9 -39 34 -72q41 -55 112 -69q20 -5 48 -5q113 0 175 115q15 28 39 98q14 43 26 70z" />
<glyph unicode="&#xf106;" horiz-adv-x="960" d="M885 691q43 -94 43 -175q0 -182 -227 -366q-88 -72 -190.5 -111t-200.5 -39q-77 0 -134 25t-83 70q-19 33 -26 67t-0.5 70t14.5 62t23 66q5 12 7 18q44 121 44 123q11 38 9 96q-1 45 -2 87.5t16.5 93.5t56.5 93q84 89 220 89q130 0 253.5 -77t176.5 -192zM310 95
q81 0 169.5 34.5t162.5 94.5q192 155 192 294q0 63 -35 136q-40 88 -141.5 150.5t-202.5 62.5q-95 0 -149 -59q-27 -28 -39.5 -64t-12.5 -70t1 -73q2 -83 -10 -125q-12 -46 -48 -134q-22 -54 -30.5 -82.5t-8 -59.5t15.5 -58q28 -47 136 -47zM239 226l62 166q6 16 10 23
t14 17.5t23 14.5q15 5 64.5 -7t107.5 -31t60 -20q17 -4 22.5 16.5t-10.5 27.5q-4 2 -55 19t-102.5 35.5t-64.5 26.5q-38 23 -40 84v6q-3 62 2 92.5t28 54.5q33 36 95 36q79 0 160 -50.5t113 -118.5q28 -62 27 -104q-2 -99 -162 -228q-65 -53 -139.5 -83.5t-142.5 -30.5
q-25 0 -41 4q-17 3 -26 19q-10 14 -5 31z" />
<glyph unicode="&#xf110;" horiz-adv-x="960" d="M936 615q23 -100 23 -179q0 -130 -58 -215q-73 -111 -240 -150q-11 -31 -17 -43q-9 -21 -41 -25q-57 -3 -116 -3t-117 3q-32 4 -41 25q-6 13 -16 41q-177 36 -255 152q-57 85 -57 214q0 87 23 180q3 15 17 21q12 6 26 1q64 -28 122 -74q0 29 8 54q14 53 56 74
q-10 17 -13 39q-7 56 44.5 136t115.5 92q12 2 18 2q32 0 56 -18q4 -4 6 -5q2 1 6 5q24 18 56 18q6 0 18 -2q64 -12 115.5 -92t44.5 -136q-3 -22 -13 -39q42 -21 56 -74q6 -23 8 -54q58 46 122 74q14 5 26 -1q14 -6 17 -21zM301 448h117q13 0 21.5 8.5t8.5 21.5v132
q0 12 -8.5 21t-21.5 9h-117q-31 0 -43 -41q-5 -22 -5 -49q0 -53 15.5 -77.5t32.5 -24.5zM418 896q-4 0 -6 -1q-37 -7 -74.5 -66t-33.5 -92q2 -15 13 -24t28 -9h73q13 0 21.5 8t8.5 19v138q0 13 -11 21q-9 6 -19 6zM523 890q-11 -8 -11 -21v-138q0 -11 8.5 -19t21.5 -8h73
q17 0 28 9t13 24q4 33 -33.5 92t-74.5 66q-2 1 -6 1q-10 0 -19 -6zM659 640h-117q-13 0 -21.5 -9t-8.5 -21v-132q0 -13 8.5 -21.5t21.5 -8.5h117q17 0 32.5 24.5t15.5 77.5q0 27 -5 49q-12 41 -43 41zM638 384h-96q-13 0 -21.5 -9t-8.5 -21v-138q0 -19 19 -28q12 -3 32 -5
h-5h10h-5q49 3 83 52t34 94q0 28 -12.5 41.5t-29.5 13.5zM448 354q0 12 -8.5 21t-21.5 9h-96q-17 0 -29.5 -13.5t-12.5 -41.5q0 -45 34 -94t83 -52h-5h9h-4q20 2 32 5q19 9 19 28v138z" />
<glyph unicode="&#xf111;" horiz-adv-x="960" d="M845 724q2 0 6 -0.5t15.5 -3.5t20.5 -7t19 -12t15 -18.5t4 -27t-10 -35.5q-12 -25 -35 -33.5t-50.5 -5t-61 3.5t-65.5 -8q27 -47 29 -97.5t-28.5 -108.5t-94.5 -109q-185 -145 -464 -250q-42 -15 -74.5 -11.5t-49.5 20.5t-20.5 50t11.5 74q37 99 83 193q101 16 196 -45
q14 -9 27 2q7 6 7.5 15t-5.5 15q-71 78 -177 104q44 77 77 123q17 5 34 7.5t30.5 3.5t29.5 -0.5t26.5 -3t25 -6.5t22 -7.5t20.5 -9t16.5 -8.5t15 -9t12.5 -7q14 -11 26 1q16 14 3 30q-71 82 -180 109q68 65 145.5 76t133.5 -27q3 19 7 57t7 61t8 48t11 37q25 51 73 51.5
t63 -53.5q4 -16 6.5 -34t2.5 -28v-11q4 2 10.5 6t24.5 12t33.5 11.5t32 0.5t24.5 -16q10 -23 1.5 -49.5t-24.5 -47.5z" />
<glyph unicode="&#xf122;" horiz-adv-x="960" d="M336 -2q-24 0 -77 32t-124 103q-112 112 -133 186q-8 26 9 46q160 195 339 359q81 73 188 73q52 0 101 -20l177 175q10 10 23 10t23 -10l91 -91q7 -8 7 -23t-7 -22l-175 -178q30 -71 16.5 -149t-68.5 -140q-164 -178 -357 -337q-14 -14 -33 -14zM629 424l-205 205
l-190 -190l205 -205z" />
<glyph unicode="&#xf127;" horiz-adv-x="960" d="M608 576h-448v96q-3 1 -7 4t-15 13.5t-19.5 24t-15.5 36.5t-7 50q0 55 40.5 91.5t107.5 36.5q32 0 67 -16t54 -32l19 -16q8 7 21 17.5t50 28.5t69 18q67 0 107.5 -36.5t40.5 -91.5q0 -27 -6.5 -50t-16 -36.5t-19 -23.5t-16.5 -14l-6 -4v-96zM671 459q12 -69 64 -347
q4 -25 -9.5 -46.5t-38.5 -27.5q-158 -38 -319 -38t-319 38q-25 6 -38.5 27.5t-9.5 46.5q37 199 64 347q4 23 22 38t41 15h480q23 0 41 -15t22 -38zM959 461q5 -23 -5.5 -43t-31.5 -29l-147 -65l-25 147q-3 20 -14 41h160q23 0 40.5 -14.5t22.5 -36.5z" />
<glyph unicode="&#xf128;" horiz-adv-x="960" d="M864 399q0 -69 -44 -127q12 -30 12 -65q0 -75 -52.5 -134.5t-126.5 -67.5q-28 -3 -57.5 -4t-73.5 0t-58 1t-58 -1t-73.5 0t-57.5 4q-74 8 -126.5 67.5t-52.5 134.5q0 35 12 65q-44 58 -44 127q0 67 42 118q-10 29 -10 62q0 73 48.5 126.5t119.5 60.5v1q0 101 24 156
q7 13 19 18l7 2q6 2 19 4.5t30.5 5t44.5 4.5t56 2t56 -2t44.5 -4.5t30.5 -5t19 -4.5l7 -2q12 -5 19 -18q24 -57 24 -156v-1q71 -7 119.5 -60.5t48.5 -126.5q0 -29 -10 -62q42 -51 42 -118zM286 101q177 -20 356 0q37 4 65.5 36t28.5 70q0 26 -14 44q-11 14 -8.5 32.5
t15.5 30.5q39 37 39 85q0 43 -34 69q-13 11 -16.5 28.5t4.5 32.5q14 26 14 50q0 38 -26.5 65.5t-63.5 27.5h-365q-37 0 -63 -27.5t-26 -65.5q0 -26 14 -50q8 -15 4.5 -32.5t-17.5 -28.5q-33 -27 -33 -69q0 -48 39 -85q14 -12 15.5 -30.5t-9.5 -32.5q-13 -19 -13 -44
q0 -38 28.5 -70t65.5 -36zM464 223q-64 0 -104 35t-40 91q0 70 122 186q22 19 43 0t43 -42t51 -67.5t29 -76.5q0 -56 -40 -91t-104 -35z" />
<glyph unicode="&#xf129;" horiz-adv-x="960" d="M439 457q-31 -30 -54.5 -105t-32.5 -133q-5 -27 -32 -27t-32 27q-9 58 -32.5 133t-54.5 105q-25 25 -69.5 47t-74 31t-33.5 9q-24 7 -24 31q0 26 24 31l7 2q7 2 18.5 6t26.5 9.5t32 13t33 16t32 19.5t28 23q31 30 54.5 105t32.5 133q5 27 32 27t32 -27q9 -58 32.5 -133
t54.5 -105q25 -25 70 -47t74 -31.5t33 -9.5q24 -7 24 -31t-24 -31q-4 0 -33 -9.5t-74 -31.5t-70 -47zM624 3q-161 0 -221 20q-16 5 -19 20q-1 13 11 25q31 30 149 70v125q-44 6 -79 21q21 79 41 103q1 0 5.5 4t7.5 6q48 -16 105 -16q32 0 61.5 5t63 18t56 42t27.5 70
q10 86 -17 220h-269q-26 13 -39 26q-19 21 -41 102h399q22 0 39.5 -13.5t22.5 -34.5q45 -181 30 -312q-11 -97 -78 -160.5t-175 -80.5v-125q118 -40 149 -70q12 -12 11 -25q-3 -15 -19 -20q-60 -20 -221 -20z" />
<glyph unicode="&#xf130;" horiz-adv-x="960" d="M811 542q26 18 23 42q-6 44 -106 144q-99 99 -145 106q-11 2 -23 -5t-19 -19q-74 -115 -148 -289l127 -127q178 76 291 148zM958 601q7 -48 -14.5 -93t-64.5 -73q-106 -67 -265 -138q15 -30 0 -58q-44 -90 -136 -136q-14 -6 -28 -6q-27 0 -45 18l-292 291q-32 32 -12 73
q45 90 137 136q28 14 57 -1q68 154 139 265q27 42 73 64t93 16q50 -7 101 -42t116 -100q130 -128 141 -216zM64 192q-26 0 -45 19t-19 45t19 45t45 19t45 -19t19 -45t-19 -45t-45 -19zM256 0q-26 0 -45 19t-19 45t19 45t45 19t45 -19t19 -45t-19 -45t-45 -19zM64 0
q-26 0 -45 19t-19 45t19 45t45 19t45 -19t19 -45t-19 -45t-45 -19z" />
<glyph unicode="&#xf131;" horiz-adv-x="960" d="M943 695q27 -26 11 -67q-26 -75 -108 -117l-334 335q41 82 113 108q43 17 71 -11l73 -73q2 38 29.5 63t65.5 25q39 1 66.5 -27t27.5 -68q0 -38 -25 -65t-63 -29zM447 97q-27 0 -46 18l-286 286q-22 22 -17 55q15 90 81 135q40 27 152 60q57 16 91 41t54 67l283 -283
q-40 -18 -65 -52q-27 -37 -43 -94q-13 -45 -20.5 -68t-23.5 -56.5t-34 -51.5t-47.5 -34t-68.5 -22q-2 0 -5.5 -0.5t-4.5 -0.5zM64 192q-26 0 -45 19t-19 45t19 45t45 19t45 -19t19 -45t-19 -45t-45 -19zM256 0q-26 0 -45 19t-19 45t19 45t45 19t45 -19t19 -45t-19 -45
t-45 -19zM64 0q-26 0 -45 19t-19 45t19 45t45 19t45 -19t19 -45t-19 -45t-45 -19z" />
<glyph unicode="&#xf132;" horiz-adv-x="960" d="M832 477v-168q31 -41 31 -93q0 -75 -54.5 -135t-130.5 -69q-99 -12 -198 -12q-100 0 -199 12q-76 9 -130.5 69t-54.5 135q0 50 32 93v168q-32 47 -32 103q0 77 56 132t135 56h32q3 97 18 151q5 13 16 19q55 22 128 22q84 0 128 -22q13 -6 16 -20q15 -48 18 -150h28
q80 -1 136.5 -56t56.5 -132q0 -56 -32 -103zM384 213q41 -20 86 -18q52 2 99 29.5t73 75.5q41 71 23 147t-93 109q-40 18 -80 18q-54 0 -100 -30.5t-75 -83.5q-38 -72 -18 -143.5t85 -103.5zM541 484q29 -15 42 -40.5t2 -46.5t-40 -25.5t-59 10.5q-29 15 -42 40.5t-2 46.5
q11 22 40 26t59 -11z" />
<glyph unicode="&#xf133;" horiz-adv-x="960" d="M352 800q-32 0 -32 32v96q0 14 9 23t23 9h256q14 0 23 -9t9 -23v-96q0 -14 -9 -23t-23 -9h-256zM653 598q115 -92 115 -204v-249q0 -45 -29 -80t-73 -45q-90 -20 -189 -20t-189 20q-43 10 -69.5 45t-26.5 80v249q0 105 105 195q18 15 25.5 22.5t18.5 33.5t11 59v32h256
v-29q1 -70 45 -109zM531 106q42 13 69.5 45.5t34.5 79.5q6 47 -6 93t-31.5 76.5t-44.5 57t-39 37t-20 13.5q-17 12 -35 0q-8 -6 -19.5 -14.5t-38 -36t-45 -57.5t-31 -76t-6.5 -93t33.5 -79.5t70.5 -45.5q-7 16 -9 36q-9 83 52 134l1 1q10 7 19 0q7 -5 18 -16t25.5 -45.5
t10.5 -73.5q-1 -14 -9 -36z" />
<glyph unicode="&#xf136;" horiz-adv-x="960" d="M873 481q22 -40 22 -110q1 -88 -31 -178.5t-81 -124.5q-37 -26 -121.5 -42t-145 -19t-116.5 -3q-34 0 -46 2q-32 3 -113 66.5t-126 122.5q-59 79 -49 136q9 56 88 135t169 137t138 67q16 2 27 2q85 0 216.5 -61t168.5 -130zM727 146q28 20 52 92.5t25 135.5q0 40 -12 62
q-23 42 -133.5 92.5t-170.5 50.5q-7 0 -9 -1q-18 -3 -60 -26q63 -29 125 -78t81 -90q24 -62 8 -145.5t-51 -131.5q112 15 145 39zM187 610q-19 -1 -30 17q-36 65 -17 124q11 35 44 63q16 13 53 31q12 5 29.5 12.5t29 12.5t18.5 10q12 7 19 17q8 10 15 33l2 4q4 13 16 19
t25 1q16 -4 21 -21q11 -30 4 -65q-7 -34 -37 -64q-28 -27 -99 -57q-27 -11 -34 -16q-14 -11 -17 -15q-13 -17 -11 -72q1 -13 -8 -23t-23 -11zM692 708q-14 -2 -25.5 6t-13.5 22q-3 15 6 26l2 2q3 4 14 18.5t15 20.5q9 16 11 27q3 10 -2 32q-2 10 -14 50q-4 13 3 25.5
t21 16.5q15 5 28 -5q27 -18 46 -51q23 -39 16 -83q-6 -45 -42 -76q-31 -25 -65 -31z" />
<glyph unicode="&#xf140;" horiz-adv-x="960" d="M923 821q74 -341 0 -682q-7 -28 -28 -48.5t-49 -24.5q-182 -34 -366 -34q-186 0 -366 34q-28 4 -49 24.5t-28 48.5q-74 341 0 682q7 28 28 48.5t49 24.5q180 34 366 34q184 0 366 -34q28 -4 49 -24.5t28 -48.5zM480 662q31 0 52.5 21.5t21.5 52.5t-21.5 52.5t-52.5 21.5
t-52.5 -21.5t-21.5 -52.5t21.5 -52.5t52.5 -21.5zM224 810q-31 0 -52.5 -21.5t-21.5 -52.5t21.5 -52.5t52.5 -21.5t52.5 21.5t21.5 52.5t-21.5 52.5t-52.5 21.5zM177 229q5 -25 29 -27q137 -12 274 -12q138 0 274 12q24 2 29 27q26 167 17 317q-1 13 -10 21.5t-22 8.5h-576
q-13 0 -22 -8.5t-10 -21.5q-9 -150 17 -317zM736 662q31 0 52.5 21.5t21.5 52.5t-21.5 52.5t-52.5 21.5t-52.5 -21.5t-21.5 -52.5t21.5 -52.5t52.5 -21.5zM704 480v-64h-448v64h448zM256 288v64h448v-64h-448z" />
<glyph unicode="&#xf141;" horiz-adv-x="960" d="M736 512q-93 0 -158.5 65.5t-65.5 158.5t65.5 158.5t158.5 65.5t158.5 -65.5t65.5 -158.5t-65.5 -158.5t-158.5 -65.5zM224 960q93 0 158.5 -65.5t65.5 -158.5t-65.5 -158.5t-158.5 -65.5t-158.5 65.5t-65.5 158.5t65.5 158.5t158.5 65.5zM736 602q56 0 95 39t39 95
t-39 95t-95 39t-95 -39t-39 -95t39 -95t95 -39zM736 0q-93 0 -158.5 65.5t-65.5 158.5t65.5 158.5t158.5 65.5t158.5 -65.5t65.5 -158.5t-65.5 -158.5t-158.5 -65.5zM224 0q-93 0 -158.5 65.5t-65.5 158.5t65.5 158.5t158.5 65.5t158.5 -65.5t65.5 -158.5t-65.5 -158.5
t-158.5 -65.5zM736 90q56 0 95 39t39 95t-39 95t-95 39t-95 -39t-39 -95t39 -95t95 -39zM224 90q56 0 95 39t39 95t-39 95t-95 39t-95 -39t-39 -95t39 -95t95 -39z" />
<glyph unicode="&#xf142;" horiz-adv-x="960" d="M708 578l153 -462q8 -25 -4 -49t-37 -32q-10 -3 -20 -3q-21 0 -37.5 12t-23.5 32l-28 84h-229q4 21 4 48q0 39 -13 80h196l-87 262q-46 -6 -102 -6q-51 0 -87 4l-35 -124q-55 30 -118 30h-6l33 119q-64 20 -111.5 54.5t-69 68.5t-33.5 65.5t-13 50.5l-2 20q0 40 28.5 68
t67.5 28h692q39 0 67.5 -28t28.5 -68q0 -7 -1 -19.5t-12.5 -47.5t-31.5 -65.5t-64.5 -65.5t-104.5 -56zM240 32q-73 0 -124.5 51.5t-51.5 124.5t51.5 124.5t124.5 51.5t124.5 -51.5t51.5 -124.5t-51.5 -124.5t-124.5 -51.5z" />
<glyph unicode="&#xf150;" horiz-adv-x="960" d="M927 640q5 -43 -21 -86.5t-92 -65.5q37 -269 37 -386q0 -40 -34.5 -71t-81.5 -31t-81 31t-34 71q0 134 37 386q-69 24 -93 67.5t-19 83.5l31 261q2 13 12 21t23 7t21 -10.5t8 -21.5v-224h64v224q0 14 9 23t23 9t23 -9t9 -23v-224h64v224q0 14 9 23t23 9q12 0 20.5 -8
t10.5 -20zM256 0q-47 0 -81 31t-34 71q0 111 32 358q-98 34 -108 153q-4 49 5 102t30.5 101.5t62 80t93.5 31.5t93.5 -31.5t61.5 -80.5t30.5 -101.5t5.5 -101.5q-10 -119 -109 -153q33 -238 33 -358q0 -40 -34 -71t-81 -31z" />
<glyph unicode="&#xf151;" horiz-adv-x="960" d="M960 363v-299q0 -26 -19 -45t-45 -19t-45 19t-19 45v176q0 20 -19 34t-45 14t-45 -14t-19 -34v-176q0 -26 -19 -45t-45 -19t-45 19t-19 45v299q0 51 29.5 94t77.5 65l-41 292q-8 52 23.5 94.5t84.5 50.5q52 7 94 -24.5t50 -83.5q3 -19 0 -37l-41 -292q48 -22 77.5 -65
t29.5 -94zM576 896v-320q0 -26 -19 -45t-45 -19h-151l53 -366q8 -52 -23.5 -94.5t-83.5 -50.5q-53 -8 -95.5 24t-49.5 84q-3 19 0 37l53 366h-151q-26 0 -45 19t-19 45v320q0 26 19 45t45 19h448q26 0 45 -19t19 -45zM352 640h96v192h-96v-192zM128 640h96v192h-96v-192z
" />
<glyph unicode="&#xf162;" horiz-adv-x="960" d="M949 899q19 -28 6 -60l-91 -212v-499q0 -21 -13 -38t-33 -23q-8 -3 -38 -10t-98.5 -16t-137.5 -9t-137.5 9t-98.5 16t-38 10q-20 6 -33 23t-13 38v129q-88 6 -156 83t-68 172v160q0 99 72.5 177.5t164.5 78.5h659q35 0 53 -29zM224 386v412q-35 -8 -65.5 -46t-30.5 -80
v-160q0 -42 30.5 -80t65.5 -46zM448 704h192v64h-192v-64zM448 512h192v64h-192v-64zM448 320h192v64h-192v-64z" />
<glyph unicode="&#xf163;" horiz-adv-x="960" d="M960 832q0 -80 -1 -133.5t-4 -117t-10 -105t-17.5 -88t-27.5 -77.5t-39.5 -61t-54 -50.5t-70.5 -35.5v-68q0 -39 -35 -57q-78 -39 -221 -39t-221 39q-35 18 -35 57v68q-39 15 -70.5 35.5t-54 50.5t-39.5 61t-27.5 77.5t-17.5 88t-10 105t-4 117t-1 133.5q0 23 14.5 41
t36.5 22q119 17 151 20q134 13 278 13q42 0 82.5 -1t75 -3t67 -4.5t59 -5t49 -5t40 -5.5t29 -4.5t19.5 -3.5l8 -1q22 -5 36.5 -23t14.5 -40zM736 502q31 0 52.5 21.5t21.5 52.5t-21.5 52.5t-52.5 21.5t-52.5 -21.5t-21.5 -52.5t21.5 -52.5t52.5 -21.5zM224 502
q31 0 52.5 21.5t21.5 52.5t-21.5 52.5t-52.5 21.5t-52.5 -21.5t-21.5 -52.5t21.5 -52.5t52.5 -21.5zM480 502q31 0 52.5 21.5t21.5 52.5t-21.5 52.5t-52.5 21.5t-52.5 -21.5t-21.5 -52.5t21.5 -52.5t52.5 -21.5zM608 310q31 0 52.5 21.5t21.5 52.5t-21.5 52.5t-52.5 21.5
t-52.5 -21.5t-21.5 -52.5t21.5 -52.5t52.5 -21.5zM352 310q31 0 52.5 21.5t21.5 52.5t-21.5 52.5t-52.5 21.5t-52.5 -21.5t-21.5 -52.5t21.5 -52.5t52.5 -21.5z" />
<glyph unicode="&#xf164;" horiz-adv-x="960" d="M672 736h-384q-56 0 -100.5 18t-69 45.5t-38 54.5t-16.5 52q-2 21 12 38q14 16 36 16h736q22 0 36 -16q14 -17 12 -38q-3 -25 -16.5 -52t-38 -54.5t-69 -45.5t-100.5 -18zM96 384q0 85 35 159.5t96 128.5h506q61 -54 96 -128.5t35 -159.5q0 -159 -112.5 -271.5
t-271.5 -112.5t-271.5 112.5t-112.5 271.5zM665 224q21 -7 36 8q11 10 11.5 25t-9.5 26l-150 165q-18 20 -41 27q-37 12 -72 -6t-48 -55q-12 -37 6 -72t55 -48z" />
<glyph unicode="&#xf165;" horiz-adv-x="960" d="M448 608v-128h-380q12 100 59 192.5t108.5 153.5t127 97.5t117.5 36.5t117.5 -36.5t126.5 -97.5t108.5 -153.5t59.5 -192.5h-188v128h-64v-128h-128v128h-64zM67 352q-3 33 -3 64h832q0 -31 -3 -64q-17 -152 -133.5 -252t-279.5 -100t-279.5 100t-133.5 252zM368 192h224
q16 0 16 16q0 8 -5 11q-20 31 -48 63t-44.5 47.5t-20.5 18.5q-10 8 -20 0q-4 -3 -21 -19t-46 -49t-48 -64q-5 -9 -1 -16q5 -8 14 -8z" />
<glyph unicode="&#xf166;" horiz-adv-x="960" d="M558 699q402 -47 402 -571q0 -23 -14.5 -40.5t-36.5 -22.5q-119 -17 -151 -20q-134 -13 -278 -13q-242 0 -426 32l-3 1q-22 4 -36.5 22t-14.5 41q0 524 402 571q-50 38 -50 101q0 53 37.5 90.5t90.5 37.5t90.5 -37.5t37.5 -90.5q0 -63 -50 -101zM593 165q-12 21 -10 57
q1 10 4 20t11.5 25t14 24t20.5 31.5l21 31.5q43 63 46 86q4 30 -23.5 56t-54 37t-33.5 11q12 -21 10 -57q0 -7 -2 -14.5t-6.5 -16.5t-8.5 -16.5t-11.5 -19.5t-12.5 -19.5l-15 -22.5t-15 -23q-46 -67 -48 -86q-4 -30 24 -56t55 -37t34 -11zM338 165q-12 21 -10 57q1 10 4 20
t11.5 25t14 24t20.5 31.5l21 31.5q47 68 49 86q4 30 -24.5 56t-55.5 37t-34 11q14 -23 10 -57q0 -5 -1 -11t-4 -13t-5.5 -12.5t-7.5 -14t-8 -14t-10 -16t-11 -16t-12 -17.5l-12 -18q-47 -72 -49 -86q-4 -30 24.5 -56t55.5 -37t34 -11z" />
<glyph unicode="&#xf170;" horiz-adv-x="960" d="M941 509q19 -9 19 -29q0 -97 -8 -201.5t-15.5 -157t-9.5 -62.5t-8.5 -17.5t-16.5 -8.5q-10 -3 -53.5 -9.5t-149 -15t-219.5 -8.5q-115 0 -220 8.5t-148.5 15t-53.5 9.5q-10 1 -16.5 8.5t-8.5 17.5t-9.5 62.5t-15.5 157t-8 201.5q0 20 19 29q8 4 17.5 9.5t34 29.5t42 53
t32.5 81t15 114v132q0 14 9 23t23 9h96q14 0 23 -9t9 -23q0 -93 48 -144t112 -51t112 51t48 144q0 14 9 23t23 9h96q14 0 23 -9t9 -23v-132q0 -62 15 -114t32.5 -81t42 -53t34 -29.5t17.5 -9.5zM480 192q29 0 55.5 5t58.5 21.5t55.5 43t39 74.5t15.5 112q0 14 -9 23t-23 9
h-384q-14 0 -23 -9t-9 -23q0 -64 15.5 -112t38.5 -74.5t55 -43t59 -21.5t56 -5z" />
<glyph unicode="&#xf171;" horiz-adv-x="960" d="M938 509q19 -9 19 -29q0 -189 -29 -421q-5 -23 -26 -26q-8 -3 -52.5 -9.5t-150 -15t-219.5 -8.5t-219.5 8.5t-150 15t-52.5 9.5q-10 1 -17 8.5t-9 17.5q-29 232 -29 421q0 22 16 29q8 4 17.5 9.5t34 29.5t42 53t32.5 81t15 114v132q0 14 9 23t23 9h96q14 0 23 -9t9 -23
q0 -93 48 -144t112 -51t112 51t48 144q0 14 9 23t23 9h96q14 0 23 -9t9 -23v-132q0 -62 14.5 -114t32 -81t41 -52.5t33 -29.5t17.5 -10zM539 141q86 29 99 123q6 47 -6.5 93.5t-30 75.5t-46.5 58t-37.5 35.5t-20.5 15.5q-17 12 -35 0l-2 -2q-104 -76 -132 -180
q-12 -47 -6 -96q6 -45 32 -77t66 -46q-4 16 -5 25q-3 25 2 48t12.5 37.5t18 27t15.5 16.5t8 6q9 7 18 0q3 -2 8 -6t15.5 -16.5t18 -27t12.5 -37.5t2 -48q-1 -13 -6 -25z" />
<glyph unicode="&#xf172;" horiz-adv-x="960" d="M915 754q56 -56 42.5 -148.5t-88.5 -167.5q-31 -31 -69 -53v-305q0 -16 -9.5 -29t-25.5 -17q-5 -3 -37 -10t-102.5 -15.5t-145.5 -8.5t-146 8.5t-102 15.5t-38 10q-15 4 -24.5 17t-9.5 29v305q-37 22 -70 53q-75 75 -88 167.5t43 148.5q44 44 113 45.5t135 -37.5
q15 86 67 142t120 56t120 -56t67 -142q66 39 135 37.5t113 -45.5z" />
<glyph unicode="&#xf1a0;" horiz-adv-x="960" d="M474 0q-163 0 -201 44q-17 19 -17 43v73h-96q-57 0 -99.5 31t-55.5 84q-13 52 9.5 100t72.5 74q18 10 59.5 31t101.5 51.5t94 47.5q12 -66 74 -106q-52 -27 -153.5 -76.5t-117.5 -57.5q-21 -11 -16 -30q3 -21 29 -21h98v4q0 26 18.5 43t45.5 17h320q27 0 45.5 -17
t18.5 -43v-4h98q26 0 29 21q5 19 -16 30q-23 12 -184.5 94.5t-163.5 83.5q-62 32 -64 89q0 26 12.5 46.5t26.5 30.5t35.5 21.5t28.5 17.5q33 18 33 53q0 25 -17.5 42t-42.5 17q-27 0 -45 -18t-21 -47q-2 -27 -21 -43.5t-45 -14.5t-43 22.5t-15 47.5q7 79 60 129t130 50
q78 0 133 -54t55 -131q0 -52 -27 -96t-73 -69l-5 -3q28 -14 102.5 -52t130 -66.5t78.5 -40.5q50 -26 72.5 -74t9.5 -100q-13 -53 -55.5 -83.5t-99.5 -30.5h-96v-73q0 -27 -19 -46q-45 -41 -211 -41z" />
<glyph unicode="&#xf200;" horiz-adv-x="960" d="M950 454q10 -10 10 -24q0 -13 -10 -23l-223 -207q-10 -8 -22 -8q-9 0 -16 4q-20 12 -15 35l23 121h-185v-352h-160v352h-152l-45 -80q-10 -16 -28 -16h-95q-19 0 -27 15q-10 16 -2 31l65 128l-65 131q-8 16 2 31q10 16 27 16h95q18 0 28 -17l45 -79h152v184
q-62 41 -62 120q0 60 40.5 101.5t99.5 41.5t100.5 -42t41.5 -102q0 -80 -60 -119v-184h184l-22 121q-5 23 15 35t38 -4z" />
<glyph unicode="&#xf201;" horiz-adv-x="960" d="M539 530q61 -39 96.5 -103t35.5 -139q0 -119 -84 -203.5t-203 -84.5t-203.5 84.5t-84.5 203.5q0 120 106 224h150v64h-118l17 128h101v64h-92l11 89q6 46 43 74.5t84 21.5q39 -5 66 -31.5t32 -64.5zM768 576h-32q-14 0 -23 9t-9 23v64h-64q-14 0 -23 9t-9 23v32
q0 14 9 23t23 9h64v64q0 14 9 23t23 9h32q14 0 23 -9t9 -23v-64h64q14 0 23 -9t9 -23v-32q0 -14 -9 -23t-23 -9h-64v-64q0 -14 -9 -23t-23 -9z" />
<glyph unicode="&#xf210;" horiz-adv-x="960" d="M455 623q0 49 -34.5 84t-83.5 35t-84 -35t-35 -84t35 -84t84 -35t83.5 35t34.5 84zM863 448q4 -47 -25 -83.5t-75 -41.5q-46 -4 -81 26t-40 77q-4 35 11.5 65t43.5 47l117 65q9 5 19 2.5t15 -11.5q2 -6 2 -10zM358 310q-5 -16 -23 -16q-17 0 -22 16q-21 66 -40 89.5
t-42 23.5q-33 0 -101 -37q-15 -9 -28 4q-12 14 -4 28q47 87 34 119q-14 33 -110 64q-17 5 -17 23q0 17 17 22q96 31 110 64q13 33 -34 119q-9 15 4 28t28 4q68 -37 101 -37q24 0 42 23t40 90q5 17 22 17q18 0 23 -17q21 -66 40 -89.5t42 -23.5q31 0 101 37q14 8 28 -4
q13 -13 4 -28q-47 -86 -34 -119t110 -64q16 -5 16 -22q0 -18 -16 -23q-97 -31 -110 -64q-13 -31 31 -115q6 -6 6 -15q0 -10 -6.5 -17t-16.5 -7h-1q-6 0 -11 3q-70 37 -101 37q-24 0 -42.5 -23t-39.5 -90zM539 0q-46 -4 -81.5 26.5t-40.5 77.5q-3 35 12 65t44 47l117 65
q9 5 19 2.5t14 -12.5q3 -5 3 -9l13 -136q4 -47 -25 -84t-75 -42zM859 0q-46 -4 -81.5 26.5t-39.5 77.5q-4 35 11.5 65t43.5 47l117 65q9 5 19 2.5t14 -12.5q3 -5 3 -9l13 -136q4 -47 -25 -84t-75 -42z" />
<glyph unicode="&#xf211;" horiz-adv-x="960" d="M477 449q-186 -29 -274 -29q-70 0 -133 12q-5 27 -5 49q0 75 44.5 134.5t114.5 79.5q3 98 73 165.5t167 67.5q96 0 165 -65.5t74 -160.5q82 -11 137.5 -74t55.5 -147q0 -11 -1 -16q-62 13 -139 13q-90 0 -279 -29zM477 287q-181 -28 -274 -28q-105 0 -192 26q-3 1 -11 3
v81q3 -1 9.5 -2.5t9.5 -2.5q79 -24 184 -24q100 0 274 29q188 29 279 29q105 0 193 -25q1 0 5 -1.5t6 -2.5v-81q-11 4 -19 5q-78 23 -185 23q-90 0 -279 -29zM576 0h-224v108q-92 -11 -149 -11q-100 0 -192 26q-3 1 -11 3v81q8 -1 19 -5q84 -24 184 -24t274 29
q188 29 279 29q105 0 193 -25q3 -1 11 -3v-78q-13 3 -19 5q-73 21 -185 21q-68 0 -180 -15v-141z" />
<glyph unicode="&#xf212;" horiz-adv-x="960" d="M924 647q14 -120 -60 -204q-80 -91 -230 -91h-119q41 -95 18 -173q-29 -99 -121 -135q-29 -11 -74 -11q-62 0 -108 27q-98 58 -101 228h126q-6 -91 40 -117q36 -20 70 -8q35 14 45 53q15 46 -17 90q-33 46 -87 46h-306v128h640q88 1 128 47q37 41 29 104q-6 44 -46 62
q-50 23 -97 -9q-23 -15 -34.5 -47t-13 -54t0.5 -39h-126q-1 25 1 52t10.5 64t31.5 72t58 58q56 39 126 37q46 0 96 -21q105 -49 120 -159zM248 791q-11 -7 -18 -20.5t-8 -24.5l-2 -10h-121q0 55 16.5 94.5t63.5 69.5q44 27 95 27q36 0 70 -14q83 -36 100 -126
q19 -98 -41 -172q-58 -71 -169 -71h-234v128h224q53 0 74 25q27 33 20 66q-5 23 -24 32q-25 10 -46 -4z" />
<glyph unicode="&#xf213;" horiz-adv-x="960" d="M955 828q14 -43 -25 -100t-126 -149q-49 -52 -74 -79.5t-55.5 -69.5t-38.5 -69q-38 -131 -84 -213.5t-124 -130.5q-25 -16 -48 -16q-6 0 -13 2t-18.5 8.5t-19 23.5t-7.5 42q4 102 0 150q50 -12 94 -6t68 27q36 29 32 58q-84 -21 -144 -13t-89 39q-29 28 -46 81
q58 -25 198 0q52 8 80.5 30t28.5 43q-65 -5 -130.5 -5.5t-130.5 13.5t-102 41q-23 17 -51 49t-31 54q75 -35 171 -47t176.5 -3t128.5 33q49 24 53 58q-64 -7 -147 -7q-151 0 -273.5 26t-175.5 67q-31 26 -31 51q0 59 140.5 101t339.5 42q200 0 330 -39.5t144 -91.5z" />
<glyph unicode="&#xf280;" horiz-adv-x="960" d="M621 526q-58 58 -141 58q-80 0 -139 -57q-20 58 -20 128q-1 112 44.5 192t111.5 81q66 0 114 -79.5t49 -191.5q0 -69 -19 -131zM480 256q-53 0 -90.5 37.5t-37.5 90.5t37.5 90.5t90.5 37.5t90.5 -37.5t37.5 -90.5t-37.5 -90.5t-90.5 -37.5zM329 118q-98 -55 -190.5 -53.5
t-125.5 58.5q-32 58 14 138t144 135q58 32 117 45q-8 -29 -8 -57q0 -68 41 -121.5t105 -71.5q-43 -43 -97 -73zM947 123q-33 -57 -125.5 -58.5t-190.5 53.5q-54 30 -97 73q64 18 105.5 71.5t41.5 121.5q0 30 -9 57q59 -13 117 -45q98 -55 144 -135t14 -138z" />
<glyph unicode="&#xf281;" horiz-adv-x="960" d="M955 408q14 -35 -8.5 -61.5t-50.5 -26.5h-832q-40 0 -55.5 28.5t-3.5 59.5l192 480q16 40 59 40h448q20 0 36.5 -11.5t23.5 -28.5zM235 704h197l6 128h-160zM529 704h196l-43 128h-159zM541 448h267l-52 160h-222zM152 448h268l7 160h-223zM672 0h-384q-26 0 -45 19
t-19 45t19 45t45 19h96v128h192v-128h96q26 0 45 -19t19 -45t-19 -45t-45 -19z" />
<glyph unicode="&#xf282;" horiz-adv-x="960" d="M745 859q101 -66 158 -170.5t57 -224.5q0 -119 -57 -224t-158 -171q-10 -5 -18 -5h-494q-8 0 -18 5q-101 66 -158 171t-57 224q0 120 57 224.5t158 170.5q10 5 18 5h494q8 0 18 -5zM256 448h96v256h-96v-256zM608 480h96v192h-96v-192zM384 160h192v96q0 40 -28 68
t-68 28t-68 -28t-28 -68v-96z" />
<glyph unicode="&#xf303;" horiz-adv-x="960" d="M622 704q-13 -5 -64 12t-97.5 46t-43.5 52q2 15 6 31t12 39t22.5 39t33 27.5t47.5 9.5t63 -20q61 -32 66 -106q-59 -2 -121 11q-12 2 -19 -5q-7 -10 2 -25q31 -44 129 -63q-12 -39 -36 -48zM595 64h-229q21 47 21 96q0 61 -32 114q-32 52 -83 81q-196 103 -244 133
q-40 25 -23 58q13 25 51 25q100 0 191 -28q18 24 48 64.5t34 46.5q22 30 59.5 42.5t75.5 2.5q28 -6 90 -55q99 -81 188 -101q6 53 -34 149q-8 20 7 35q17 15 36 6q12 -6 24 -12.5t46 -29.5t59 -46t48.5 -58.5t29.5 -71.5q12 -80 -61 -150q-47 22 -97 22q-92 0 -159.5 -67
t-67.5 -160q0 -50 22 -96zM160 0q-67 0 -113.5 47t-46.5 113t47 113t113 47t113 -47t47 -113t-47 -113t-113 -47zM800 0q-66 0 -113 47t-47 113t47 113t113 47t113 -47t47 -113t-47 -113t-113 -47zM160 88q29 0 50 21t21 51q0 29 -21 50.5t-50 21.5q-30 0 -51 -21.5
t-21 -50.5q0 -30 21 -51t51 -21zM800 88q29 0 50.5 21t21.5 51q0 29 -21.5 50.5t-50.5 21.5q-30 0 -51 -21.5t-21 -50.5q0 -30 21 -51t51 -21z" />
<glyph unicode="&#xf305;" horiz-adv-x="960" d="M384 352q102 152 102 310q0 145 -113 291q35 7 64 7q123 0 209.5 -87.5t86.5 -210.5q0 -125 -102.5 -217.5t-246.5 -92.5zM149 482q-22 0 -43 6q61 100 61 217q0 115 -61 217q23 5 43 5q84 0 142 -65t58 -157q0 -93 -58 -158t-142 -65zM960 352h-288l152 209zM420 0
q-185 0 -285 61q-45 28 -74 78.5t-29 116.5v128q0 14 9 23t23 9h207q13 0 24.5 -9t14.5 -22l22 -97h596q14 0 23 -9t9 -23q0 -22 -22 -34t-102 -30q-31 -7 -58.5 -30.5t-52.5 -49.5t-59.5 -52t-97 -43t-148.5 -17z" />
<glyph unicode="&#xf313;" horiz-adv-x="960" d="M480 960q130 0 240.5 -64.5t175 -175t64.5 -240.5t-64.5 -240.5t-175 -175t-240.5 -64.5t-240.5 64.5t-175 175t-64.5 240.5t64.5 240.5t175 175t240.5 64.5zM162 650q-19 -43 5 -74.5t74 -25.5q21 3 41 16.5t45.5 36.5t41.5 34q51 35 111 35q58 0 109 -34
q16 -11 41.5 -34.5t46 -37t41.5 -16.5q50 -6 74 25t6 74q-46 83 -132.5 134.5t-185.5 51.5q-98 0 -185 -51.5t-133 -133.5zM480 125q99 0 185.5 51.5t132.5 134.5q18 43 -6 74t-74 25q-29 -4 -76.5 -45t-66.5 -52q-43 -25 -95 -25q-58 0 -109 34q-17 11 -42.5 34t-46 37
t-41.5 17q-50 6 -74 -25t-5 -74q45 -83 132 -134.5t186 -51.5z" />
<glyph unicode="&#xf314;" horiz-adv-x="960" d="M936 772q23 -126 23 -242q0 -118 -23 -242q-3 -14 -15.5 -25t-26.5 -13q-133 -20 -355 -18q-48 0 -105.5 26.5t-112 74.5t-88.5 129.5t-28 177.5h-68q4 67 16 132q3 14 15.5 25t26.5 13q71 8 141 12q18 60 29 91q5 14 19.5 25.5t28.5 12.5q72 5 131 5q58 0 131 -5
q14 -1 28.5 -12.5t19.5 -25.5q24 -75 29 -91q73 -5 142 -12q14 -2 26.5 -13t15.5 -25zM544 349q94 0 160.5 66.5t66.5 160.5t-66.5 160.5t-160.5 66.5t-160.5 -66.5t-66.5 -160.5t66.5 -160.5t160.5 -66.5zM544 704q53 0 90.5 -37.5t37.5 -90.5t-37.5 -90.5t-90.5 -37.5
t-90.5 37.5t-37.5 90.5t37.5 90.5t90.5 37.5zM96 608q0 -160 88 -287.5t227 -170.5q65 -22 141 -22h216v-128h-216q-155 0 -290 83.5t-214.5 224t-79.5 300.5h128z" />
<glyph unicode="&#xf315;" horiz-adv-x="960" d="M893 609q30 -28 30 -70q3 -90 3 -177q2 -110 -10 -217q-5 -40 -37.5 -67.5t-78.5 -32.5q-111 -12 -334 -12q-182 0 -361 18q-54 7 -78 55q-26 55 -26 322q0 266 11 306q13 70 72 116t135 46h325q45 2 72 -25q9 -9 32.5 -30t33.5 -31l73 74q12 12 28 12q17 0 29 -12
l109 -116q12 -11 12 -28t-12 -28l-67 -69q15 -13 39 -34zM464 736h-192q-33 0 -56.5 -23.5t-23.5 -56.5t23.5 -56.5t56.5 -23.5h192q33 0 56.5 23.5t23.5 56.5t-23.5 56.5t-56.5 23.5z" />
<glyph unicode="&#xf316;" horiz-adv-x="960" d="M812 927q23 -5 37.5 -22.5t14.5 -40.5v-768q0 -23 -14.5 -40.5t-37.5 -22.5q-171 -33 -348 -33t-348 33q-23 5 -37.5 22.5t-14.5 40.5v768q0 23 14.5 40.5t37.5 22.5q171 33 348 33t348 -33zM602 512h100q-9 63 -46.5 112.5t-93.5 74.5q35 -77 40 -187zM464 243
q12 0 27.5 22.5t29.5 71.5t17 111h-149q3 -62 17 -111t29.5 -71.5t28.5 -22.5zM389 512h149q-3 62 -17 111t-29.5 71.5t-27.5 22.5q-13 0 -28.5 -22.5t-29.5 -71.5t-17 -111zM325 512q5 110 40 187q-56 -26 -93.5 -75.5t-45.5 -111.5h99zM325 448h-99q8 -62 45.5 -111.5
t93.5 -74.5q-35 75 -40 186zM602 448q-5 -110 -40 -187q56 25 93.5 74.5t46.5 112.5h-100z" />
<glyph unicode="&#xf320;" horiz-adv-x="960" d="M917 672h-874q12 63 39.5 124.5t43 85t24.5 34.5q15 19 38 9q70 -31 128 -31q64 0 154 32q10 4 21 0q90 -32 154 -32q57 0 129 31q22 10 37 -9q9 -11 24.5 -34.5t42.5 -85t39 -124.5zM481 32q-2 0 -22.5 6.5t-57 23t-78.5 40t-87.5 61.5t-84.5 83t-69.5 109t-42.5 136
q-8 44 -6 85h894q2 -41 -6 -85q-12 -72 -42.5 -136t-69.5 -109t-84.5 -83t-87 -61.5t-78 -40t-56.5 -23t-22 -6.5z" />
<glyph unicode="&#xf321;" horiz-adv-x="960" d="M527 640h-96q-10 0 -15 -7t-5 -13q-15 -144 -15 -145q0 -11 8 -19t19 -8h113q11 0 19 8t8 22l-14 142q0 20 -22 20zM375 262l-20 -198h-355l288 832h150l-11 -111q0 -7 5 -12t11 -5h74q6 0 11 4.5t5 11.5l-11 112h150l288 -832h-355l-19 191q0 16 -10.5 24.5t-22.5 8.5
h-147q-10 0 -20.5 -7.5t-10.5 -18.5z" />
<glyph unicode="&#xf322;" horiz-adv-x="960" d="M656 960q127 0 215.5 -93t88.5 -225q0 -67 -26.5 -141.5t-65 -133t-76.5 -107.5t-64 -76l-27 -26q-28 -26 -47 -25.5t-46 25.5q-10 10 -27.5 28t-61.5 73t-78 110t-61.5 130.5t-27.5 142.5q0 132 88.5 225t215.5 93zM656 511q60 0 102.5 42.5t42.5 102.5t-42.5 102
t-102.5 42t-102.5 -42t-42.5 -102t42.5 -102.5t102.5 -42.5zM250 642q0 -114 60 -243t138 -207v-192h-224v448h-224v224h251q-1 -10 -1 -30z" />
<glyph unicode="&#xf323;" horiz-adv-x="960" d="M480 928q200 0 340 -139t140 -341v-352q0 -26 -19 -45t-45 -19h-128v93q42 13 54 46q34 97 0 195q-15 41 -55 47l-42 138q-8 32 -35.5 56t-60.5 29l-9 1q-8 1 -21.5 2t-31 2t-40.5 2t-46 1t-46.5 -1t-41 -2t-31.5 -2t-22 -2l-9 -1q-33 -5 -60.5 -29t-35.5 -56l-42 -138
q-40 -6 -55 -47q-36 -98 0 -195q12 -33 54 -46v-93h-128q-26 0 -45 19t-19 45v352q0 202 140 341t340 139zM661 416h-362l28 106q5 12 17 14q61 8 137 8q15 0 30.5 -0.5t28.5 -1t25 -1.5t21 -2t15.5 -1.5t10.5 -1.5h4q12 -2 17 -14zM704 192q-26 0 -45 19t-19 45t19 45
t45 19t45 -19t19 -45t-19 -45t-45 -19zM256 192q-26 0 -45 19t-19 45t19 45t45 19t45 -19t19 -45t-19 -45t-45 -19zM640 32h-320v96h320v-96z" />
<glyph unicode="&#xf324;" horiz-adv-x="960" d="M954 737q22 -58 -35.5 -109.5t-190.5 -114.5q-335 -157 -471 -157q-51 0 -83 27l-171 150q-5 7 -5 14q2 9 8 12q58 33 64 36q22 11 40 0l23 -11.5t55.5 -27t59.5 -29.5q8 4 138 73l-310 186q-8 5 -8 15q0 9 9 13q77 39 95 44q22 8 45 1q9 -3 405 -141q112 53 159 67
q41 12 73 12q77 0 100 -60zM0 0v128h672v-128h-672z" />
<glyph unicode="&#xf325;" horiz-adv-x="960" d="M755 321q-69 0 -176 20q-249 45 -376.5 93.5t-146.5 106.5q-2 5 -3 8.5t-2 9.5t-4.5 21.5t-8.5 37t-15 64t-23 94.5q-2 7 2.5 13.5t14.5 5.5q66 -6 73 -7q23 -5 33 -23q4 -10 73 -135q19 -2 43 -5.5t57 -8t54 -7.5l-144 328q-4 8 2 15.5t16 6.5q5 -1 29.5 -5.5t46.5 -9
t27 -5.5q24 -7 36 -25l249 -346q116 -20 168 -37q64 -20 94 -57.5t19 -81.5q-19 -71 -138 -71zM736 160q-26 0 -45 19t-19 45t19 45t45 19t45 -19t19 -45t-19 -45t-45 -19zM288 128h672v-128h-672v128z" />
<glyph unicode="&#xf380;" horiz-adv-x="960" d="M906 926q23 -3 38.5 -21t15.5 -42v-766q0 -24 -15.5 -41.5t-38.5 -21.5q-207 -34 -426 -34t-426 34q-23 4 -38.5 21.5t-15.5 41.5v766q0 24 15.5 42t38.5 21q207 34 426 34q218 0 426 -34zM832 148v664q-176 24 -352 24q-178 0 -352 -24v-664q174 -24 352 -24
q176 0 352 24zM769 544q0 14 -11 23l-92 124q-10 12 -26.5 12t-25.5 -12l-96 -128q-11 -16 -3 -33q10 -18 29 -18h193q13 0 22.5 9.5t9.5 22.5zM614 269l-96 128q-11 15 -3 33q10 18 29 18h192q19 0 29 -18q8 -18 -3 -33l-96 -128q-11 -13 -26 -13q-16 0 -26 13zM320 576
q42 0 69 -18t27 -46v-96q0 -14 -9 -23t-23 -9v-128q0 -14 -9 -23t-23 -9h-64q-14 0 -23 9t-9 23v128q-14 0 -23 9t-9 23v96q0 28 27 46t69 18zM320 608q-26 0 -45 19t-19 45t19 45t45 19t45 -19t19 -45t-19 -45t-45 -19z" />
<glyph unicode="&#xf400;" horiz-adv-x="960" d="M745 428q24 -19 27 -49q3 -28 -15 -51l-5 -4q-4 -4 -13 -4h-4q-14 3 -17 16q-3 16 -22 32q-18 15 -37 15q-13 0 -20 12q-5 12 3 23q8 9 14 13q19 14 44.5 13t44.5 -16zM469 753q17 -29 11 -61.5t-32 -48.5q-3 -2 -7 -4h-6q-8 0 -13 4q-13 8 -11 22q2 23 -12 44
q-12 23 -32 31q-13 6 -15 21q-2 14 10 22q12 7 19 8q24 7 49 -3.5t39 -34.5zM468 573q20 11 44.5 6.5t42.5 -22.5q22 -22 24.5 -53t-15.5 -51l-5 -4q-6 -3 -11 -3l-8 1q-12 5 -14 18q-5 19 -22 38q-18 18 -37 21q-12 2 -17 15q-5 11 4 22q6 7 14 12zM480 960
q130 0 240.5 -64.5t175 -175t64.5 -240.5t-64.5 -240.5t-175 -175t-240.5 -64.5t-240.5 64.5t-175 175t-64.5 240.5t64.5 240.5t175 175t240.5 64.5zM180 469h8q16 2 21 17q6 14 -4 26q-15 15 -17 43q-3 26 9 46q8 14 1 27q-7 10 -18 12h-8q-33 -2 -54.5 -29.5t-18.5 -62.5
q2 -29 21 -51t47 -27q4 -1 13 -1zM327 256q13 10 10 25q-3 16 -18 20q-22 7 -37 28q-16 23 -15 44q0 16 -14 23q-10 6 -22 1l-6 -3q-26 -20 -31 -52q-6 -35 16 -65q27 -37 70 -37q14 0 29 5q12 6 18 11zM552 152q3 16 -9 25q-12 11 -27 4q-20 -8 -46 -2q-27 6 -40 23
q-8 10 -20 10l-5 -1q-11 -1 -18 -12q-2 -4 -3 -8q-7 -32 11.5 -61t53.5 -38q14 -2 22 -2q50 0 73 42q5 7 8 20zM771 231q89 106 92 241q2 83 -30 155q-30 65 -72.5 112.5t-91 73t-95 37t-94.5 11.5q-90 1 -151 -29q-6 -3 -17.5 -8.5t-17.5 -8.5q-77 -46 -38 -111
q7 -11 14 -18q43 -43 46 -65q2 -22 -14 -62q-16 -42 -10 -57q6 -16 16.5 -23.5t32.5 -16.5q42 -17 59 -38q18 -23 26 -74q5 -36 15 -46q13 -12 29 -12t54 7q40 6 69.5 -2t40.5 -18.5t24 -30.5l13 -20q4 -8 18 -15t37.5 -4.5t44.5 22.5z" />
<glyph unicode="&#xf401;" horiz-adv-x="960" d="M737 445l-162 115q17 28 51 82q95 152 179 279q19 29 53.5 36t63.5 -13q28 -18 36 -51t-9 -61q-83 -143 -158 -286q-18 -33 -54 -101zM288 608q-66 0 -113 47t-47 113t47 113t113 47t113 -47t47 -113t-47 -113t-113 -47zM296 1q-74 -2 -134 26q-73 34 -112 105
q-31 56 -40 123q-3 19 -5 57q0 18 1 28q0 10 3 32q8 53 48.5 83.5t92.5 21.5q48 -7 78.5 -46t27.5 -87q-5 -108 56 -108q25 0 53 26q36 31 88 106q5 7 65 100l167 -120q-27 -49 -53 -94q-65 -105 -113 -154q-46 -46 -99 -70q-58 -27 -124 -29z" />
<glyph unicode="&#xf402;" horiz-adv-x="960" d="M352 784q0 -73 -51.5 -124.5t-124.5 -51.5t-124.5 51.5t-51.5 124.5t51.5 124.5t124.5 51.5t124.5 -51.5t51.5 -124.5zM640 768q133 0 226.5 -93.5t93.5 -226.5t-93.5 -226.5t-226.5 -93.5q-65 0 -124 25l-220 -136q-30 -19 -64.5 -10.5t-53.5 38.5q-15 25 -12 53.5
t23 49.5l159 170q-28 62 -28 130q0 49 16 100q34 -10 52 -16q64 -25 117 -58q64 -41 106 -85l1 -1q7 -7 15 -4q16 4 13 19q-15 67 -51 143q-36 74 -83 135q-22 26 -33 40q79 47 167 47z" />
<glyph unicode="&#xf403;" horiz-adv-x="960" d="M496 960q89 0 148.5 -60.5t59.5 -151.5v-76q0 -26 -19 -45t-45 -19h-288q-26 0 -45 19t-19 45v76q0 91 59.5 151.5t148.5 60.5zM642 125q-12 -54 -52.5 -89.5t-93.5 -35.5t-93.5 35.5t-51.5 90.5q-22 -54 -71.5 -79t-99.5 -6q-51 19 -73 72t-2 109q7 18 23 41l203 281
h330l185 -254q33 -49 41 -68q20 -56 -2 -109t-73 -72q-50 -19 -99.5 6t-70.5 78z" />
<glyph unicode="&#xf404;" horiz-adv-x="960" d="M234 513q-13 28 -22 44t-27 40t-42.5 36t-55.5 12h-2q49 63 128.5 126.5t155.5 91.5q-12 -30 -14 -48q-3 -17 -6 -42q-33 -228 -55 -293q-8 -23 -22 -24q-10 0 -19 20q-9 16 -19 37zM953 575q3 -47 -0.5 -97t-17.5 -109.5t-39 -112.5t-68.5 -102.5t-101.5 -83.5
t-142.5 -51t-186.5 -10q-230 16 -332 185q-68 113 -59 244q7 94 47 124q8 6 16 8q35 9 57.5 -15t44 -73t36.5 -68q39 -43 88.5 -25t66.5 68q9 27 18 65t16.5 83t12 75t10.5 75t7 49q8 55 54 74.5t114 5.5q-14 -256 -66 -434q-3 -10 1.5 -19.5t14.5 -13.5t20.5 1t14.5 16
q38 107 63 240q12 62 28 188q71 -29 133 -74q-8 -108 -28 -206q-10 -50 -26 -107q-18 -58 -36 -105q-9 -22 12 -32q10 -5 20 -1.5t14 13.5h1q23 49 44 107t35 110q20 75 34 160q74 -78 80 -152z" />
<glyph unicode="&#xf405;" horiz-adv-x="960" d="M576 928q91 0 165.5 -37.5t121.5 -99.5t72 -139t25 -159q0 -187 -53 -292t-148 -105h-5q-23 1 -40.5 4.5t-29 6.5t-20 13t-12.5 14t-6.5 21t-3 21.5t-2.5 26.5q-5 63 -29 102q-23 36 -71 74q-22 16 -33 23q-6 6 -14 9q-35 21 -62 0q-10 -9 -12.5 -24.5t8.5 -26.5
q9 -8 29 -21.5t30 -22.5q33 -29 49 -72q18 -52 1 -96q-14 -39 -45.5 -61.5t-70.5 -22.5q-22 0 -44 8q-137 51 -244 216h-80q-27 0 -32 26q-43 230 0 460q5 26 32 26h158q140 128 366 128z" />
<glyph unicode="&#xf406;" horiz-adv-x="960" d="M480 960q130 0 240.5 -64.5t175 -175t64.5 -240.5t-64.5 -240.5t-175 -175t-240.5 -64.5t-240.5 64.5t-175 175t-64.5 240.5t64.5 240.5t175 175t240.5 64.5zM600 632q28 -28 64 -31.5t59 19.5t20 59t-31 65q-28 28 -64.5 31t-59.5 -20t-19.5 -59t31.5 -64zM374 566
q29 -29 66 -32t61 21q24 23 20.5 60.5t-32.5 65.5q-29 29 -66 32.5t-60 -20.5q-24 -24 -21 -61t32 -66zM579 361q14 -40 46.5 -60.5t65.5 -9.5q34 10 48.5 46.5t0.5 76.5q-13 40 -46 61t-66 10q-34 -11 -48 -47.5t-1 -76.5z" />
<glyph unicode="&#xf410;" horiz-adv-x="960" d="M390 739q-38 -28 -54 -74q-29 -76 -40 -229q-55 -31 -91 -19q-36 11 -56.5 47t-20.5 87q0 43 15 89q24 70 70 114.5t93 44.5q15 0 26 -4q37 -11 58 -56zM759 360q-15 -11 -30.5 -8t-27.5 17q-21 24 -56.5 71t-55.5 70l-23 -138l172 -278q12 -23 4.5 -48t-30.5 -38
q-8 -4 -15 -6q-5 -1 -15 -1q-40 0 -57 33l-145 262v-96q0 -22 -13 -38q-106 -143 -106 -144q-16 -20 -42.5 -24t-47.5 12t-25 42t12 47l94 127q0 33 1 86t12 166.5t31 167.5q23 62 93 69q62 8 115 -50q85 -95 156 -240q21 -43 -1 -61zM448 864q0 40 28 68t68 28t68 -28
t28 -68t-28 -68t-68 -28t-68 28t-28 68z" />
<glyph unicode="&#xf414;" horiz-adv-x="960" d="M480 704q-53 0 -90.5 37.5t-37.5 90.5t37.5 90.5t90.5 37.5t90.5 -37.5t37.5 -90.5t-37.5 -90.5t-90.5 -37.5zM99 8q-20 -16 -46 -12.5t-43 23.5q-32 43 8 87q11 12 143.5 136.5t145.5 138.5q27 32 32 51.5t-5 47.5q-6 18 -30.5 44t-42 40.5t-52.5 41.5q-30 24 -103 84
t-91 78q-15 15 -15 35.5t14 34.5q26 26 66 4q15 -8 102.5 -65t99.5 -64q5 -3 26 -15t27 -15.5t24 -13t26 -12.5t23 -9.5t25 -9t22.5 -4.5t24.5 -2t24.5 2t22.5 4.5t25 9t23 9.5t26 12.5t24 13t27 15.5t26 15q13 7 99.5 64t101.5 65q40 22 66 -4q14 -14 14 -34.5t-15 -35.5
q-18 -18 -91 -78.5t-102 -83.5q-37 -29 -53 -42t-41 -39.5t-31 -44.5q-11 -28 -6 -48t33 -51q13 -14 145.5 -138.5t143.5 -136.5q40 -44 8 -87q-17 -20 -43 -23.5t-46 12.5q-304 251 -321 260q-27 17 -60 17t-61 -17q-7 -4 -87 -69t-156 -128z" />
<glyph unicode="&#xf415;" horiz-adv-x="960" d="M864 960q26 0 45 -19t19 -45t-19 -45t-45 -19h-103l-80 -289q55 -21 87 -67t32 -108v-240q0 -53 -37.5 -90.5t-90.5 -37.5h-512q-53 0 -90.5 37.5t-37.5 90.5v170q0 42 25.5 76t65.5 46q13 4 34 10l-43 180l-13 -2q-33 -7 -62 11.5t-36 51.5q-7 32 13 60t53 35q12 2 16 2
h243q22 0 39 -17t17 -39q0 -20 -12 -34.5t-31 -18.5l-102 -23l40 -168q249 76 250 76q4 1 11 2.5t10 2.5l101 364q6 21 23 34t39 13h151zM304 96h224q20 0 34 14t14 34t-14 34t-34 14h-16l88 81q14 13 14.5 32.5t-12.5 32.5q-13 14 -31.5 14t-32.5 -13l-154 -147h-80
q-20 0 -34 -14t-14 -34t14 -34t34 -14z" />
<glyph unicode="&#xf416;" horiz-adv-x="960" d="M207 828q22 -5 35.5 -22.5t13.5 -39.5v-575q0 -22 -13.5 -38t-35.5 -21q-13 -4 -31 -4t-31 4q-22 5 -35.5 21t-13.5 38v67q-10 -2 -16 -2q-12 0 -26 3q-24 3 -39 19.5t-15 40.5v319q0 24 15.5 41.5t38.5 21.5q14 3 42 1v64q0 22 13.5 39.5t35.5 22.5q31 8 62 0zM320 384
v192h320v-192h-320zM815 132q-13 -4 -31 -4t-31 4q-22 5 -35.5 21t-13.5 38v575q0 22 13.5 39.5t35.5 22.5q31 8 62 0q22 -5 35.5 -22.5t13.5 -39.5v-64q28 2 42 -1q23 -4 38.5 -21.5t15.5 -41.5v-319q0 -24 -15 -40.5t-39 -19.5q-14 -3 -26 -3q-6 0 -16 2v-67
q0 -22 -13.5 -38t-35.5 -21z" />
<glyph unicode="&#xf417;" horiz-adv-x="960" d="M934 856q11 -2 18.5 -11t7.5 -20v-380q0 -13 -9 -22.5t-23 -9.5h1q-1 -83 -16 -150.5t-40 -111t-55.5 -74.5t-66 -47t-66.5 -23t-63 -7q-79 0 -131 33q-58 -33 -139 -33q-60 0 -109.5 17t-81 44.5t-57 63.5t-37.5 73.5t-22 74t-10 66.5t-2.5 50t0.5 24h-1q-14 0 -23 9.5
t-9 22.5v380q0 11 7 20t18 11q40 8 71 8q32 0 70 -8q11 -2 18.5 -11t7.5 -20v-380q0 -13 -9 -22.5t-23 -9.5h-1q0 -14 0.5 -25.5t4 -43.5t10 -57t20.5 -57.5t34 -54t52 -36.5t72 -15q18 0 26 6q-90 86 -90 304v302v5q0 17 1 29t5.5 37t17 43.5t33 37.5t56.5 29.5t83 10.5
q44 0 78 -11.5t53.5 -31.5t32 -40t17.5 -44.5t6 -36t1 -23.5v-327q0 -98 -28 -185q-38 -5 -63.5 4t-35.5 20.5t-19 30.5q18 65 18 130v333q0 59 -64 59t-64 -59v-313q0 -45 5 -85.5t19.5 -82.5t37 -72.5t60 -50t86.5 -19.5q19 0 37.5 4.5t44.5 22.5t45.5 47.5t34 85
t15.5 129.5h-1q-14 0 -23 9.5t-9 22.5v380q0 11 7 20t18 11q40 8 71 8q32 0 70 -8z" />
<glyph unicode="&#xf418;" horiz-adv-x="960" d="M480 704q-53 0 -90.5 37.5t-37.5 90.5t37.5 90.5t90.5 37.5t90.5 -37.5t37.5 -90.5t-37.5 -90.5t-90.5 -37.5zM928 284q6 -17 -2 -34t-25 -24q-16 -6 -32 0t-24 20q-88 157 -175 205l-32 -163q28 -14 81.5 -37t81.5 -39.5t45 -38.5q32 -40 20 -82t-64 -60
q-79 -28 -181 -28q-120 0 -236 36q-3 47 74 92.5t178 38.5q9 0 11 9q4 9 -8 13q-62 18 -124.5 11.5t-112 -27t-79.5 -58.5t-28 -85q-82 -4 -121 9q-46 15 -60 52.5t16 78.5q17 22 49 39t85.5 39t84.5 38l-32 159q-115 -49 -204 -205q-9 -17 -27 -22t-35 5q-14 8 -19.5 24
t-0.5 31l1 1q20 54 36.5 90t45 85t67.5 85t87 58q87 40 221 40q140 0 218 -40q42 -21 76.5 -54.5t61 -79.5t44 -85t38.5 -96v-1z" />
<glyph unicode="&#xf423;" horiz-adv-x="960" d="M608 736h-288q-26 0 -45 19t-19 45v96q0 26 19 45t45 19h288q26 0 45 -19t19 -45v-96q0 -26 -19 -45t-45 -19zM738 494q31 -38 46.5 -73t15.5 -87v-206q0 -32 -20 -58t-51 -34q-129 -36 -265 -36t-265 36q-31 8 -51 34t-20 58v206q0 52 15.5 87t46.5 73q50 62 133 178
h281q98 -133 134 -178zM464 227q-31 0 -52.5 22.5t-21.5 54.5t21.5 53.5t52.5 21.5q32 0 54.5 -22t22.5 -53q0 -32 -22.5 -54.5t-54.5 -22.5zM465 69q15 0 18 13q15 46 27.5 62t27.5 16q24 0 70 -26q6 -2 9 -2q8 -1 14 5t6 14q0 9 -6 13q-29 57 -21 78q9 21 76 43
q13 6 13 18q0 14 -13 18q-68 23 -76 44q-9 22 24 82q7 11 -4 22q-10 10 -22 3q-47 -25 -70 -25q-15 0 -27.5 16t-27.5 62q-4 13 -18 13q-12 0 -18 -13q-15 -46 -27 -62t-28 -16q-22 0 -69 25q-13 7 -23 -3t-3 -22q32 -60 23 -82q-8 -21 -75 -44q-13 -3 -13 -18q0 -13 13 -18
q66 -22 75 -43q9 -22 -23 -82q-8 -13 3 -22q10 -10 23 -4q46 26 69 26q16 0 28 -16t27 -62q5 -13 18 -13z" />
<glyph unicode="&#xf424;" horiz-adv-x="960" d="M896 425q64 -25 64 -75q0 -27 -17.5 -44.5t-46.5 -17.5h-832q-29 0 -46.5 17.5t-17.5 44.5q0 50 64 75q7 3 13.5 8t11 12.5t8 14t7 17.5t5.5 16.5t5 18t4 16.5q33 119 108 173t190 64v67h-48q-20 0 -34 14t-14 34t14 34t34 14h224q20 0 34 -14t14 -34t-14 -34t-34 -14
h-48v-67q115 -10 190 -64t108 -173q1 -4 4 -16.5t5 -18t5.5 -16.5t7 -17.5t8 -14t11 -12.5t13.5 -8zM832 192q64 -51 91 -106q10 -23 1 -39q-9 -18 -37 -26q-81 -21 -407 -21t-407 21q-28 8 -37 26q-9 16 1 39q12 24 34.5 50.5t39.5 41.5l17 14h704z" />
<glyph unicode="&#xf4b0;" horiz-adv-x="960" d="M913 602q15 -67 15 -138q0 -70 -15 -138q-4 -16 -18 -27t-31 -11h-224v-224q0 -17 -11 -31t-27 -18q-68 -15 -138 -15t-138 15q-16 4 -27 18t-11 31v224h-224q-17 0 -31 11t-18 27q-15 68 -15 138q0 71 15 138q4 16 18 27t31 11h224v224q0 18 10.5 31.5t27.5 17.5
q138 30 276 0q16 -4 27 -18t11 -31v-224h224q17 0 31 -11t18 -27z" />
<glyph unicode="&#xf4b2;" horiz-adv-x="960" d="M800 832v-704q0 -33 -20.5 -60t-51.5 -35q-130 -33 -263 -33q-136 0 -265 34q-32 8 -52 34.5t-20 59.5v704q0 33 20.5 60t52.5 35q129 33 263 33q135 0 264 -34q32 -8 52 -34.5t20 -59.5zM640 224v64h-352v-64h352zM280 480q0 -30 21 -51t51 -21t51 21t21 51t-21 51
t-51 21t-51 -21t-21 -51zM576 408q30 0 51 21t21 51t-21 51t-51 21t-51 -21t-21 -51t21 -51t51 -21zM640 672v64h-352v-64h352z" />
<glyph unicode="&#xf4b3;" horiz-adv-x="960" d="M927 912q30 -36 32.5 -79.5t-22.5 -73.5l-150 -182q2 -176 -88 -265l-258 -258q-54 -54 -125 -54q-102 0 -209 107q-75 76 -97 147q-34 109 44 187l258 258q88 88 254 88h11l182 150q29 23 67 23q59 0 101 -48zM608 403q50 50 50 167l-88 88h-4q-113 0 -163 -50
l-258 -258q-23 -23 -12 -57q12 -40 65 -95q71 -69 118 -69q18 0 34 16l55 55l-122 123l70 70l123 -122l58 58l-122 123l70 70l123 -122z" />
</font>
</defs>
</svg>
